<?xml version="1.0" standalone="no"?>
<!DOCTYPE svg PUBLIC "-//W3C//DTD SVG 20010904//EN"
 "http://www.w3.org/TR/2001/REC-SVG-20010904/DTD/svg10.dtd">
<svg version="1.0" xmlns="http://www.w3.org/2000/svg"
 width="964.000000pt" height="243.000000pt" viewBox="0 0 964.000000 243.000000"
 preserveAspectRatio="xMidYMid meet">

<g transform="translate(0.000000,243.000000) scale(0.100000,-0.100000)"
fill="#000000" stroke="none">
<path d="M0 1215 l0 -1215 4820 0 4820 0 0 1215 0 1215 -4820 0 -4820 0 0
-1215z m4169 1028 c-2 -29 -88 -199 -102 -201 -13 -3 -6 21 31 102 26 58 53
106 60 106 6 0 12 -3 11 -7z m700 0 c-2 -29 -88 -199 -102 -201 -13 -3 -6 21
31 102 26 58 53 106 60 106 6 0 12 -3 11 -7z m1400 0 c-2 -29 -88 -199 -102
-201 -13 -3 -6 21 31 102 26 58 53 106 60 106 6 0 12 -3 11 -7z m-2039 -37 c0
-29 3 -33 20 -29 33 9 50 -14 50 -68 0 -37 -4 -49 -15 -49 -11 0 -15 12 -15
51 0 43 -3 50 -17 47 -14 -2 -19 -15 -21 -51 -2 -33 -7 -47 -18 -47 -11 0 -14
18 -14 90 0 73 3 90 15 90 10 0 15 -10 15 -34z m884 3 c-8 -14 -34 -11 -34 4
0 8 3 17 7 20 9 9 34 -13 27 -24z m116 -38 c0 -66 13 -97 36 -89 5 2 10 -1 12
-7 1 -5 -13 -10 -30 -10 l-33 0 -3 74 c-3 63 -6 74 -22 78 -30 8 -24 23 10 23
l30 0 0 -69z m190 -19 l0 -89 -47 1 c-42 1 -49 4 -57 29 -6 17 -6 37 0 55 8
22 16 27 42 27 29 0 32 2 32 32 0 23 5 33 15 33 12 0 15 -16 15 -88z m480 39
c0 -61 12 -70 45 -36 32 35 50 29 30 -9 -14 -26 -14 -31 0 -52 19 -29 19 -34
0 -34 -9 0 -21 11 -27 25 -6 14 -19 25 -30 25 -13 0 -18 -7 -18 -25 0 -14 -4
-25 -10 -25 -6 0 -10 37 -10 90 0 53 4 90 10 90 6 0 10 -22 10 -49z m1620 -39
l0 -89 -47 1 c-42 1 -49 4 -57 29 -6 17 -6 37 0 55 8 22 16 27 42 27 29 0 32
2 32 32 0 23 5 33 15 33 12 0 15 -16 15 -88z m990 73 c0 -8 -6 -12 -14 -9 -16
6 -48 -23 -43 -40 2 -6 13 -12 25 -14 30 -5 28 -22 -3 -22 -22 0 -25 -4 -25
-40 0 -22 -4 -40 -10 -40 -5 0 -10 18 -10 40 0 33 -3 40 -20 40 -11 0 -20 4
-20 9 0 5 9 11 20 14 13 3 20 14 20 29 0 13 5 29 12 36 17 17 68 15 68 -3z
m-1880 -25 c0 -15 7 -20 25 -20 14 0 25 -4 25 -10 0 -5 -12 -10 -26 -10 -23 0
-25 -3 -22 -37 3 -33 6 -38 27 -38 14 0 26 -6 29 -13 5 -16 -60 -16 -76 0 -7
7 -12 29 -12 50 0 27 -4 38 -15 38 -8 0 -15 5 -15 10 0 6 7 10 15 10 8 0 15 9
15 20 0 11 7 20 15 20 8 0 15 -9 15 -20z m1680 0 c0 -15 7 -20 25 -20 14 0 25
-4 25 -10 0 -5 -12 -10 -26 -10 -23 0 -25 -3 -22 -37 3 -33 6 -38 27 -38 14 0
26 -6 29 -13 5 -16 -60 -16 -76 0 -7 7 -12 29 -12 50 0 27 -4 38 -15 38 -8 0
-15 5 -15 10 0 6 7 10 15 10 8 0 15 9 15 20 0 11 7 20 15 20 8 0 15 -9 15 -20z
m-3870 -52 c13 -25 13 -31 0 -55 -11 -20 -25 -29 -46 -31 -37 -4 -57 17 -57
58 0 41 20 62 57 58 21 -2 35 -11 46 -30z m148 -30 c2 -47 0 -58 -13 -58 -11
0 -15 12 -15 51 0 31 -4 48 -10 44 -5 -3 -10 -26 -10 -51 0 -24 -4 -44 -10
-44 -5 0 -10 23 -10 50 0 28 -4 50 -10 50 -5 0 -10 -22 -10 -50 0 -38 -4 -50
-15 -50 -12 0 -15 13 -15 60 l0 61 58 -3 57 -3 3 -57z m120 50 c7 -7 12 -22
12 -35 0 -20 -5 -23 -42 -23 -33 0 -39 -3 -30 -12 7 -7 24 -13 39 -14 42 -1
41 -24 -1 -24 -39 0 -76 28 -76 58 0 48 66 82 98 50z m206 -10 c3 -13 7 -32 9
-43 3 -11 5 -3 6 17 1 35 15 57 29 44 3 -4 9 -25 13 -49 l6 -42 2 42 c1 38 15
63 27 50 3 -3 3 -30 -1 -61 -6 -46 -11 -56 -26 -56 -13 0 -19 7 -19 24 0 14
-4 28 -10 31 -6 4 -10 -7 -10 -24 0 -24 -5 -31 -19 -31 -14 0 -20 10 -25 38
-9 54 -7 82 4 82 5 0 12 -10 14 -22z m196 -28 c0 -43 3 -50 20 -50 11 0 20 -4
20 -10 0 -5 -25 -10 -55 -10 -30 0 -55 5 -55 10 0 6 9 10 20 10 17 0 20 7 20
40 0 33 -3 40 -20 40 -11 0 -20 5 -20 10 0 6 16 10 35 10 l35 0 0 -50z m458
-12 c2 -47 0 -58 -13 -58 -11 0 -15 12 -15 51 0 31 -4 48 -10 44 -5 -3 -10
-26 -10 -51 0 -24 -4 -44 -10 -44 -5 0 -10 23 -10 50 0 28 -4 50 -10 50 -5 0
-10 -22 -10 -50 0 -38 -4 -50 -15 -50 -12 0 -15 13 -15 60 l0 61 58 -3 57 -3
3 -57z m116 40 c9 -12 16 -35 16 -50 0 -16 5 -28 10 -28 6 0 10 -4 10 -10 0
-17 -112 -7 -123 12 -15 23 8 48 44 48 38 0 37 17 -1 25 -39 8 -39 25 -1 25
20 0 35 -8 45 -22z m96 10 c0 -9 3 -9 12 0 17 17 43 15 58 -3 18 -22 3 -32
-22 -16 -19 12 -23 11 -35 -5 -17 -24 -17 -53 2 -60 28 -11 15 -24 -25 -24
-40 0 -53 13 -25 24 9 3 15 18 15 36 0 18 -6 33 -15 36 -24 9 -17 24 10 24 14
0 25 -5 25 -12z m340 3 c0 -6 -15 -11 -32 -13 -40 -4 -39 -20 2 -31 23 -6 30
-13 30 -31 0 -27 -17 -36 -66 -36 -22 0 -34 5 -34 14 0 9 10 13 31 12 42 -1
49 20 9 27 -63 13 -45 67 21 67 22 0 39 -4 39 -9z m284 -23 c6 -18 6 -38 0
-55 -8 -23 -16 -28 -42 -28 -28 0 -32 -3 -32 -27 0 -18 -5 -28 -15 -28 -12 0
-15 16 -15 83 l0 84 47 -1 c42 -1 49 -4 57 -28z m120 10 c9 -12 16 -35 16 -50
0 -16 5 -28 10 -28 6 0 10 -4 10 -10 0 -17 -112 -7 -123 12 -15 23 8 48 44 48
38 0 37 17 -1 25 -39 8 -39 25 -1 25 20 0 35 -8 45 -22z m296 -10 c13 -25 13
-31 0 -55 -11 -20 -25 -29 -46 -31 -37 -4 -57 17 -57 58 0 41 20 62 57 58 21
-2 35 -11 46 -30z m264 10 c9 -12 16 -35 16 -50 0 -16 5 -28 10 -28 6 0 10 -4
10 -10 0 -17 -112 -7 -123 12 -15 23 8 48 44 48 38 0 37 17 -1 25 -39 8 -39
25 -1 25 20 0 35 -8 45 -22z m157 5 c13 -15 11 -16 -16 -11 -34 7 -65 -6 -65
-27 0 -23 32 -47 57 -42 15 3 23 -1 23 -9 0 -18 -60 -18 -85 0 -11 8 -18 26
-18 46 0 38 23 60 64 60 14 0 33 -7 40 -17z m123 -5 c9 -12 16 -35 16 -50 0
-16 5 -28 10 -28 6 0 10 -4 10 -10 0 -17 -112 -7 -123 12 -15 23 8 48 44 48
38 0 37 17 -1 25 -39 8 -39 25 -1 25 20 0 35 -8 45 -22z m284 10 c7 -7 12 -22
12 -35 0 -20 -5 -23 -42 -23 -33 0 -39 -3 -30 -12 7 -7 24 -13 39 -14 42 -1
41 -24 -1 -24 -39 0 -76 28 -76 58 0 48 66 82 98 50z m160 -50 c2 -47 0 -58
-13 -58 -11 0 -15 12 -15 51 0 31 -4 48 -10 44 -5 -3 -10 -26 -10 -51 0 -24
-4 -44 -10 -44 -5 0 -10 23 -10 50 0 28 -4 50 -10 50 -5 0 -10 -22 -10 -50 0
-38 -4 -50 -15 -50 -12 0 -15 13 -15 60 l0 61 58 -3 57 -3 3 -57z m62 21 c8
-22 17 -42 21 -44 3 -3 12 16 19 40 7 27 18 45 27 45 16 0 14 -8 -19 -98 -19
-51 -40 -72 -72 -72 -25 0 -19 19 9 30 l25 9 -25 57 c-29 65 -30 74 -12 74 8
0 20 -18 27 -41z m351 24 c13 -15 11 -16 -16 -11 -34 7 -65 -6 -65 -27 0 -23
32 -47 57 -42 15 3 23 -1 23 -9 0 -18 -60 -18 -85 0 -11 8 -18 26 -18 46 0 38
23 60 64 60 14 0 33 -7 40 -17z m-1251 -23 c0 -6 -27 -10 -60 -10 -33 0 -60 4
-60 10 0 6 27 10 60 10 33 0 60 -4 60 -10z m1120 0 c0 -6 -27 -10 -60 -10 -33
0 -60 4 -60 10 0 6 27 10 60 10 33 0 60 -4 60 -10z m-6950 -220 c0 -37 2 -40
19 -30 25 13 27 13 45 -6 17 -17 23 -104 7 -104 -6 0 -11 21 -13 48 -3 43 -5
47 -28 47 -23 0 -25 -4 -28 -47 -5 -84 -22 -52 -22 42 0 53 4 90 10 90 6 0 10
-18 10 -40z m484 14 c12 -12 13 -20 6 -35 -14 -25 -20 -24 -17 4 2 19 -2 22
-35 21 -43 -1 -48 3 -15 16 32 13 44 12 61 -6z m2476 -19 c0 -19 -4 -35 -10
-35 -5 0 -10 16 -10 35 0 19 5 35 10 35 6 0 10 -16 10 -35z m39 -2 c-1 -34 -2
-35 -9 -13 -11 36 -11 50 0 50 6 0 10 -17 9 -37z m147 23 c15 -11 19 -27 19
-71 0 -59 -17 -85 -55 -85 -38 0 -55 26 -55 85 0 59 17 85 55 85 9 0 25 -6 36
-14z m164 4 c0 -5 -20 -10 -45 -10 -43 0 -45 -1 -45 -30 0 -28 3 -30 35 -30
19 0 35 -4 35 -10 0 -5 -16 -10 -35 -10 -33 0 -35 -2 -35 -35 0 -19 -4 -35
-10 -35 -6 0 -10 35 -10 85 l0 85 55 0 c30 0 55 -4 55 -10z m111 0 c21 -12 27
-68 8 -87 -8 -8 -6 -19 5 -42 9 -17 12 -31 7 -31 -6 0 -17 14 -26 30 -9 18
-23 30 -35 30 -16 0 -20 -7 -20 -30 0 -16 -4 -30 -10 -30 -6 0 -10 35 -10 85
l0 85 31 0 c17 0 39 -5 50 -10z m159 -1 c0 -7 -18 -40 -40 -75 l-40 -64 40 0
c22 0 40 -4 40 -10 0 -5 -22 -10 -50 -10 -31 0 -50 4 -50 11 0 7 18 40 40 75
l40 64 -40 0 c-22 0 -40 5 -40 10 0 6 23 10 50 10 31 0 50 -4 50 -11z m121 1
c21 -12 27 -68 8 -87 -8 -8 -6 -19 5 -42 9 -17 12 -31 7 -31 -6 0 -17 14 -26
30 -9 18 -23 30 -35 30 -16 0 -20 -7 -20 -30 0 -16 -4 -30 -10 -30 -6 0 -10
35 -10 85 l0 85 31 0 c17 0 39 -5 50 -10z m149 0 c0 -5 -13 -10 -30 -10 -23 0
-30 -4 -30 -20 0 -14 7 -20 23 -20 32 0 47 -18 47 -57 0 -26 -6 -36 -25 -45
-30 -13 -75 3 -75 27 0 19 16 20 24 0 8 -22 44 -18 56 6 15 27 -3 49 -41 49
-27 0 -29 3 -29 40 l0 40 40 0 c22 0 40 -4 40 -10z m136 -4 c15 -11 19 -26 19
-71 0 -48 -4 -59 -25 -76 l-25 -19 25 -21 25 -21 -25 3 c-13 2 -30 14 -36 27
-6 12 -20 29 -30 37 -28 20 -27 121 0 141 11 8 27 14 36 14 9 0 25 -6 36 -14z
m135 4 c21 -12 27 -68 8 -87 -8 -8 -6 -19 5 -42 9 -17 12 -31 7 -31 -6 0 -17
14 -26 30 -9 18 -23 30 -35 30 -16 0 -20 -7 -20 -30 0 -16 -4 -30 -10 -30 -6
0 -10 35 -10 85 l0 85 31 0 c17 0 39 -5 50 -10z m155 -5 c18 -15 17 -16 -14
-10 -61 12 -98 -60 -55 -107 23 -25 63 -24 63 2 0 11 -7 20 -15 20 -8 0 -15 5
-15 10 0 6 9 10 21 10 17 0 20 -5 17 -37 -3 -33 -7 -38 -30 -41 -67 -8 -104
92 -53 143 28 29 53 32 81 10z m154 5 c0 -5 -20 -10 -45 -10 -43 0 -45 -1 -45
-30 0 -27 3 -30 30 -30 17 0 30 -4 30 -10 0 -5 -13 -10 -30 -10 -25 0 -30 -4
-30 -25 0 -23 4 -25 45 -25 25 0 45 -4 45 -10 0 -5 -25 -10 -55 -10 l-55 0 0
85 0 85 55 0 c30 0 55 -4 55 -10z m126 -5 c18 -15 17 -16 -14 -10 -61 12 -98
-60 -55 -107 23 -25 63 -24 63 2 0 11 -7 20 -15 20 -8 0 -15 5 -15 10 0 6 9
10 21 10 17 0 20 -5 17 -37 -3 -33 -7 -38 -30 -41 -67 -8 -104 92 -53 143 28
29 53 32 81 10z m132 9 c35 -10 26 -23 -12 -17 -27 4 -36 1 -50 -18 -35 -51
-8 -109 52 -110 33 0 35 -1 15 -11 -31 -15 -75 3 -92 37 -19 39 -4 95 29 112
29 15 28 15 58 7z m142 -3 c0 -5 -11 -12 -25 -15 -32 -8 -47 -38 -43 -84 2
-29 8 -38 25 -40 29 -4 50 32 32 54 -7 9 -21 13 -31 11 -10 -3 -18 -1 -18 5 0
5 15 8 33 6 29 -3 32 -6 35 -40 3 -32 -1 -40 -22 -50 -20 -8 -32 -8 -51 0 -22
10 -25 18 -25 59 1 53 14 77 51 92 31 13 39 13 39 2z m160 -1 c0 -5 -20 -10
-45 -10 -43 0 -45 -1 -45 -30 0 -28 3 -30 35 -30 19 0 35 -4 35 -10 0 -5 -16
-10 -35 -10 -33 0 -35 -2 -35 -35 0 -19 -4 -35 -10 -35 -6 0 -10 35 -10 85 l0
85 55 0 c30 0 55 -4 55 -10z m120 -44 c0 -34 5 -57 13 -60 10 -5 10 -7 0 -12
-7 -3 -13 -14 -13 -25 0 -10 -4 -19 -10 -19 -5 0 -10 9 -10 20 0 17 -7 20 -41
20 -31 0 -40 3 -36 14 3 7 9 34 12 60 4 25 12 46 17 46 6 0 7 -19 3 -50 -7
-49 -6 -50 19 -50 25 0 26 2 26 55 0 30 5 55 10 55 6 0 10 -24 10 -54z m131
44 c21 -12 27 -68 8 -87 -8 -8 -6 -19 5 -42 9 -17 12 -31 7 -31 -6 0 -17 14
-26 30 -9 18 -23 30 -35 30 -16 0 -20 -7 -20 -30 0 -16 -4 -30 -10 -30 -6 0
-10 35 -10 85 l0 85 31 0 c17 0 39 -5 50 -10z m87 -20 c9 -16 19 -30 22 -30 3
0 14 14 23 30 10 17 23 30 28 30 5 0 -2 -20 -16 -44 l-26 -45 26 -40 c14 -23
21 -41 16 -41 -6 0 -18 14 -28 30 -9 17 -20 30 -23 30 -3 0 -13 -14 -22 -30
-9 -17 -22 -30 -28 -30 -5 0 1 18 15 40 14 22 25 42 25 45 0 3 -11 23 -25 45
-14 22 -20 40 -15 40 6 0 19 -13 28 -30z m200 24 c35 -10 26 -23 -12 -17 -27
4 -36 1 -50 -18 -35 -51 -8 -109 52 -110 33 0 35 -1 15 -11 -31 -15 -75 3 -92
37 -19 39 -4 95 29 112 29 15 28 15 58 7z m148 -9 c18 -15 17 -16 -14 -10 -61
12 -98 -60 -55 -107 23 -25 63 -24 63 2 0 11 -7 20 -15 20 -8 0 -15 5 -15 10
0 6 9 10 21 10 17 0 20 -5 17 -37 -3 -33 -7 -38 -30 -41 -67 -8 -104 92 -53
143 28 29 53 32 81 10z m125 5 c21 -12 27 -68 8 -87 -8 -8 -6 -19 5 -42 9 -17
12 -31 7 -31 -6 0 -17 14 -26 30 -9 18 -23 30 -35 30 -16 0 -20 -7 -20 -30 0
-16 -4 -30 -10 -30 -6 0 -10 35 -10 85 l0 85 31 0 c17 0 39 -5 50 -10z m149
-44 c0 -34 5 -57 13 -60 10 -5 10 -7 0 -12 -7 -3 -13 -14 -13 -25 0 -10 -4
-19 -10 -19 -5 0 -10 9 -10 20 0 17 -7 20 -41 20 -31 0 -40 3 -36 14 3 7 9 34
12 60 4 25 12 46 17 46 6 0 7 -19 3 -50 -7 -49 -6 -50 19 -50 25 0 26 2 26 55
0 30 5 55 10 55 6 0 10 -24 10 -54z m135 29 c36 -35 35 -96 -1 -124 -15 -12
-40 -21 -55 -21 l-29 0 0 85 0 85 30 0 c19 0 40 -9 55 -25z m131 17 c33 -22
21 -82 -24 -119 l-27 -23 38 0 c20 0 37 -4 37 -10 0 -5 -22 -10 -50 -10 -27 0
-50 4 -50 9 0 5 18 27 40 49 41 41 47 56 30 82 -7 12 -15 13 -40 3 -32 -12
-41 -1 -12 16 20 12 43 14 58 3z m140 0 c33 -22 21 -82 -24 -119 l-27 -23 38
0 c20 0 37 -4 37 -10 0 -5 -22 -10 -50 -10 -27 0 -50 4 -50 9 0 5 18 27 40 49
41 41 47 56 30 82 -7 12 -15 13 -40 3 -32 -12 -41 -1 -12 16 20 12 43 14 58 3z
m84 -42 c0 -27 4 -50 8 -50 14 0 49 43 60 75 l10 30 1 -30 c1 -17 -5 -40 -13
-51 -13 -18 -13 -24 5 -53 11 -18 17 -36 14 -40 -6 -6 -18 7 -41 45 -15 25
-44 11 -44 -21 0 -14 -4 -25 -10 -25 -6 0 -10 35 -10 85 0 50 4 85 10 85 6 0
10 -22 10 -50z m204 -17 c10 -38 21 -76 23 -85 3 -10 1 -18 -5 -18 -5 0 -12 9
-15 20 -4 15 -14 20 -37 20 -23 0 -33 -5 -37 -20 -3 -11 -10 -20 -15 -20 -6 0
-8 6 -6 13 3 6 13 45 23 85 25 96 44 97 69 5z m76 -8 l0 -75 45 0 c25 0 45 -4
45 -10 0 -5 -25 -10 -55 -10 l-55 0 0 85 c0 50 4 85 10 85 6 0 10 -32 10 -75z
m208 69 c35 -10 26 -23 -12 -17 -27 4 -36 1 -50 -18 -35 -51 -8 -109 52 -110
33 0 35 -1 15 -11 -31 -15 -75 3 -92 37 -19 39 -4 95 29 112 29 15 28 15 58 7z
m72 -44 c0 -27 4 -50 8 -50 14 0 49 43 60 75 l10 30 1 -30 c1 -17 -5 -40 -13
-51 -13 -18 -13 -24 5 -53 11 -18 17 -36 14 -40 -6 -6 -18 7 -41 45 -15 25
-44 11 -44 -21 0 -14 -4 -25 -10 -25 -6 0 -10 35 -10 85 0 50 4 85 10 85 6 0
10 -22 10 -50z m230 40 c0 -5 -11 -10 -25 -10 -24 0 -25 -2 -25 -75 0 -43 -4
-75 -10 -75 -6 0 -10 32 -10 75 0 73 -1 75 -25 75 -14 0 -25 5 -25 10 0 6 27
10 60 10 33 0 60 -4 60 -10z m140 0 c0 -5 -20 -10 -45 -10 -43 0 -45 -1 -45
-30 0 -27 3 -30 30 -30 17 0 30 -4 30 -10 0 -5 -13 -10 -30 -10 -25 0 -30 -4
-30 -25 0 -23 4 -25 45 -25 25 0 45 -4 45 -10 0 -5 -25 -10 -55 -10 l-55 0 0
85 0 85 55 0 c30 0 55 -4 55 -10z m114 -6 c12 -12 13 -20 6 -35 -6 -10 -16
-19 -22 -19 -7 0 -6 5 2 15 19 23 2 37 -39 31 -34 -6 -35 -5 -17 9 25 19 50
19 70 -1z m96 -19 c0 -19 -4 -35 -10 -35 -5 0 -10 16 -10 35 0 19 5 35 10 35
6 0 10 -16 10 -35z m39 -2 c-1 -34 -2 -35 -9 -13 -11 36 -11 50 0 50 6 0 10
-17 9 -37z m-6189 7 c0 -15 7 -20 25 -20 14 0 25 -4 25 -10 0 -5 -12 -10 -26
-10 -23 0 -25 -3 -22 -37 3 -33 6 -38 27 -38 14 0 26 -6 29 -13 5 -16 -60 -16
-76 0 -7 7 -12 29 -12 50 0 27 -4 38 -15 38 -8 0 -15 5 -15 10 0 6 7 10 15 10
8 0 15 9 15 20 0 11 7 20 15 20 8 0 15 -9 15 -20z m280 0 c0 -15 7 -20 25 -20
14 0 25 -4 25 -10 0 -5 -12 -10 -26 -10 -23 0 -25 -3 -22 -37 3 -33 6 -38 27
-38 14 0 26 -6 29 -13 5 -16 -60 -16 -76 0 -7 7 -12 29 -12 50 0 27 -4 38 -15
38 -8 0 -15 5 -15 10 0 6 7 10 15 10 8 0 15 9 15 20 0 11 7 20 15 20 8 0 15
-9 15 -20z m-1830 -5 c0 -10 10 -15 30 -15 17 0 30 -4 30 -10 0 -5 -14 -10
-31 -10 -29 0 -30 -2 -27 -37 3 -33 7 -39 33 -43 20 -4 26 -8 17 -13 -14 -10
-54 1 -64 17 -4 6 -8 26 -8 44 0 22 -5 32 -15 32 -8 0 -15 5 -15 10 0 6 7 10
15 10 8 0 15 7 15 15 0 8 5 15 10 15 6 0 10 -7 10 -15z m-300 -25 c0 -7 6 -7
19 0 26 13 50 3 62 -26 18 -49 -21 -95 -62 -74 -17 10 -19 7 -19 -25 0 -19 -4
-35 -10 -35 -6 0 -10 35 -10 85 0 50 4 85 10 85 6 0 10 -5 10 -10z m150 -42
l22 -53 14 30 c7 17 13 38 14 47 0 17 20 37 20 20 0 -16 -40 -125 -50 -137
-11 -14 -60 -26 -60 -16 0 4 14 12 31 18 25 10 28 15 20 30 -22 38 -50 113
-42 113 5 0 18 -24 31 -52z m468 36 c31 -22 30 -69 -3 -90 -23 -15 -27 -15
-50 0 -33 21 -34 68 -3 90 12 9 25 16 28 16 3 0 16 -7 28 -16z m82 6 c0 -7 6
-7 19 0 25 13 27 13 45 -6 17 -17 23 -104 7 -104 -6 0 -11 21 -13 48 -3 43 -5
47 -28 47 -23 0 -25 -4 -28 -47 -4 -69 -22 -59 -22 12 0 33 4 60 10 60 6 0 10
-5 10 -10z m500 -61 c0 -79 -14 -99 -66 -99 -44 0 -44 16 1 24 19 4 35 13 35
20 0 9 -9 12 -27 8 -44 -8 -69 49 -43 98 8 15 20 19 55 18 l45 -2 0 -67z m128
59 c7 -7 12 -22 12 -35 0 -20 -5 -23 -42 -23 -33 0 -39 -3 -30 -12 7 -7 24
-13 39 -14 42 -1 41 -24 -1 -24 -39 0 -76 28 -76 58 0 48 66 82 98 50z m92 0
c0 -9 3 -9 12 0 17 17 43 15 58 -3 18 -22 3 -32 -22 -16 -19 12 -23 11 -35 -5
-17 -24 -17 -53 2 -60 28 -11 15 -24 -25 -24 -40 0 -53 13 -25 24 9 3 15 18
15 36 0 18 -6 33 -15 36 -24 9 -17 24 10 24 14 0 25 -5 25 -12z m184 -10 c9
-12 16 -35 16 -50 0 -16 5 -28 10 -28 6 0 10 -4 10 -10 0 -17 -112 -7 -123 12
-15 23 8 48 44 48 38 0 37 17 -1 25 -39 8 -39 25 -1 25 20 0 35 -8 45 -22z
m96 10 c0 -9 3 -9 12 0 17 17 43 15 58 -3 18 -22 3 -32 -22 -16 -19 12 -23 11
-35 -5 -17 -24 -17 -53 2 -60 28 -11 15 -24 -25 -24 -40 0 -53 13 -25 24 9 3
15 18 15 36 0 18 -6 33 -15 36 -24 9 -17 24 10 24 14 0 25 -5 25 -12z m340
-20 c13 -25 13 -31 0 -55 -11 -20 -25 -29 -46 -31 -37 -4 -57 17 -57 58 0 41
20 62 57 58 21 -2 35 -11 46 -30z m284 0 c6 -18 6 -38 0 -55 -8 -23 -16 -28
-42 -28 -28 0 -32 -3 -32 -27 0 -18 -5 -28 -15 -28 -12 0 -15 16 -15 83 l0 84
47 -1 c42 -1 49 -4 57 -28z m280 0 c6 -18 6 -38 0 -55 -8 -23 -16 -28 -42 -28
-28 0 -32 -3 -32 -27 0 -18 -5 -28 -15 -28 -12 0 -15 16 -15 83 l0 84 47 -1
c42 -1 49 -4 57 -28z m66 -9 c8 -22 17 -42 21 -44 3 -3 12 16 19 40 7 27 18
45 27 45 16 0 14 -8 -19 -98 -19 -51 -40 -72 -72 -72 -25 0 -19 19 9 30 l25 9
-25 57 c-29 65 -30 74 -12 74 8 0 20 -18 27 -41z m485 32 c3 -6 -12 -11 -32
-13 -45 -4 -46 -20 -3 -31 63 -16 42 -67 -27 -67 -45 0 -42 18 5 22 44 4 44
19 0 34 -38 13 -47 33 -22 51 21 15 70 17 79 4z m-2260 -27 c32 -21 32 -49 0
-70 -18 -11 -33 -14 -52 -8 -27 7 -27 8 12 13 34 5 40 9 40 31 0 18 -6 26 -23
28 -12 2 -20 8 -17 13 8 12 12 12 40 -7z m7005 -2 c48 -39 -13 -105 -67 -73
-15 9 -14 10 12 11 17 0 36 4 43 9 21 13 10 46 -16 49 -12 2 -20 8 -17 13 9
13 20 11 45 -9z m-4870 -2 c0 -6 -27 -10 -60 -10 -33 0 -60 4 -60 10 0 6 27
10 60 10 33 0 60 -4 60 -10z m-604 -51 c10 -17 -13 -36 -27 -22 -12 12 -4 33
11 33 5 0 12 -5 16 -11z m-2786 -127 c0 -15 -28 -47 -35 -40 -8 8 13 48 25 48
6 0 10 -4 10 -8z m160 -92 c0 -53 -4 -90 -10 -90 -5 0 -10 5 -10 12 0 9 -3 9
-12 0 -30 -30 -78 0 -78 48 0 37 26 63 57 57 20 -4 23 0 23 29 0 24 5 34 15
34 12 0 15 -17 15 -90z m110 56 c-13 -13 -35 7 -25 24 5 8 11 8 21 -1 10 -8
12 -15 4 -23z m1800 -33 c0 -74 8 -96 33 -91 9 2 16 -1 17 -7 1 -15 -39 -18
-56 -5 -10 9 -14 33 -14 81 0 62 -2 69 -20 69 -11 0 -20 5 -20 10 0 6 14 10
30 10 l30 0 0 -67z m-2191 48 c7 -5 10 -14 6 -20 -5 -9 -10 -9 -21 0 -11 9
-21 9 -39 1 -20 -10 -25 -19 -25 -51 0 -51 23 -75 62 -67 21 4 28 2 26 -7 -3
-6 -21 -13 -40 -15 -29 -2 -40 2 -57 24 -55 71 16 181 88 135z m991 -1 c0 -5
-11 -10 -25 -10 -24 0 -25 -2 -25 -75 0 -43 -4 -75 -10 -75 -6 0 -10 32 -10
75 0 73 -1 75 -25 75 -14 0 -25 5 -25 10 0 6 27 10 60 10 33 0 60 -4 60 -10z
m124 -12 c9 -12 16 -41 16 -63 0 -53 -23 -85 -60 -85 -37 0 -60 32 -60 85 0
53 23 85 60 85 18 0 34 -8 44 -22z m156 12 c0 -5 -11 -10 -25 -10 -24 0 -25
-2 -25 -75 0 -43 -4 -75 -10 -75 -6 0 -10 32 -10 75 0 73 -1 75 -25 75 -14 0
-25 5 -25 10 0 6 27 10 60 10 33 0 60 -4 60 -10z m124 -6 c37 -36 7 -104 -46
-104 -23 0 -28 -4 -28 -25 0 -14 -4 -25 -10 -25 -6 0 -10 35 -10 85 l0 85 39
0 c23 0 46 -7 55 -16z m1261 7 c3 -5 -5 -13 -17 -16 -28 -9 -58 -34 -58 -49 0
-6 5 -5 12 2 28 28 78 1 78 -42 0 -59 -83 -75 -109 -22 -12 26 -12 36 0 70 17
49 76 85 94 57z m141 -16 c12 -18 15 -37 11 -62 -7 -43 -31 -69 -69 -78 -37
-9 -37 12 -1 26 27 10 43 26 43 42 0 4 -8 2 -19 -4 -24 -16 -48 -6 -63 25 -27
61 61 107 98 51z m132 13 c16 -16 15 -55 0 -60 -9 -3 -8 -9 5 -22 21 -22 22
-34 0 -58 -20 -22 -61 -23 -85 -1 -22 20 -23 37 -2 58 13 12 14 19 5 28 -27
27 -4 67 39 67 14 0 31 -5 38 -12z m148 -13 c12 -18 15 -37 11 -62 -7 -43 -31
-69 -69 -78 -37 -9 -37 12 -1 26 27 10 43 26 43 42 0 4 -8 2 -19 -4 -24 -16
-48 -6 -63 25 -27 61 61 107 98 51z m132 13 c16 -16 15 -55 0 -60 -9 -3 -8 -9
5 -22 21 -22 22 -34 0 -58 -20 -22 -61 -23 -85 -1 -22 20 -23 37 -2 58 13 12
14 19 5 28 -27 27 -4 67 39 67 14 0 31 -5 38 -12z m148 -13 c12 -18 15 -37 11
-62 -7 -43 -31 -69 -69 -78 -37 -9 -37 12 -1 26 27 10 43 26 43 42 0 4 -8 2
-19 -4 -24 -16 -48 -6 -63 25 -27 61 61 107 98 51z m-1589 -5 c3 -13 14 -20
29 -20 13 0 24 -4 24 -10 0 -5 -12 -10 -26 -10 -23 0 -25 -3 -22 -37 2 -31 7
-39 26 -41 32 -5 27 -22 -6 -22 -38 0 -52 17 -52 62 0 27 -4 38 -15 38 -8 0
-15 5 -15 10 0 6 7 10 15 10 8 0 15 9 15 20 0 11 5 20 11 20 6 0 13 -9 16 -20z
m-1629 -52 c11 -23 11 -33 0 -55 -15 -31 -59 -43 -84 -22 -17 14 -19 80 -2 97
22 22 71 10 86 -20z m252 -18 c0 -43 3 -50 20 -50 11 0 20 -4 20 -10 0 -5 -25
-10 -55 -10 -30 0 -55 5 -55 10 0 6 9 10 20 10 17 0 20 7 20 40 0 33 -3 40
-20 40 -11 0 -20 5 -20 10 0 6 16 10 35 10 l35 0 0 -50z m170 -22 c0 -58 -3
-69 -22 -82 -25 -18 -78 -22 -78 -6 0 6 9 10 19 10 29 0 51 11 51 25 0 7 -9
11 -23 8 -31 -6 -57 20 -57 57 0 40 23 59 70 57 l40 -1 0 -68z m138 40 c11
-23 11 -33 0 -55 -15 -31 -59 -43 -84 -22 -17 14 -19 80 -2 97 22 22 71 10 86
-20z m962 12 c11 -11 20 -33 20 -50 0 -16 5 -30 10 -30 6 0 10 -4 10 -10 0
-17 -112 -7 -123 12 -15 23 8 48 44 48 38 0 37 19 -1 27 -16 3 -30 9 -30 14 0
17 50 9 70 -11z m222 -27 c3 -40 6 -48 23 -48 17 0 20 8 23 48 2 33 7 47 18
47 10 0 14 -13 14 -50 0 -27 5 -50 10 -50 6 0 10 -4 10 -10 0 -5 -19 -9 -42
-9 -75 2 -78 4 -78 65 0 66 18 72 22 7z m198 27 c11 -11 20 -33 20 -50 0 -16
5 -30 10 -30 6 0 10 -4 10 -10 0 -17 -112 -7 -123 12 -15 23 8 48 44 48 38 0
37 19 -1 27 -16 3 -30 9 -30 14 0 17 50 9 70 -11z m268 2 c2 -7 -6 -12 -17
-12 -21 0 -27 11 -14 24 9 9 26 2 31 -12z m0 -84 c-3 -7 -11 -13 -18 -13 -7 0
-15 6 -17 13 -3 7 4 12 17 12 13 0 20 -5 18 -12z m-2228 -116 c0 -15 -28 -47
-35 -40 -8 8 13 48 25 48 6 0 10 -4 10 -8z m1680 0 c0 -15 -28 -47 -35 -40 -8
8 13 48 25 48 6 0 10 -4 10 -8z m-1520 -92 c0 -53 -4 -90 -10 -90 -5 0 -10 5
-10 12 0 9 -3 9 -12 0 -30 -30 -78 0 -78 48 0 37 26 63 57 57 20 -4 23 0 23
29 0 24 5 34 15 34 12 0 15 -17 15 -90z m110 56 c-13 -13 -35 7 -25 24 5 8 11
8 21 -1 10 -8 12 -15 4 -23z m1520 -33 c0 -74 8 -96 33 -91 9 2 16 -1 17 -7 1
-15 -39 -18 -56 -5 -10 9 -14 33 -14 81 0 62 -2 69 -20 69 -11 0 -20 5 -20 10
0 6 14 10 30 10 l30 0 0 -67z m160 33 c-13 -13 -35 7 -25 24 5 8 11 8 21 -1
10 -8 12 -15 4 -23z m170 -56 c0 -53 -4 -90 -10 -90 -5 0 -10 5 -10 12 0 9 -3
9 -12 0 -30 -30 -78 0 -78 48 0 37 26 63 57 57 20 -4 23 0 23 29 0 24 5 34 15
34 12 0 15 -17 15 -90z m-2241 71 c7 -5 10 -14 6 -20 -5 -9 -10 -9 -21 0 -11
9 -21 9 -39 1 -20 -10 -25 -19 -25 -51 0 -51 23 -75 62 -67 21 4 28 2 26 -7
-3 -6 -21 -13 -40 -15 -29 -2 -40 2 -57 24 -55 71 16 181 88 135z m991 -1 c0
-5 -11 -10 -25 -10 -24 0 -25 -2 -25 -75 0 -43 -4 -75 -10 -75 -6 0 -10 32
-10 75 0 73 -1 75 -25 75 -14 0 -25 5 -25 10 0 6 27 10 60 10 33 0 60 -4 60
-10z m124 -12 c9 -12 16 -41 16 -63 0 -53 -23 -85 -60 -85 -37 0 -60 32 -60
85 0 53 23 85 60 85 18 0 34 -8 44 -22z m156 12 c0 -5 -11 -10 -25 -10 -24 0
-25 -2 -25 -75 0 -43 -4 -75 -10 -75 -6 0 -10 32 -10 75 0 73 -1 75 -25 75
-14 0 -25 5 -25 10 0 6 27 10 60 10 33 0 60 -4 60 -10z m124 -6 c37 -36 7
-104 -46 -104 -23 0 -28 -4 -28 -25 0 -14 -4 -25 -10 -25 -6 0 -10 35 -10 85
l0 85 39 0 c23 0 46 -7 55 -16z m1416 6 c0 -5 -11 -10 -25 -10 -24 0 -25 -2
-25 -75 0 -43 -4 -75 -10 -75 -6 0 -10 32 -10 75 0 73 -1 75 -25 75 -14 0 -25
5 -25 10 0 6 27 10 60 10 33 0 60 -4 60 -10z m-2672 -72 c11 -23 11 -33 0 -55
-15 -31 -59 -43 -84 -22 -17 14 -19 80 -2 97 22 22 71 10 86 -20z m252 -18 c0
-43 3 -50 20 -50 11 0 20 -4 20 -10 0 -5 -25 -10 -55 -10 -30 0 -55 5 -55 10
0 6 9 10 20 10 17 0 20 7 20 40 0 33 -3 40 -20 40 -11 0 -20 5 -20 10 0 6 16
10 35 10 l35 0 0 -50z m170 -22 c0 -58 -3 -69 -22 -82 -25 -18 -78 -22 -78 -6
0 6 9 10 19 10 29 0 51 11 51 25 0 7 -9 11 -23 8 -31 -6 -57 20 -57 57 0 40
23 59 70 57 l40 -1 0 -68z m138 40 c11 -23 11 -33 0 -55 -15 -31 -59 -43 -84
-22 -17 14 -19 80 -2 97 22 22 71 10 86 -20z m912 -13 c7 -25 16 -45 20 -45 4
0 13 20 20 45 8 27 18 45 27 45 10 0 13 -6 8 -17 -4 -10 -14 -37 -22 -60 -10
-29 -21 -43 -33 -43 -12 0 -23 14 -33 43 -8 23 -18 50 -22 60 -5 11 -2 17 8
17 9 0 19 -18 27 -45z m190 25 c11 -11 20 -33 20 -50 0 -16 5 -30 10 -30 6 0
10 -4 10 -10 0 -17 -112 -7 -123 12 -15 23 8 48 44 48 38 0 37 19 -1 27 -16 3
-30 9 -30 14 0 17 50 9 70 -11z m270 -30 c0 -43 3 -50 20 -50 11 0 20 -4 20
-10 0 -5 -25 -10 -55 -10 -30 0 -55 5 -55 10 0 6 9 10 20 10 17 0 20 7 20 40
0 33 -3 40 -20 40 -11 0 -20 5 -20 10 0 6 16 10 35 10 l35 0 0 -50z m308 18
c11 -23 11 -33 0 -55 -15 -31 -59 -43 -84 -22 -17 14 -19 80 -2 97 22 22 71
10 86 -20z m110 14 c2 -7 -6 -12 -17 -12 -21 0 -27 11 -14 24 9 9 26 2 31 -12z
m392 6 c0 -9 3 -9 12 0 18 18 46 14 58 -8 8 -16 8 -20 -4 -20 -8 0 -16 6 -19
13 -8 23 -42 -8 -45 -42 -2 -23 1 -31 12 -31 9 0 16 -4 16 -10 0 -5 -18 -10
-40 -10 -22 0 -40 5 -40 10 0 6 7 10 15 10 11 0 15 11 15 40 0 29 -4 40 -15
40 -8 0 -15 5 -15 10 0 6 11 10 25 10 14 0 25 -5 25 -12z m122 -35 c3 -40 6
-48 23 -48 17 0 20 8 23 48 2 33 7 47 18 47 10 0 14 -13 14 -50 0 -27 5 -50
10 -50 6 0 10 -4 10 -10 0 -5 -19 -9 -42 -9 -75 2 -78 4 -78 65 0 66 18 72 22
7z m206 35 c7 -7 12 -22 12 -35 0 -20 -5 -23 -42 -23 -40 -1 -42 -2 -24 -15
11 -8 30 -15 43 -15 13 0 23 -4 23 -10 0 -15 -63 -12 -85 4 -21 15 -25 67 -5
90 15 19 61 21 78 4z m-720 -90 c-3 -7 -11 -13 -18 -13 -7 0 -15 6 -17 13 -3
7 4 12 17 12 13 0 20 -5 18 -12z m1441 -115 c-2 -29 -88 -199 -102 -201 -13
-3 -6 21 31 102 26 58 53 106 60 106 6 0 12 -3 11 -7z m700 0 c-2 -29 -88
-199 -102 -201 -13 -3 -6 21 31 102 26 58 53 106 60 106 6 0 12 -3 11 -7z
m1400 0 c-2 -29 -88 -199 -102 -201 -13 -3 -6 21 31 102 26 58 53 106 60 106
6 0 12 -3 11 -7z m-2039 -37 c0 -29 3 -33 20 -29 33 9 50 -14 50 -68 0 -37 -4
-49 -15 -49 -11 0 -15 12 -15 51 0 43 -3 50 -17 47 -14 -2 -19 -15 -21 -51 -2
-33 -7 -47 -18 -47 -11 0 -14 18 -14 90 0 73 3 90 15 90 10 0 15 -10 15 -34z
m884 3 c-8 -14 -34 -11 -34 4 0 8 3 17 7 20 9 9 34 -13 27 -24z m116 -38 c0
-66 13 -97 36 -89 5 2 10 -1 12 -7 1 -5 -13 -10 -30 -10 l-33 0 -3 74 c-3 63
-6 74 -22 78 -30 8 -24 23 10 23 l30 0 0 -69z m190 -19 l0 -89 -47 1 c-42 1
-49 4 -57 29 -6 17 -6 37 0 55 8 22 16 27 42 27 29 0 32 2 32 32 0 23 5 33 15
33 12 0 15 -16 15 -88z m480 39 c0 -61 12 -70 45 -36 32 35 50 29 30 -9 -14
-26 -14 -31 0 -52 19 -29 19 -34 0 -34 -9 0 -21 11 -27 25 -6 14 -19 25 -30
25 -13 0 -18 -7 -18 -25 0 -14 -4 -25 -10 -25 -6 0 -10 37 -10 90 0 53 4 90
10 90 6 0 10 -22 10 -49z m1620 -39 l0 -89 -47 1 c-42 1 -49 4 -57 29 -6 17
-6 37 0 55 8 22 16 27 42 27 29 0 32 2 32 32 0 23 5 33 15 33 12 0 15 -16 15
-88z m990 73 c0 -8 -6 -12 -14 -9 -16 6 -48 -23 -43 -40 2 -6 13 -12 25 -14
30 -5 28 -22 -3 -22 -22 0 -25 -4 -25 -40 0 -22 -4 -40 -10 -40 -5 0 -10 18
-10 40 0 33 -3 40 -20 40 -11 0 -20 4 -20 9 0 5 9 11 20 14 13 3 20 14 20 29
0 13 5 29 12 36 17 17 68 15 68 -3z m-1880 -25 c0 -15 7 -20 25 -20 14 0 25
-4 25 -10 0 -5 -12 -10 -26 -10 -23 0 -25 -3 -22 -37 3 -33 6 -38 27 -38 14 0
26 -6 29 -13 5 -16 -60 -16 -76 0 -7 7 -12 29 -12 50 0 27 -4 38 -15 38 -8 0
-15 5 -15 10 0 6 7 10 15 10 8 0 15 9 15 20 0 11 7 20 15 20 8 0 15 -9 15 -20z
m1680 0 c0 -15 7 -20 25 -20 14 0 25 -4 25 -10 0 -5 -12 -10 -26 -10 -23 0
-25 -3 -22 -37 3 -33 6 -38 27 -38 14 0 26 -6 29 -13 5 -16 -60 -16 -76 0 -7
7 -12 29 -12 50 0 27 -4 38 -15 38 -8 0 -15 5 -15 10 0 6 7 10 15 10 8 0 15 9
15 20 0 11 7 20 15 20 8 0 15 -9 15 -20z m-3870 -52 c13 -25 13 -31 0 -55 -11
-20 -25 -29 -46 -31 -37 -4 -57 17 -57 58 0 41 20 62 57 58 21 -2 35 -11 46
-30z m148 -30 c2 -47 0 -58 -13 -58 -11 0 -15 12 -15 51 0 31 -4 48 -10 44 -5
-3 -10 -26 -10 -51 0 -24 -4 -44 -10 -44 -5 0 -10 23 -10 50 0 28 -4 50 -10
50 -5 0 -10 -22 -10 -50 0 -38 -4 -50 -15 -50 -12 0 -15 13 -15 60 l0 61 58
-3 57 -3 3 -57z m120 50 c7 -7 12 -22 12 -35 0 -20 -5 -23 -42 -23 -33 0 -39
-3 -30 -12 7 -7 24 -13 39 -14 42 -1 41 -24 -1 -24 -39 0 -76 28 -76 58 0 48
66 82 98 50z m206 -10 c3 -13 7 -32 9 -43 3 -11 5 -3 6 17 1 35 15 57 29 44 3
-4 9 -25 13 -49 l6 -42 2 42 c1 38 15 63 27 50 3 -3 3 -30 -1 -61 -6 -46 -11
-56 -26 -56 -13 0 -19 7 -19 24 0 14 -4 28 -10 31 -6 4 -10 -7 -10 -24 0 -24
-5 -31 -19 -31 -14 0 -20 10 -25 38 -9 54 -7 82 4 82 5 0 12 -10 14 -22z m196
-28 c0 -43 3 -50 20 -50 11 0 20 -4 20 -10 0 -5 -25 -10 -55 -10 -30 0 -55 5
-55 10 0 6 9 10 20 10 17 0 20 7 20 40 0 33 -3 40 -20 40 -11 0 -20 5 -20 10
0 6 16 10 35 10 l35 0 0 -50z m458 -12 c2 -47 0 -58 -13 -58 -11 0 -15 12 -15
51 0 31 -4 48 -10 44 -5 -3 -10 -26 -10 -51 0 -24 -4 -44 -10 -44 -5 0 -10 23
-10 50 0 28 -4 50 -10 50 -5 0 -10 -22 -10 -50 0 -38 -4 -50 -15 -50 -12 0
-15 13 -15 60 l0 61 58 -3 57 -3 3 -57z m116 40 c9 -12 16 -35 16 -50 0 -16 5
-28 10 -28 6 0 10 -4 10 -10 0 -17 -112 -7 -123 12 -15 23 8 48 44 48 38 0 37
17 -1 25 -39 8 -39 25 -1 25 20 0 35 -8 45 -22z m96 10 c0 -9 3 -9 12 0 17 17
43 15 58 -3 18 -22 3 -32 -22 -16 -19 12 -23 11 -35 -5 -17 -24 -17 -53 2 -60
28 -11 15 -24 -25 -24 -40 0 -53 13 -25 24 9 3 15 18 15 36 0 18 -6 33 -15 36
-24 9 -17 24 10 24 14 0 25 -5 25 -12z m340 3 c0 -6 -15 -11 -32 -13 -40 -4
-39 -20 2 -31 23 -6 30 -13 30 -31 0 -27 -17 -36 -66 -36 -22 0 -34 5 -34 14
0 9 10 13 31 12 42 -1 49 20 9 27 -63 13 -45 67 21 67 22 0 39 -4 39 -9z m284
-23 c6 -18 6 -38 0 -55 -8 -23 -16 -28 -42 -28 -28 0 -32 -3 -32 -27 0 -18 -5
-28 -15 -28 -12 0 -15 16 -15 83 l0 84 47 -1 c42 -1 49 -4 57 -28z m120 10 c9
-12 16 -35 16 -50 0 -16 5 -28 10 -28 6 0 10 -4 10 -10 0 -17 -112 -7 -123 12
-15 23 8 48 44 48 38 0 37 17 -1 25 -39 8 -39 25 -1 25 20 0 35 -8 45 -22z
m296 -10 c13 -25 13 -31 0 -55 -11 -20 -25 -29 -46 -31 -37 -4 -57 17 -57 58
0 41 20 62 57 58 21 -2 35 -11 46 -30z m264 10 c9 -12 16 -35 16 -50 0 -16 5
-28 10 -28 6 0 10 -4 10 -10 0 -17 -112 -7 -123 12 -15 23 8 48 44 48 38 0 37
17 -1 25 -39 8 -39 25 -1 25 20 0 35 -8 45 -22z m157 5 c13 -15 11 -16 -16
-11 -34 7 -65 -6 -65 -27 0 -23 32 -47 57 -42 15 3 23 -1 23 -9 0 -18 -60 -18
-85 0 -11 8 -18 26 -18 46 0 38 23 60 64 60 14 0 33 -7 40 -17z m123 -5 c9
-12 16 -35 16 -50 0 -16 5 -28 10 -28 6 0 10 -4 10 -10 0 -17 -112 -7 -123 12
-15 23 8 48 44 48 38 0 37 17 -1 25 -39 8 -39 25 -1 25 20 0 35 -8 45 -22z
m284 10 c7 -7 12 -22 12 -35 0 -20 -5 -23 -42 -23 -33 0 -39 -3 -30 -12 7 -7
24 -13 39 -14 42 -1 41 -24 -1 -24 -39 0 -76 28 -76 58 0 48 66 82 98 50z
m160 -50 c2 -47 0 -58 -13 -58 -11 0 -15 12 -15 51 0 31 -4 48 -10 44 -5 -3
-10 -26 -10 -51 0 -24 -4 -44 -10 -44 -5 0 -10 23 -10 50 0 28 -4 50 -10 50
-5 0 -10 -22 -10 -50 0 -38 -4 -50 -15 -50 -12 0 -15 13 -15 60 l0 61 58 -3
57 -3 3 -57z m62 21 c8 -22 17 -42 21 -44 3 -3 12 16 19 40 7 27 18 45 27 45
16 0 14 -8 -19 -98 -19 -51 -40 -72 -72 -72 -25 0 -19 19 9 30 l25 9 -25 57
c-29 65 -30 74 -12 74 8 0 20 -18 27 -41z m351 24 c13 -15 11 -16 -16 -11 -34
7 -65 -6 -65 -27 0 -23 32 -47 57 -42 15 3 23 -1 23 -9 0 -18 -60 -18 -85 0
-11 8 -18 26 -18 46 0 38 23 60 64 60 14 0 33 -7 40 -17z m-1251 -23 c0 -6
-27 -10 -60 -10 -33 0 -60 4 -60 10 0 6 27 10 60 10 33 0 60 -4 60 -10z m1120
0 c0 -6 -27 -10 -60 -10 -33 0 -60 4 -60 10 0 6 27 10 60 10 33 0 60 -4 60
-10z m-7403 -352 c-1 -40 -3 -8 -3 72 0 80 2 112 3 73 2 -40 2 -106 0 -145z"/>
<path d="M5344 2146 c-11 -28 0 -61 21 -61 16 0 20 7 20 35 0 25 -5 36 -18 38
-9 2 -20 -3 -23 -12z"/>
<path d="M7444 2146 c-11 -28 0 -61 21 -61 16 0 20 7 20 35 0 25 -5 36 -18 38
-9 2 -20 -3 -23 -12z"/>
<path d="M4372 2148 c-28 -28 3 -83 33 -58 8 7 15 20 15 29 0 17 -18 41 -30
41 -3 0 -11 -5 -18 -12z"/>
<path d="M4650 2145 c-11 -13 -8 -15 19 -15 33 0 42 14 15 24 -21 8 -20 8 -34
-9z"/>
<path d="M5620 2095 c0 -16 9 -19 34 -9 25 9 19 24 -9 24 -16 0 -25 -6 -25
-15z"/>
<path d="M6334 2146 c-11 -28 0 -61 21 -61 16 0 20 7 20 35 0 25 -5 36 -18 38
-9 2 -20 -3 -23 -12z"/>
<path d="M6460 2095 c0 -16 9 -19 34 -9 25 9 19 24 -9 24 -16 0 -25 -6 -25
-15z"/>
<path d="M6752 2148 c-28 -28 3 -83 33 -58 8 7 15 20 15 29 0 17 -18 41 -30
41 -3 0 -11 -5 -18 -12z"/>
<path d="M7020 2095 c0 -16 9 -19 34 -9 25 9 19 24 -9 24 -16 0 -25 -6 -25
-15z"/>
<path d="M7300 2095 c0 -16 9 -19 34 -9 25 9 19 24 -9 24 -16 0 -25 -6 -25
-15z"/>
<path d="M7590 2145 c-11 -13 -8 -15 19 -15 33 0 42 14 15 24 -21 8 -20 8 -34
-9z"/>
<path d="M4220 1911 c-23 -44 -5 -111 30 -111 23 0 40 28 40 65 0 37 -17 65
-40 65 -11 0 -24 -9 -30 -19z"/>
<path d="M4500 1895 c0 -30 3 -35 24 -35 13 0 29 6 35 14 18 22 -3 56 -34 56
-22 0 -25 -4 -25 -35z"/>
<path d="M4780 1895 c0 -30 3 -35 24 -35 13 0 29 6 35 14 18 22 -3 56 -34 56
-22 0 -25 -4 -25 -35z"/>
<path d="M5060 1911 c-23 -44 -5 -111 30 -111 23 0 40 28 40 65 0 37 -17 65
-40 65 -11 0 -24 -9 -30 -19z"/>
<path d="M5200 1895 c0 -30 3 -35 24 -35 13 0 29 6 35 14 18 22 -3 56 -34 56
-22 0 -25 -4 -25 -35z"/>
<path d="M6320 1895 c0 -30 3 -35 24 -35 13 0 29 6 35 14 18 22 -3 56 -34 56
-22 0 -25 -4 -25 -35z"/>
<path d="M6880 1895 c0 -30 3 -35 24 -35 13 0 29 6 35 14 18 22 -3 56 -34 56
-22 0 -25 -4 -25 -35z"/>
<path d="M7160 1865 c0 -58 2 -65 19 -65 29 0 51 27 51 64 0 35 -25 66 -53 66
-14 0 -17 -11 -17 -65z"/>
<path d="M7741 1907 c-18 -46 -14 -67 13 -67 23 0 24 2 15 38 -6 20 -12 42
-13 47 -2 6 -9 -3 -15 -18z"/>
<path d="M724 1866 c-12 -32 0 -61 28 -64 29 -4 44 22 33 58 -7 24 -53 28 -61
6z"/>
<path d="M1284 1866 c-3 -8 -4 -25 -2 -38 2 -17 9 -23 28 -23 22 0 25 4 25 35
0 29 -4 36 -23 38 -13 2 -24 -3 -28 -12z"/>
<path d="M1844 1866 c-11 -28 0 -61 21 -61 16 0 20 7 20 35 0 25 -5 36 -18 38
-9 2 -20 -3 -23 -12z"/>
<path d="M1990 1865 c-11 -13 -8 -15 19 -15 33 0 42 14 15 24 -21 8 -20 8 -34
-9z"/>
<path d="M2260 1815 c0 -16 9 -19 34 -9 25 9 19 24 -9 24 -16 0 -25 -6 -25
-15z"/>
<path d="M2692 1868 c-28 -28 3 -83 33 -58 8 7 15 20 15 29 0 17 -18 41 -30
41 -3 0 -11 -5 -18 -12z"/>
<path d="M2974 1866 c-11 -28 0 -61 21 -61 16 0 20 7 20 35 0 25 -5 36 -18 38
-9 2 -20 -3 -23 -12z"/>
<path d="M3254 1866 c-11 -28 0 -61 21 -61 16 0 20 7 20 35 0 25 -5 36 -18 38
-9 2 -20 -3 -23 -12z"/>
<path d="M444 1586 c-11 -28 0 -61 21 -61 16 0 20 7 20 35 0 25 -5 36 -18 38
-9 2 -20 -3 -23 -12z"/>
<path d="M1292 1638 c-16 -16 -15 -93 2 -107 32 -27 63 24 49 80 -9 37 -30 48
-51 27z"/>
<path d="M1560 1610 c0 -33 3 -40 19 -40 20 0 51 24 51 40 0 16 -31 40 -51 40
-16 0 -19 -7 -19 -40z"/>
<path d="M2823 1564 c-8 -21 19 -46 40 -38 9 3 17 17 17 30 0 19 -5 24 -25 24
-14 0 -28 -7 -32 -16z"/>
<path d="M2973 1643 c-7 -2 -13 -16 -13 -29 0 -22 4 -25 27 -22 31 3 44 35 21
49 -14 10 -17 10 -35 2z"/>
<path d="M3110 1635 c-15 -18 -5 -35 20 -35 10 0 22 5 25 10 7 11 -12 40 -25
40 -4 0 -13 -7 -20 -15z"/>
<path d="M3107 1574 c-14 -15 -6 -43 14 -49 25 -8 42 6 37 31 -3 19 -38 31
-51 18z"/>
<path d="M3253 1643 c-7 -2 -13 -16 -13 -29 0 -22 4 -25 27 -22 31 3 44 35 21
49 -14 10 -17 10 -35 2z"/>
<path d="M3390 1635 c-15 -18 -5 -35 20 -35 10 0 22 5 25 10 7 11 -12 40 -25
40 -4 0 -13 -7 -20 -15z"/>
<path d="M3387 1574 c-14 -15 -6 -43 14 -49 25 -8 42 6 37 31 -3 19 -38 31
-51 18z"/>
<path d="M3533 1643 c-7 -2 -13 -16 -13 -29 0 -22 4 -25 27 -22 31 3 44 35 21
49 -14 10 -17 10 -35 2z"/>
<path d="M312 1588 c-28 -28 3 -83 33 -58 8 7 15 20 15 29 0 17 -18 41 -30 41
-3 0 -11 -5 -18 -12z"/>
<path d="M724 1586 c-11 -28 0 -61 21 -61 16 0 20 7 20 35 0 25 -5 36 -18 38
-9 2 -20 -3 -23 -12z"/>
<path d="M872 1588 c-28 -28 3 -83 33 -58 8 7 15 20 15 29 0 17 -18 41 -30 41
-3 0 -11 -5 -18 -12z"/>
<path d="M1840 1534 c0 -10 7 -14 22 -12 32 5 35 28 4 28 -17 0 -26 -5 -26
-16z"/>
<path d="M2260 1534 c0 -10 7 -14 22 -12 32 5 35 28 4 28 -17 0 -26 -5 -26
-16z"/>
<path d="M444 1306 c-11 -28 0 -61 21 -61 16 0 20 7 20 35 0 25 -5 36 -18 38
-9 2 -20 -3 -23 -12z"/>
<path d="M2404 1306 c-11 -28 0 -61 21 -61 16 0 20 7 20 35 0 25 -5 36 -18 38
-9 2 -20 -3 -23 -12z"/>
<path d="M1292 1358 c-16 -16 -15 -93 2 -107 32 -27 63 24 49 80 -9 37 -30 48
-51 27z"/>
<path d="M1560 1330 c0 -33 3 -40 19 -40 20 0 51 24 51 40 0 16 -31 40 -51 40
-16 0 -19 -7 -19 -40z"/>
<path d="M312 1308 c-28 -28 3 -83 33 -58 8 7 15 20 15 29 0 17 -18 41 -30 41
-3 0 -11 -5 -18 -12z"/>
<path d="M724 1306 c-11 -28 0 -61 21 -61 16 0 20 7 20 35 0 25 -5 36 -18 38
-9 2 -20 -3 -23 -12z"/>
<path d="M872 1308 c-28 -28 3 -83 33 -58 8 7 15 20 15 29 0 17 -18 41 -30 41
-3 0 -11 -5 -18 -12z"/>
<path d="M1980 1254 c0 -10 7 -14 22 -12 32 5 35 28 4 28 -17 0 -26 -5 -26
-16z"/>
<path d="M2552 1308 c-28 -28 3 -83 33 -58 8 7 15 20 15 29 0 17 -18 41 -30
41 -3 0 -11 -5 -18 -12z"/>
<path d="M3393 1313 c-24 -9 -13 -23 17 -23 32 0 40 14 14 24 -9 3 -16 6 -17
5 -1 0 -8 -3 -14 -6z"/>
<path d="M5344 1026 c-11 -28 0 -61 21 -61 16 0 20 7 20 35 0 25 -5 36 -18 38
-9 2 -20 -3 -23 -12z"/>
<path d="M7444 1026 c-11 -28 0 -61 21 -61 16 0 20 7 20 35 0 25 -5 36 -18 38
-9 2 -20 -3 -23 -12z"/>
<path d="M4372 1028 c-28 -28 3 -83 33 -58 8 7 15 20 15 29 0 17 -18 41 -30
41 -3 0 -11 -5 -18 -12z"/>
<path d="M4650 1025 c-11 -13 -8 -15 19 -15 33 0 42 14 15 24 -21 8 -20 8 -34
-9z"/>
<path d="M5620 975 c0 -16 9 -19 34 -9 25 9 19 24 -9 24 -16 0 -25 -6 -25 -15z"/>
<path d="M6334 1026 c-11 -28 0 -61 21 -61 16 0 20 7 20 35 0 25 -5 36 -18 38
-9 2 -20 -3 -23 -12z"/>
<path d="M6460 975 c0 -16 9 -19 34 -9 25 9 19 24 -9 24 -16 0 -25 -6 -25 -15z"/>
<path d="M6752 1028 c-28 -28 3 -83 33 -58 8 7 15 20 15 29 0 17 -18 41 -30
41 -3 0 -11 -5 -18 -12z"/>
<path d="M7020 975 c0 -16 9 -19 34 -9 25 9 19 24 -9 24 -16 0 -25 -6 -25 -15z"/>
<path d="M7300 975 c0 -16 9 -19 34 -9 25 9 19 24 -9 24 -16 0 -25 -6 -25 -15z"/>
<path d="M7590 1025 c-11 -13 -8 -15 19 -15 33 0 42 14 15 24 -21 8 -20 8 -34
-9z"/>
</g>
</svg>
