<?xml version="1.0" standalone="no"?>
<!DOCTYPE svg PUBLIC "-//W3C//DTD SVG 20010904//EN"
 "http://www.w3.org/TR/2001/REC-SVG-20010904/DTD/svg10.dtd">
<svg version="1.0" xmlns="http://www.w3.org/2000/svg"
 width="851.000000pt" height="720.000000pt" viewBox="0 0 851.000000 720.000000"
 preserveAspectRatio="xMidYMid meet">

<g transform="translate(0.000000,720.000000) scale(0.100000,-0.100000)"
fill="#000000" stroke="none">
<path d="M0 3600 l0 -3600 3064 0 3065 0 4 28 4 27 2 -27 1 -28 1185 0 1185 0
0 3600 0 3600 -1816 0 c-1514 0 -1815 -2 -1811 -13 7 -18 -12 -47 -20 -29 -2
6 -15 12 -29 12 -17 0 -22 4 -18 15 6 13 -118 15 -1085 15 l-1091 0 -1 -23 c0
-12 -3 -16 -6 -9 -5 14 -43 17 -43 3 0 -5 7 -12 15 -14 11 -4 10 -4 -2 -3 -27
2 -22 29 7 37 14 4 -568 7 -1292 8 l-1318 1 0 -3600z m3097 3554 c-3 -3 -12
-4 -19 -1 -8 3 -5 6 6 6 11 1 17 -2 13 -5z m-387 -64 c-8 -5 -37 -9 -65 -8
l-50 1 55 7 c30 4 60 7 65 8 6 1 3 -3 -5 -8z m398 -7 c-10 -2 -26 -2 -35 0
-10 3 -2 5 17 5 19 0 27 -2 18 -5z m-438 -46 c0 -2 -10 -12 -22 -23 l-23 -19
19 23 c18 21 26 27 26 19z m5547 -43 c-3 -3 -12 -4 -19 -1 -8 3 -5 6 6 6 11 1
17 -2 13 -5z m-5049 -61 c-15 -2 -42 -2 -60 0 -18 2 -6 4 27 4 33 0 48 -2 33
-4z m-529 -17 c17 -20 10 -67 -11 -79 -23 -15 -48 8 -48 42 0 45 35 66 59 37z
m5626 7 c-16 -3 -39 -12 -50 -21 -20 -17 -20 -17 -1 6 13 15 29 22 50 21 l31
-2 -30 -4z m-5645 -193 c24 15 36 12 15 -4 -19 -14 -19 -15 -1 -35 11 -12 14
-21 9 -21 -6 0 -17 7 -24 16 -12 14 -14 14 -20 -3 -5 -10 -7 7 -7 42 0 45 2
52 7 28 5 -26 9 -30 21 -23z m499 -42 c-1 -32 -4 -45 -7 -33 -4 11 -16 20 -27
20 -23 0 -32 30 -15 50 7 8 21 15 31 15 16 0 19 -7 18 -52z m71 -78 c-8 -5
-37 -9 -65 -8 l-50 1 55 7 c30 4 60 7 65 8 6 1 3 -3 -5 -8z m5120 0 c-8 -5
-37 -9 -65 -8 l-50 1 55 7 c30 4 60 7 65 8 6 1 3 -3 -5 -8z m-5160 -53 c0 -2
-10 -12 -22 -23 l-23 -19 19 23 c18 21 26 27 26 19z m5120 0 c0 -2 -10 -12
-22 -23 l-23 -19 19 23 c18 21 26 27 26 19z m-5170 -147 c24 15 36 12 15 -4
-19 -14 -19 -15 -1 -35 11 -12 14 -21 9 -21 -6 0 -17 7 -24 16 -12 14 -14 14
-20 -3 -5 -10 -7 7 -7 42 0 45 2 52 7 28 5 -26 9 -30 21 -23z m5140 -26 c0
-33 -2 -35 -27 -32 -34 4 -38 32 -5 36 26 4 29 19 5 25 -14 4 -12 5 5 6 19 1
22 -4 22 -35z m-5082 -95 c22 -4 22 -5 8 -24 -13 -16 -15 -17 -10 -2 5 13 1
17 -17 17 -12 0 -32 -8 -43 -17 -15 -14 -14 -10 4 13 14 17 27 28 30 23 3 -4
15 -9 28 -10z m4950 4 c-10 -2 -28 -2 -40 0 -13 2 -5 4 17 4 22 1 32 -1 23 -4z
m-4968 -69 c-8 -8 -23 -20 -34 -25 -13 -7 -9 -1 9 15 34 29 43 33 25 10z
m4917 -190 c-3 -3 -12 -4 -19 -1 -8 3 -5 6 6 6 11 1 17 -2 13 -5z m56 -71
c-13 -2 -35 -2 -50 0 -16 2 -5 4 22 4 28 0 40 -2 28 -4z m-35 -165 c7 -7 11
-23 11 -37 -1 -18 -3 -20 -6 -8 -3 10 -9 14 -16 10 -8 -4 -7 -1 1 9 9 12 10
18 2 23 -18 11 -40 -3 -40 -25 0 -14 4 -19 13 -14 9 6 9 4 -1 -8 -16 -19 0
-33 26 -23 14 5 15 4 4 -7 -30 -30 -70 43 -41 78 14 17 31 18 47 2z m-6355
-155 c-7 -2 -21 -2 -30 0 -10 3 -4 5 12 5 17 0 24 -2 18 -5z m6340 0 c-28 -5
-30 -29 -3 -36 13 -3 20 -13 19 -29 -2 -23 -2 -23 -6 0 -3 14 -12 22 -24 22
-14 0 -19 7 -19 25 0 21 4 25 28 24 23 -2 24 -2 5 -6z m-6 -89 c-3 -3 -12 -4
-19 -1 -8 3 -5 6 6 6 11 1 17 -2 13 -5z m-956 -103 c-13 -3 -28 -15 -32 -26
-5 -14 -8 -15 -8 -4 -1 21 19 39 44 38 17 -1 17 -2 -4 -8z m978 -43 c-1 -32
-4 -45 -7 -33 -4 11 -16 20 -27 20 -23 0 -32 30 -15 50 7 8 21 15 31 15 16 0
19 -7 18 -52z m-982 -14 c-3 -3 -12 -4 -19 -1 -8 3 -5 6 6 6 11 1 17 -2 13 -5z
m-6989 -61 c-10 -2 -28 -2 -40 0 -13 2 -5 4 17 4 22 1 32 -1 23 -4z m7045 0
c-13 -2 -33 -2 -45 0 -13 2 -3 4 22 4 25 0 35 -2 23 -4z m997 -3 c-8 -5 -37
-9 -65 -8 l-50 1 55 7 c30 4 60 7 65 8 6 1 3 -3 -5 -8z m-6477 -7 c-7 -2 -21
-2 -30 0 -10 3 -4 5 12 5 17 0 24 -2 18 -5z m1 -42 c3 -4 -6 -6 -19 -3 -14 2
-25 6 -25 8 0 8 39 4 44 -5z m6430 -12 c-10 -11 -28 -25 -39 -31 -11 -6 -4 4
15 20 41 36 51 41 24 11z m-6447 -35 c-3 -3 -12 -4 -19 -1 -8 3 -5 6 6 6 11 1
17 -2 13 -5z m-1529 -61 c-15 -2 -42 -2 -60 0 -18 2 -6 4 27 4 33 0 48 -2 33
-4z m1535 -10 c-28 -5 -30 -29 -3 -36 13 -3 20 -13 19 -29 -2 -23 -2 -23 -6 0
-3 14 -12 22 -24 22 -14 0 -19 7 -19 25 0 21 4 25 28 24 23 -2 24 -2 5 -6z
m5427 -25 c-13 -13 -19 -16 -15 -8 14 25 28 41 32 36 3 -3 -5 -15 -17 -28z
m40 -44 c0 -2 -16 -4 -35 -4 -19 0 -35 4 -35 8 0 4 16 6 35 4 19 -2 35 -6 35
-8z m-5473 -20 c-3 -3 -12 -4 -19 -1 -8 3 -5 6 6 6 11 1 17 -2 13 -5z m1273
-138 c0 -46 3 -104 6 -130 7 -46 7 -46 45 -46 33 0 39 -3 39 -20 0 -20 -5 -21
-112 -18 -93 2 -113 6 -113 18 0 10 13 16 43 18 l42 3 0 110 0 109 -29 0 c-17
0 -33 5 -36 10 -12 20 7 30 61 30 l54 0 0 -84z m2300 64 c0 -16 -7 -20 -30
-20 -23 0 -30 4 -30 20 0 16 7 20 30 20 23 0 30 -4 30 -20z m294 -11 c3 -17 6
-76 6 -130 l0 -99 40 0 c34 0 40 -3 40 -20 0 -20 -5 -21 -112 -18 -93 2 -113
6 -113 18 0 10 13 16 43 18 l42 3 0 110 0 109 -29 0 c-17 0 -33 5 -36 10 -12
20 7 30 59 30 52 0 54 -1 60 -31z m376 -99 c0 -123 1 -130 20 -130 13 0 20 -7
20 -20 0 -17 -7 -20 -45 -20 -25 0 -45 5 -45 11 0 5 -10 3 -22 -5 -44 -31
-117 -15 -155 34 -17 22 -16 91 3 118 22 32 67 52 114 52 33 0 42 4 49 23 7
17 5 23 -10 25 -11 2 -19 12 -19 23 0 16 7 19 45 19 l45 0 0 -130z m242 101
c25 -22 32 -36 32 -65 0 -31 -9 -46 -64 -102 l-65 -66 63 5 c34 3 62 1 62 -3
0 -5 3 -15 6 -24 5 -14 -8 -16 -110 -16 -106 0 -116 2 -116 18 0 11 37 53 85
96 90 82 105 114 64 136 -31 17 -65 4 -79 -30 -13 -32 -44 -40 -54 -14 -15 38
48 94 105 94 28 0 47 -8 71 -29z m248 14 c9 -11 11 -38 6 -101 -8 -98 -13
-114 -32 -114 -20 0 -30 32 -39 123 -5 56 -3 82 5 92 16 19 44 19 60 0z
m-6316 -3 c3 -5 -5 -8 -17 -8 -16 1 -23 -6 -25 -23 -3 -17 0 -21 10 -15 11 6
11 5 0 -8 -16 -19 0 -33 26 -23 14 5 15 4 4 -7 -30 -30 -70 43 -41 78 13 15
35 19 43 6z m1604 -85 c9 -3 1 -5 -18 -5 -19 0 -29 2 -22 5 7 2 13 25 14 51
l2 47 3 -47 c3 -33 9 -48 21 -51z m5440 81 c7 -7 11 -23 11 -37 -1 -18 -3 -20
-6 -8 -3 10 -9 14 -16 10 -8 -4 -7 -1 1 9 9 12 10 18 2 23 -18 11 -40 -3 -40
-25 0 -14 4 -19 13 -14 9 6 9 4 -1 -8 -16 -19 0 -33 26 -23 14 5 15 4 4 -7
-30 -30 -70 43 -41 78 14 17 31 18 47 2z m-4810 -20 c3 -13 -3 -18 -22 -18
-14 0 -26 -4 -26 -9 0 -4 11 -6 25 -3 14 2 32 -1 40 -8 9 -7 26 -9 45 -5 35 8
40 25 7 25 -29 0 -37 7 -30 26 4 10 23 14 63 14 61 0 80 -11 60 -35 -6 -7 -15
-55 -21 -105 -13 -133 -16 -140 -50 -140 -22 0 -32 6 -39 25 -5 14 -16 25 -24
25 -16 0 -46 -26 -46 -41 0 -5 -13 -9 -29 -9 -34 0 -34 1 -52 143 -7 53 -16
97 -21 97 -4 0 -8 9 -8 20 0 19 5 21 62 18 50 -2 63 -6 66 -20z m-2219 -20
c-1 -18 -2 -19 -6 -5 -2 9 -9 14 -15 11 -7 -4 -8 -2 -4 4 12 20 26 13 25 -10z
m2591 -43 c33 -17 60 -61 60 -100 0 -24 -3 -25 -52 -25 -29 -1 -64 -7 -78 -15
-29 -17 -26 -18 60 -19 49 -1 65 -4 65 -15 0 -20 -59 -34 -128 -29 -46 3 -63
10 -87 33 -55 53 -48 117 19 162 40 27 98 30 141 8z m631 -8 c13 -22 0 -67
-18 -67 -9 0 -26 11 -39 25 -28 30 -62 32 -98 4 -29 -23 -36 -78 -12 -98 34
-28 100 -23 148 11 25 18 44 -2 29 -30 -21 -40 -121 -55 -187 -27 -67 28 -79
120 -21 172 31 29 44 32 121 29 51 -2 71 -7 77 -19z m233 8 c38 -18 66 -62 66
-102 0 -104 -171 -141 -234 -51 -18 26 -21 80 -5 109 27 52 111 73 173 44z
m337 -6 c15 -15 19 -33 19 -80 0 -46 4 -65 17 -74 24 -18 7 -35 -38 -35 -38 0
-39 1 -39 35 0 28 -4 35 -20 35 -24 0 -26 -18 -3 -35 24 -18 7 -35 -38 -35
-36 0 -39 2 -40 28 l-1 27 -7 -25 c-6 -22 -13 -25 -55 -28 -56 -4 -81 12 -53
32 24 18 24 123 0 141 -35 26 -4 35 119 34 104 -1 123 -4 139 -20z m239 6 c33
-17 60 -61 60 -100 0 -23 -3 -25 -45 -25 -45 0 -95 -17 -95 -31 0 -5 30 -7 68
-6 53 2 67 -1 67 -12 0 -21 -59 -34 -128 -29 -54 4 -62 8 -100 47 l-40 43 21
44 c37 75 121 106 192 69z m768 -7 c2 -11 -3 -18 -12 -18 -9 0 -16 -4 -16 -8
0 -10 116 -9 126 1 4 4 0 7 -9 7 -10 0 -17 8 -17 20 0 17 7 20 49 20 55 0 70
-12 49 -38 -8 -9 -22 -52 -32 -94 -17 -75 -19 -78 -46 -78 -20 0 -31 6 -35 20
-3 11 -13 20 -20 20 -8 0 -19 -9 -25 -20 -6 -12 -21 -20 -35 -20 -25 0 -29 9
-54 120 -5 24 -15 46 -20 48 -6 2 -11 13 -11 23 0 18 6 20 52 17 41 -2 54 -7
56 -20z m346 6 c3 -9 6 -47 6 -85 l0 -69 40 0 c34 0 40 -3 40 -20 0 -20 -5
-21 -112 -18 -93 2 -113 6 -113 18 0 10 13 16 43 18 l42 3 0 65 0 64 -29 0
c-17 0 -33 5 -36 10 -12 20 7 30 60 30 39 0 54 -4 59 -16z m1866 -104 c24 15
36 12 15 -4 -19 -14 -19 -15 -1 -35 11 -12 14 -21 9 -21 -6 0 -17 7 -24 16
-12 14 -14 14 -20 -3 -5 -10 -7 7 -7 42 0 45 2 52 7 28 5 -26 9 -30 21 -23z
m-7022 28 c7 -7 11 -23 11 -37 -1 -18 -3 -20 -6 -8 -3 10 -9 14 -16 10 -8 -4
-7 -1 1 9 9 12 10 18 2 23 -18 11 -40 -3 -40 -25 0 -14 4 -19 13 -14 9 6 9 4
-1 -8 -16 -19 0 -33 26 -23 14 5 15 4 4 -7 -30 -30 -70 43 -41 78 14 17 31 18
47 2z m1585 5 c-24 -5 -32 -33 -10 -33 7 0 18 -5 25 -12 18 -18 -4 -48 -36
-47 l-27 1 25 7 c32 9 40 41 11 41 -16 0 -21 6 -21 25 0 21 4 25 28 24 23 -2
24 -2 5 -6z m2702 -133 c-20 -39 -42 -70 -50 -70 -19 0 -19 -2 2 76 17 62 18
64 50 64 l33 0 -35 -70z m2020 20 c0 -18 -33 -26 -47 -12 -6 6 -7 15 -3 22 10
16 50 8 50 -10z m805 -38 c0 -5 -10 -17 -22 -28 l-23 -19 19 22 18 22 -58 4
-59 3 63 2 c34 1 62 -2 62 -6z m-7080 -9 c-19 -3 -44 -12 -55 -21 -20 -17 -20
-17 -1 6 14 16 29 22 55 20 l36 -1 -35 -4z m6999 -77 c-23 -20 -23 -20 -6 0 9
11 18 31 18 45 l2 24 4 -24 c3 -16 -3 -31 -18 -45z m-5446 44 c-13 -5 -23 -18
-23 -29 0 -12 8 -21 23 -24 21 -5 21 -5 -2 -4 -52 4 -49 68 3 66 21 0 21 0 -1
-9z m-1553 -14 c0 -2 -8 -10 -17 -17 -16 -13 -17 -12 -4 4 13 16 21 21 21 13z
m-47 -146 c-13 -5 -23 -18 -23 -29 0 -12 8 -21 23 -24 21 -5 21 -5 -2 -4 -52
4 -49 68 3 66 21 0 21 0 -1 -9z m7192 -20 c3 -6 -1 -7 -9 -4 -18 7 -21 14 -7
14 6 0 13 -4 16 -10z m-7142 -97 c-13 -2 -35 -2 -50 0 -16 2 -5 4 22 4 28 0
40 -2 28 -4z m-1 -25 c-9 -9 -6 -19 16 -42 l27 -31 -28 24 -27 25 -30 -22
c-45 -34 -44 -26 3 18 38 35 69 58 39 28z m928 -12 c0 -2 -11 -6 -25 -8 -13
-3 -22 -1 -19 3 5 9 44 13 44 5z m-14 -64 c-10 -2 -22 0 -28 6 -6 6 0 7 19 4
21 -5 23 -7 9 -10z m6231 2 c-3 -3 -12 -4 -19 -1 -8 3 -5 6 6 6 11 1 17 -2 13
-5z m-3564 -51 c-13 -2 -23 -9 -23 -14 0 -5 10 -10 23 -10 l22 -2 -22 -4 c-28
-5 -32 -49 -5 -56 9 -3 1 -5 -18 -5 -19 0 -29 2 -22 5 14 6 17 53 2 53 -5 0
-2 9 7 20 10 11 27 19 38 19 18 -2 17 -2 -2 -6z m177 -37 c0 -34 4 -46 18 -49
9 -3 -1 -5 -23 -5 -22 0 -32 2 -22 5 20 5 25 78 5 86 -8 3 -6 6 5 6 14 1 17
-7 17 -43z m100 0 c0 -34 4 -46 18 -49 9 -3 -1 -5 -23 -5 -22 0 -32 2 -22 5
20 5 25 78 5 86 -8 3 -6 6 5 6 14 1 17 -7 17 -43z m290 0 c0 -34 4 -46 18 -49
9 -3 -1 -5 -23 -5 -22 0 -32 2 -22 5 20 5 25 78 5 86 -8 3 -6 6 5 6 14 1 17
-7 17 -43z m1310 25 c0 -14 5 -18 19 -14 10 3 21 1 24 -4 3 -5 -4 -9 -16 -9
-18 1 -22 -4 -22 -26 1 -16 -4 -28 -10 -28 -5 0 -10 22 -10 50 0 28 3 50 8 50
4 0 7 -9 7 -19z m352 -29 c3 -49 3 -49 -29 -50 -18 -1 -34 2 -37 6 -2 4 8 8
22 7 20 0 27 5 27 20 0 15 -7 20 -27 20 -14 -1 -24 3 -21 8 3 5 16 7 30 4 20
-4 24 -1 20 14 -3 11 -1 19 3 19 4 0 10 -22 12 -48z m228 30 c0 -13 7 -18 22
-18 17 1 23 -6 29 -31 4 -23 3 -33 -6 -33 -7 0 -10 11 -7 31 4 26 2 30 -14 27
-13 -2 -19 -12 -19 -31 1 -15 -4 -27 -10 -27 -5 0 -10 22 -10 50 0 28 3 50 8
50 4 0 7 -8 7 -18z m-3933 2 c-3 -3 -12 -4 -19 -1 -8 3 -5 6 6 6 11 1 17 -2
13 -5z m60 0 c-3 -3 -12 -4 -19 -1 -8 3 -5 6 6 6 11 1 17 -2 13 -5z m2948 -17
c18 -4 18 -5 -2 -6 -18 -1 -23 -7 -23 -27 0 -24 3 -25 28 -19 20 5 24 4 16 -5
-20 -20 -48 -7 -55 25 -6 33 0 62 10 47 3 -5 15 -12 26 -15z m290 0 c18 -4 18
-5 -2 -6 -18 -1 -23 -7 -23 -27 0 -22 4 -25 21 -21 16 4 19 3 11 -5 -17 -17
-42 -1 -42 27 0 14 -5 25 -10 25 -6 0 -5 6 2 14 7 8 15 10 18 6 3 -4 14 -10
25 -13z m-4482 -79 c7 -4 -1 -7 -18 -7 -16 0 -24 3 -17 6 7 2 13 25 14 51 l1
47 4 -45 c3 -24 10 -48 16 -52z m1216 74 c13 10 14 10 4 -2 -7 -8 -13 -22 -13
-31 0 -10 6 -20 13 -22 6 -3 -1 -5 -18 -5 -16 0 -24 2 -17 5 15 6 16 34 2 51
-7 9 -7 9 2 2 8 -6 17 -6 27 2z m112 -8 c23 -28 -26 -73 -52 -47 -5 5 3 9 19
8 20 0 27 5 27 20 0 15 -7 20 -27 20 -14 -1 -24 3 -22 7 9 14 41 9 55 -8z
m101 -17 c3 -32 2 -34 -29 -35 -18 -1 -33 2 -33 7 0 4 10 7 22 7 26 -1 38 32
16 45 -10 7 -10 9 3 9 12 0 18 -11 21 -33z m172 24 c3 -4 -6 -6 -19 -3 -14 2
-25 6 -25 8 0 8 39 4 44 -5z m99 -2 c-27 -10 -31 -46 -5 -52 9 -3 1 -5 -18 -5
-19 0 -29 2 -22 5 6 2 12 15 12 28 0 13 -6 25 -12 28 -7 2 5 4 27 5 33 0 36
-2 18 -9z m105 -1 c21 -21 13 -28 -30 -27 l-43 2 40 7 c31 5 36 8 23 14 -10 5
-25 5 -34 2 -8 -3 -12 -2 -9 4 8 14 38 13 53 -2z m186 3 c4 -5 -3 -7 -14 -4
-11 3 -20 1 -20 -5 0 -6 10 -13 23 -15 19 -4 18 -4 -5 -6 -27 -1 -38 16 -21
32 9 10 31 9 37 -2z m56 -22 c0 -24 4 -30 18 -27 11 2 17 13 17 31 -1 39 12
33 17 -7 4 -32 2 -34 -26 -33 -26 2 -31 7 -37 35 -3 17 -3 32 2 32 5 0 9 -14
9 -31z m150 19 c0 -4 -12 -6 -27 -5 -22 2 -28 -2 -28 -18 0 -15 7 -20 27 -20
16 1 24 -3 19 -8 -26 -26 -75 19 -52 47 13 15 61 19 61 4z m100 -1 c0 -5 -9
-5 -20 -2 -12 4 -27 1 -35 -5 -9 -8 -15 -8 -15 -2 0 6 6 13 13 15 19 8 57 4
57 -6z m74 7 c28 -11 17 -32 -19 -36 -27 -3 -35 0 -35 12 0 29 20 37 54 24z
m100 -3 c4 -5 -3 -7 -14 -4 -11 3 -20 1 -20 -5 0 -6 10 -13 23 -15 19 -4 18
-4 -5 -6 -27 -1 -38 16 -21 32 9 10 31 9 37 -2z m106 0 c0 -4 -11 -6 -25 -3
-14 2 -25 0 -25 -6 0 -6 10 -12 23 -14 32 -4 28 -32 -5 -36 -16 -2 -28 1 -28
6 0 5 11 7 25 4 15 -2 25 0 25 7 0 6 -9 11 -19 11 -22 0 -35 15 -26 30 8 12
55 13 55 1z m140 -22 c0 -24 4 -30 18 -27 11 2 17 13 17 31 -1 39 12 33 17 -7
4 -32 2 -34 -26 -33 -26 2 -31 7 -37 35 -3 17 -3 32 2 32 5 0 9 -14 9 -31z
m297 25 c-9 -10 12 -46 23 -39 6 3 7 -1 4 -9 -8 -21 -9 -21 -33 19 -18 31 -18
35 -4 35 9 0 13 -3 10 -6z m327 -3 c3 -4 -6 -6 -19 -3 -19 3 -27 -1 -34 -19
-6 -14 -10 -18 -10 -8 -2 30 48 54 63 30z m99 -9 c-4 -9 -9 -10 -19 -1 -8 6
-21 9 -29 5 -9 -3 -13 -2 -10 4 9 14 63 7 58 -8z m98 -25 c-2 -22 -6 -35 -10
-31 -3 5 -15 9 -25 9 -10 0 -24 7 -29 17 -15 23 7 47 41 46 26 -1 27 -3 23
-41z m87 31 c21 -21 13 -28 -25 -27 l-38 2 35 7 c28 5 31 8 18 14 -10 5 -25 5
-34 2 -8 -3 -12 -2 -9 4 8 14 38 13 53 -2z m95 5 c3 -5 -8 -8 -23 -8 -15 0
-26 3 -23 8 2 4 13 7 23 7 10 0 21 -3 23 -7z m177 -22 c0 -20 6 -31 18 -34 9
-3 -1 -5 -23 -5 -22 0 -32 2 -22 5 20 5 24 49 5 56 -8 3 -6 6 5 6 12 1 17 -7
17 -28z m121 -8 c4 -23 3 -33 -6 -33 -7 0 -10 11 -7 31 4 26 2 30 -14 27 -13
-2 -19 -12 -19 -31 1 -15 -4 -27 -10 -27 -5 0 -10 15 -10 34 0 31 2 34 30 33
25 -2 30 -7 36 -34z m283 28 c3 -4 -6 -6 -19 -3 -19 3 -27 -1 -34 -19 -6 -14
-10 -18 -10 -8 -2 30 48 54 63 30z m384 -3 c21 -21 13 -28 -30 -27 l-43 2 40
7 c31 5 36 8 23 14 -10 5 -25 5 -34 2 -8 -3 -12 -2 -9 4 8 14 38 13 53 -2z
m276 3 c3 -4 -6 -6 -19 -3 -14 2 -25 6 -25 8 0 8 39 4 44 -5z m116 -1 c0 -6
-11 -8 -25 -4 -15 4 -25 2 -25 -4 0 -6 10 -12 23 -14 32 -4 28 -33 -6 -34 -25
-1 -25 -1 -2 3 29 5 34 23 6 23 -22 0 -35 15 -26 30 8 13 55 13 55 0z m185 0
c3 -6 -1 -7 -10 -4 -8 4 -22 1 -30 -6 -9 -8 -15 -8 -15 -2 0 19 45 29 55 12z
m93 -2 c7 -7 12 -19 11 -27 0 -10 -4 -7 -9 7 -10 23 -50 32 -50 10 0 -6 -3 -9
-6 -5 -10 10 6 27 25 27 9 0 22 -5 29 -12z m86 3 c3 -4 -6 -6 -19 -3 -14 2
-25 6 -25 8 0 8 39 4 44 -5z m98 -4 c-26 -12 -29 -44 -4 -50 9 -3 1 -5 -18 -6
-24 0 -31 2 -21 8 8 5 12 19 9 33 -4 22 -1 25 26 25 28 0 29 -1 8 -10z m101 6
c3 -5 -8 -8 -23 -8 -15 0 -26 3 -23 8 2 4 13 7 23 7 10 0 21 -3 23 -7z m607
-17 c0 -2 -11 -6 -25 -8 -13 -3 -22 -1 -19 3 5 9 44 13 44 5z m-4662 -13 c-16
-2 -28 -9 -28 -15 0 -6 11 -8 24 -6 14 3 30 2 36 -2 6 -4 -5 -7 -24 -8 -19 -1
-38 3 -41 8 -10 17 5 30 33 29 l27 -2 -27 -4z m3360 0 c-16 -2 -28 -9 -28 -15
0 -6 11 -8 24 -6 14 3 30 2 36 -2 6 -4 -5 -7 -24 -8 -19 -1 -38 3 -41 8 -10
17 5 30 33 29 l27 -2 -27 -4z m480 0 c-16 -2 -28 -9 -28 -15 0 -6 11 -8 24 -6
14 3 30 2 36 -2 6 -4 -5 -7 -24 -8 -19 -1 -38 3 -41 8 -10 17 5 30 33 29 l27
-2 -27 -4z m-3153 -21 c17 4 23 2 17 -4 -14 -14 -55 -6 -59 12 -4 12 -3 13 5
1 6 -8 20 -12 37 -9z m1162 -9 c-2 -22 -8 -28 -27 -30 -22 -1 -23 -1 -2 4 27
5 29 23 3 23 -11 0 -22 4 -25 9 -3 4 6 6 19 3 15 -2 25 0 25 7 0 6 2 11 4 11
3 0 4 -12 3 -27z m1903 4 c22 -4 21 -5 -4 -4 -17 1 -31 9 -33 17 -3 10 -2 11
4 4 4 -7 19 -14 33 -17z m-3527 1 c-2 -5 -15 -8 -28 -8 -13 0 -26 3 -28 8 -3
4 10 7 28 7 18 0 31 -3 28 -7z m187 -4 c0 -2 -13 -4 -30 -4 -16 0 -30 4 -30 8
0 5 14 7 30 4 17 -2 30 -6 30 -8z m385 6 c-3 -5 -18 -9 -33 -9 l-27 1 30 8
c17 4 31 8 33 9 2 0 0 -3 -3 -9z m95 -6 c0 -2 -13 -4 -30 -4 -16 0 -30 4 -30
8 0 5 14 7 30 4 17 -2 30 -6 30 -8z m865 6 c-3 -5 -18 -9 -33 -9 l-27 1 30 8
c17 4 31 8 33 9 2 0 0 -3 -3 -9z m288 -2 c-2 -5 -15 -8 -28 -8 -13 0 -26 3
-28 8 -3 4 10 7 28 7 18 0 31 -3 28 -7z m113 0 c2 -3 -12 -5 -31 -6 -19 -1
-36 2 -39 6 -4 8 62 7 70 0z m559 2 c-3 -5 -18 -9 -33 -9 l-27 1 30 8 c17 4
31 8 33 9 2 0 0 -3 -3 -9z m388 -2 c-2 -5 -15 -8 -28 -8 -13 0 -26 3 -28 8 -3
4 10 7 28 7 18 0 31 -3 28 -7z m571 0 c-3 -4 -21 -7 -40 -6 -19 1 -31 4 -25 7
13 9 70 7 65 -1z m402 0 c2 -3 -12 -5 -31 -6 -19 -1 -36 2 -39 6 -4 8 62 7 70
0z m64 2 c0 -5 -4 -10 -10 -10 -5 0 -10 5 -10 10 0 6 5 10 10 10 6 0 10 -4 10
-10z m-1127 -7 c-7 -2 -19 -2 -25 0 -7 3 -2 5 12 5 14 0 19 -2 13 -5z m1633
-21 c-10 -2 -22 0 -28 6 -6 6 0 7 19 4 21 -5 23 -7 9 -10z m-3201 -2 c4 -6 -6
-10 -22 -9 -25 0 -26 1 -8 9 11 5 21 9 22 9 1 1 5 -3 8 -9z m3688 3 c-7 -2
-21 -2 -30 0 -10 3 -4 5 12 5 17 0 24 -2 18 -5z m-3200 -10 c-7 -2 -19 -2 -25
0 -7 3 -2 5 12 5 14 0 19 -2 13 -5z m-3483 -60 c-19 -3 -44 -12 -55 -21 -20
-17 -20 -17 -1 6 14 16 29 22 55 20 l36 -1 -35 -4z m6235 0 c-16 -3 -39 -12
-50 -21 -20 -17 -20 -17 -1 6 13 15 29 22 50 21 l31 -2 -30 -4z m455 -27 c0
-2 -11 -6 -25 -8 -13 -3 -22 -1 -19 3 5 9 44 13 44 5z m-14 -64 c-10 -2 -22 0
-28 6 -6 6 0 7 19 4 21 -5 23 -7 9 -10z m-6708 -74 c7 -7 11 -23 11 -37 -1
-18 -3 -20 -6 -8 -3 10 -9 14 -16 10 -8 -4 -7 -1 1 9 9 12 10 18 2 23 -18 11
-40 -3 -40 -25 0 -14 4 -19 13 -14 9 6 9 4 -1 -8 -16 -19 0 -33 26 -23 14 5
15 4 4 -7 -30 -30 -70 43 -41 78 14 17 31 18 47 2z m6227 -25 c-11 -3 -23 -10
-27 -17 -5 -7 -8 -7 -8 0 0 16 11 24 34 23 20 -1 20 -1 1 -6z m1 -61 c-10 -2
-22 0 -28 6 -6 6 0 7 19 4 21 -5 23 -7 9 -10z m471 2 c-3 -3 -12 -4 -19 -1 -8
3 -5 6 6 6 11 1 17 -2 13 -5z m-4634 -64 c42 -36 70 -124 68 -216 -1 -72 20
-108 69 -119 17 -4 30 -10 30 -15 0 -15 -84 -50 -94 -40 -6 6 -38 10 -73 10
-39 0 -63 4 -63 11 0 7 16 9 49 4 28 -4 59 -4 70 0 21 6 21 7 -3 54 -25 49
-52 78 -62 68 -4 -3 -25 -44 -48 -90 l-41 -83 -32 8 c-36 9 -63 49 -63 93 0
25 23 35 35 15 10 -16 32 -11 59 13 l26 24 -20 41 c-11 23 -26 45 -33 49 -15
9 -42 54 -57 96 -5 15 -16 27 -24 27 -24 0 -7 28 33 55 54 37 129 35 174 -5z
m-2076 -32 c-2 -13 -4 -5 -4 17 -1 22 1 32 4 23 2 -10 2 -28 0 -40z m6766 35
c-13 -2 -33 -2 -45 0 -13 2 -3 4 22 4 25 0 35 -2 23 -4z m-503 -8 c0 -13 -45
-95 -52 -95 -5 0 1 18 12 40 25 49 25 48 -7 53 -23 3 -21 4 10 6 20 0 37 -1
37 -4z m521 -62 c13 -16 12 -17 -3 -4 -10 7 -18 15 -18 17 0 8 8 3 21 -13z
m-4416 -33 c-3 -5 -10 -10 -16 -10 -5 0 -9 5 -9 10 0 6 7 10 16 10 8 0 12 -4
9 -10z m3955 -60 c-8 -5 -37 -9 -65 -8 l-50 1 55 7 c30 4 60 7 65 8 6 1 3 -3
-5 -8z m-6637 -7 c-7 -2 -21 -2 -30 0 -10 3 -4 5 12 5 17 0 24 -2 18 -5z m325
-86 c9 -3 -1 -5 -23 -5 -22 0 -32 2 -22 5 12 3 17 15 17 40 0 29 -3 34 -17 29
-15 -5 -14 -3 2 9 19 15 20 14 23 -29 2 -32 8 -46 20 -49z m6720 0 c9 -3 1 -5
-18 -5 -19 0 -29 2 -22 5 7 2 13 25 14 51 l2 47 3 -47 c3 -33 9 -48 21 -51z
m-7044 44 c3 -4 -6 -6 -19 -3 -14 2 -25 6 -25 8 0 8 39 4 44 -5z m6590 -12
c-10 -11 -28 -25 -39 -31 -11 -6 -4 4 15 20 41 36 51 41 24 11z m-6607 -35
c-3 -3 -12 -4 -19 -1 -8 3 -5 6 6 6 11 1 17 -2 13 -5z m61 -71 c-10 -2 -26 -2
-35 0 -10 3 -2 5 17 5 19 0 27 -2 18 -5z m1872 -12 c0 -21 65 -71 92 -71 25 0
28 3 28 35 0 40 2 41 35 19 16 -10 30 -37 44 -84 22 -72 20 -98 -7 -99 -45 -3
-60 -6 -56 -13 3 -4 1 -8 -5 -8 -5 0 -12 4 -16 9 -7 12 -45 10 -45 -1 0 -5 -9
-4 -19 2 -31 16 -34 12 -12 -19 l21 -29 -24 -4 c-16 -3 -27 2 -35 15 -8 11 -8
16 -2 12 15 -9 14 1 -3 28 -8 12 -17 33 -21 47 -6 24 -6 24 21 -5 25 -27 27
-28 22 -8 -4 13 -2 26 4 29 5 4 3 13 -6 23 -24 27 -47 91 -41 112 6 19 25 27
25 10z m870 -1 c0 -5 -5 -10 -11 -10 -5 0 -7 5 -4 10 3 6 8 10 11 10 2 0 4 -4
4 -10z m4220 -41 c0 -39 22 -34 31 7 6 28 7 28 8 -7 1 -33 -1 -36 -26 -35 -24
1 -28 6 -31 34 -2 18 1 32 7 32 6 0 11 -14 11 -31z m-4463 -11 c-2 -7 -20 -22
-38 -32 l-34 -19 35 35 c35 35 47 40 37 16z m-933 -54 c3 -8 2 -12 -4 -9 -6 3
-10 10 -10 16 0 14 7 11 14 -7z m874 -68 c12 4 13 3 4 -3 -10 -7 -6 -18 17
-47 35 -44 56 -125 40 -158 -14 -31 -32 -63 -47 -81 -10 -11 -10 -17 -1 -22 8
-6 8 -10 -2 -16 -26 -16 0 -21 30 -6 30 15 30 15 20 -5 -6 -11 -13 -17 -16
-15 -3 3 -26 -1 -51 -9 -61 -18 -59 -18 -59 11 0 14 -3 28 -5 31 -5 5 -76 12
-163 17 -36 2 -50 6 -50 17 0 8 -6 16 -12 16 -7 1 -25 2 -40 4 -16 1 -22 4
-15 7 10 4 10 8 1 20 -11 12 -9 12 14 2 15 -7 27 -16 27 -21 0 -16 17 1 23 22
4 17 2 20 -15 15 -25 -9 -58 20 -58 51 0 23 31 41 50 29 5 -3 10 3 10 15 0 21
21 50 37 52 4 0 18 4 30 9 12 4 53 9 92 10 72 2 80 6 59 27 -9 9 -8 16 5 30 9
10 17 25 17 33 1 8 9 3 21 -13 13 -17 26 -25 37 -22z m-2491 -16 c-11 -27 -24
-50 -28 -50 -4 0 1 18 12 40 24 49 24 48 -8 53 -23 3 -22 4 9 6 l36 1 -21 -50z
m2583 40 c-8 -5 -19 -10 -25 -10 -5 0 -3 5 5 10 8 5 20 10 25 10 6 0 3 -5 -5
-10z m86 1 c-3 -4 -19 -14 -36 -21 -16 -7 -27 -16 -25 -21 3 -4 -3 -13 -14
-18 -30 -16 -40 -12 -11 4 14 8 19 14 12 15 -21 0 -53 -20 -47 -30 3 -6 -1 -7
-10 -4 -21 8 -18 11 62 50 78 38 76 37 69 25z m-129 -17 c-3 -3 -12 -4 -19 -1
-8 3 -5 6 6 6 11 1 17 -2 13 -5z m4512 -56 c-1 -32 -4 -45 -7 -33 -4 11 -16
20 -27 20 -23 0 -32 30 -15 50 7 8 21 15 31 15 16 0 19 -7 18 -52z m-5414 12
c10 -11 16 -20 13 -20 -3 0 -13 9 -23 20 -10 11 -16 20 -13 20 3 0 13 -9 23
-20z m1060 -20 c-21 -22 -44 -40 -50 -40 -9 1 74 80 85 80 2 0 -14 -18 -35
-40z m150 20 c-11 -5 -27 -9 -35 -9 -13 -1 -13 0 0 9 8 5 24 9 35 9 l20 0 -20
-9z m-2852 -97 c-28 -5 -30 -29 -3 -36 13 -3 20 -13 19 -29 -2 -23 -2 -23 -6
0 -3 14 -12 22 -24 22 -14 0 -19 7 -19 25 0 21 4 25 28 24 23 -2 24 -2 5 -6z
m1768 -70 c13 -16 12 -17 -3 -4 -10 7 -18 15 -18 17 0 8 8 3 21 -13z m-1774
-19 c-3 -3 -12 -4 -19 -1 -8 3 -5 6 6 6 11 1 17 -2 13 -5z m2903 -64 c-8 -5
-19 -10 -25 -10 -5 0 -3 5 5 10 8 5 20 10 25 10 6 0 3 -5 -5 -10z m-2882 -93
c9 -3 -1 -5 -23 -5 -22 0 -32 2 -22 5 13 3 17 16 19 51 l2 47 3 -47 c3 -33 9
-48 21 -51z m1654 58 c2 3 5 -2 5 -9 0 -11 -5 -13 -19 -5 -10 5 -18 15 -18 21
0 7 4 7 13 -1 8 -6 16 -9 19 -6z m-1815 -1 c-3 -3 -12 -4 -19 -1 -8 3 -5 6 6
6 11 1 17 -2 13 -5z m2547 -43 c6 -10 -16 -21 -41 -21 -13 0 -13 3 -3 15 14
17 36 20 44 6z m-2558 -19 c-10 -2 -22 0 -28 6 -6 6 0 7 19 4 21 -5 23 -7 9
-10z m2547 -29 c-7 -2 -19 -2 -25 0 -7 3 -2 5 12 5 14 0 19 -2 13 -5z m-2485
-30 c-15 -2 -42 -2 -60 0 -18 2 -6 4 27 4 33 0 48 -2 33 -4z m122 -8 c0 -13
-45 -95 -52 -95 -5 0 1 18 12 40 25 49 25 48 -7 53 -23 3 -21 4 10 6 20 0 37
-1 37 -4z m2743 -22 c-7 -2 -21 -2 -30 0 -10 3 -4 5 12 5 17 0 24 -2 18 -5z
m-183 -71 c0 -10 -26 -34 -50 -47 -8 -5 -4 4 10 19 20 22 21 26 6 20 -14 -5
-17 -4 -12 4 8 14 46 16 46 4z m-760 -96 c0 -9 -30 -14 -35 -6 -4 6 3 10 14
10 12 0 21 -2 21 -4z m750 -5 c0 -6 -4 -12 -8 -15 -5 -3 -9 1 -9 9 0 8 4 15 9
15 4 0 8 -4 8 -9z m4633 2 c-7 -2 -19 -2 -25 0 -7 3 -2 5 12 5 14 0 19 -2 13
-5z m-5373 -23 c0 -5 -2 -10 -4 -10 -3 0 -8 5 -11 10 -3 6 -1 10 4 10 6 0 11
-4 11 -10z m642 -12 c-7 -7 -12 -8 -12 -2 0 14 12 26 19 19 2 -3 -1 -11 -7
-17z m5246 -85 c-10 -2 -28 -2 -40 0 -13 2 -5 4 17 4 22 1 32 -1 23 -4z
m-7843 -10 c-16 -3 -39 -12 -50 -21 -20 -17 -20 -17 -1 6 13 15 29 22 50 21
l31 -2 -30 -4z m1685 -130 c0 -11 -4 -11 -20 -1 -15 10 -22 10 -32 0 -9 -9 -5
-14 21 -23 42 -15 38 -43 -7 -47 -26 -3 -32 0 -31 15 0 10 3 13 6 6 6 -15 53
-17 53 -3 0 6 -8 13 -17 17 -34 12 -44 25 -32 39 14 17 59 14 59 -3z m265 -6
c18 -4 18 -5 -2 -6 -18 -1 -23 -7 -23 -27 0 -24 3 -25 28 -19 20 5 24 4 16 -5
-20 -20 -48 -7 -55 25 -6 33 0 62 10 47 3 -5 15 -12 26 -15z m568 16 c-7 -2
-13 -20 -13 -39 0 -27 4 -34 19 -34 11 0 22 8 24 18 4 13 5 11 6 -5 1 -21 -4
-23 -41 -22 -24 0 -37 3 -30 6 6 2 12 20 12 38 0 18 -6 36 -12 38 -7 3 1 5 17
5 17 0 24 -2 18 -5z m492 -16 c18 -4 18 -5 -2 -6 -18 -1 -23 -7 -23 -27 0 -22
4 -25 21 -21 16 4 19 3 11 -5 -17 -17 -42 -1 -42 27 0 14 -5 25 -10 25 -6 0
-5 6 2 14 7 8 15 10 18 6 3 -4 14 -10 25 -13z m-1237 -9 c21 -21 13 -28 -30
-27 l-43 2 40 7 c31 5 36 8 23 14 -10 5 -25 5 -34 2 -8 -3 -12 -2 -9 4 8 14
38 13 53 -2z m80 5 c-10 -2 -26 -2 -35 0 -10 3 -2 5 17 5 19 0 27 -2 18 -5z
m179 1 c-3 -3 -12 -4 -19 -1 -8 3 -5 6 6 6 11 1 17 -2 13 -5z m118 -5 c3 -5
-1 -6 -10 -2 -10 3 -20 1 -24 -4 -4 -7 -10 -7 -17 2 -9 9 -6 12 17 13 16 0 31
-3 34 -9z m105 -38 c-4 -39 -8 -46 -28 -47 -18 -1 -19 -1 -2 3 11 2 20 10 20
18 0 8 -7 11 -19 8 -10 -3 -21 -1 -24 4 -3 5 4 9 16 9 16 -1 22 5 22 19 0 14
-6 20 -22 19 -12 0 -20 3 -17 7 2 4 17 7 32 7 27 -1 27 -2 22 -47z m100 39 c0
-6 -11 -8 -25 -4 -15 4 -25 2 -25 -4 0 -6 10 -12 23 -14 32 -4 28 -33 -6 -34
-25 -1 -25 -1 -2 3 29 5 34 23 6 23 -22 0 -35 15 -26 30 8 13 55 13 55 0z
m278 -2 c7 -7 12 -19 11 -27 0 -10 -4 -7 -9 7 -10 23 -50 32 -50 10 0 -6 -3
-9 -6 -5 -10 10 6 27 25 27 9 0 22 -5 29 -12z m102 -37 c-4 -39 -8 -46 -28
-47 -18 -1 -19 -1 -2 3 11 2 20 10 20 18 0 8 -7 11 -19 8 -10 -3 -21 -1 -24 4
-3 5 4 9 16 9 16 -1 22 5 22 19 0 14 -6 20 -22 19 -12 0 -20 3 -17 7 2 4 17 7
32 7 27 -1 27 -2 22 -47z m95 39 c4 -7 -2 -9 -19 -4 -21 5 -28 2 -35 -17 -6
-14 -10 -18 -10 -8 -2 31 49 54 64 29z m45 -15 c0 -14 -2 -25 -4 -25 -2 0 -6
11 -8 25 -3 14 -1 25 3 25 5 0 9 -11 9 -25z m4988 8 c-15 -2 -42 -2 -60 0 -18
2 -6 4 27 4 33 0 48 -2 33 -4z m-7901 -53 c-11 -27 -24 -50 -28 -50 -4 0 1 18
12 40 24 49 24 48 -8 53 -23 3 -22 4 9 6 l36 1 -21 -50z m2653 7 c22 -4 21 -5
-4 -4 -17 1 -31 9 -33 17 -3 10 -2 11 4 4 4 -7 19 -14 33 -17z m-837 1 c-2 -5
-15 -8 -28 -8 -13 0 -26 3 -28 8 -3 4 10 7 28 7 18 0 31 -3 28 -7z m90 0 c-2
-5 -13 -8 -24 -8 -10 0 -19 3 -19 8 0 4 11 7 24 7 13 0 22 -3 19 -7z m962 2
c-3 -5 -18 -9 -33 -9 l-27 1 30 8 c17 4 31 8 33 9 2 0 0 -3 -3 -9z m102 2 c8
-5 -2 -8 -25 -9 -28 0 -32 1 -17 7 26 11 28 11 42 2z m-879 -9 c-10 -2 -26 -2
-35 0 -10 3 -2 5 17 5 19 0 27 -2 18 -5z m59 1 c-3 -3 -12 -4 -19 -1 -8 3 -5
6 6 6 11 1 17 -2 13 -5z m56 -1 c-7 -2 -19 -2 -25 0 -7 3 -2 5 12 5 14 0 19
-2 13 -5z m-2184 -133 c4 0 16 -7 27 -16 18 -15 18 -15 -3 -5 -31 15 -31 15
-36 -26 -2 -21 -4 -6 -4 32 0 39 2 58 4 43 2 -16 8 -28 12 -28z m-136 13 c-13
-2 -35 -2 -50 0 -16 2 -5 4 22 4 28 0 40 -2 28 -4z m7470 0 c-28 -5 -30 -29
-3 -36 13 -3 20 -13 19 -29 -2 -23 -2 -23 -6 0 -3 14 -12 22 -24 22 -14 0 -19
7 -19 25 0 21 4 25 28 24 23 -2 24 -2 5 -6z m495 -86 c9 -3 1 -5 -18 -5 -19 0
-29 2 -22 5 7 2 13 25 14 51 l2 47 3 -47 c3 -33 9 -48 21 -51z m-964 54 c4 -5
-3 -7 -14 -4 -23 6 -26 13 -6 13 8 0 17 -4 20 -9z m-1 -28 c-7 -2 -19 -2 -25
0 -7 3 -2 5 12 5 14 0 19 -2 13 -5z m-16 -29 c-3 -3 -12 -4 -19 -1 -8 3 -5 6
6 6 11 1 17 -2 13 -5z m480 0 c-3 -3 -12 -4 -19 -1 -8 3 -5 6 6 6 11 1 17 -2
13 -5z m-7299 -65 c22 -4 22 -5 8 -24 -13 -16 -15 -17 -10 -2 5 13 1 17 -17
17 -12 0 -32 -8 -43 -17 -15 -14 -14 -10 4 13 14 17 27 28 30 23 3 -4 15 -9
28 -10z m2840 -92 c9 -3 -1 -5 -23 -5 -22 0 -32 2 -22 5 12 3 17 15 17 40 0
29 -3 34 -17 29 -15 -5 -14 -3 2 9 19 15 20 14 23 -29 2 -32 8 -46 20 -49z
m4960 81 c7 -7 11 -23 11 -37 -1 -18 -3 -20 -6 -8 -3 10 -9 14 -16 10 -8 -4
-7 -1 1 9 9 12 10 18 2 23 -18 11 -40 -3 -40 -25 0 -14 4 -19 13 -14 9 6 9 4
-1 -8 -16 -19 0 -33 26 -23 14 5 15 4 4 -7 -30 -30 -70 43 -41 78 14 17 31 18
47 2z m-977 -27 c-13 -3 -28 -15 -32 -26 -5 -14 -8 -15 -8 -4 -1 21 19 39 44
38 17 -1 17 -2 -4 -8z m-6841 -27 c-8 -8 -23 -20 -34 -25 -13 -7 -9 -1 9 15
34 29 43 33 25 10z m-203 -30 c-3 -3 -12 -4 -19 -1 -8 3 -5 6 6 6 11 1 17 -2
13 -5z m7040 0 c-3 -3 -12 -4 -19 -1 -8 3 -5 6 6 6 11 1 17 -2 13 -5z m970
-96 c-2 -13 -4 -5 -4 17 -1 22 1 32 4 23 2 -10 2 -28 0 -40z m-957 22 c0 -5
-5 -10 -11 -10 -5 0 -7 5 -4 10 3 6 8 10 11 10 2 0 4 -4 4 -10z m520 3 c-19
-3 -44 -12 -55 -21 -20 -17 -20 -17 -1 6 14 16 29 22 55 20 l36 -1 -35 -4z m0
-47 c0 -2 -8 -10 -17 -17 -16 -13 -17 -12 -4 4 13 16 21 21 21 13z m-500 -22
c0 -2 -16 -4 -35 -4 -19 0 -35 4 -35 8 0 4 16 6 35 4 19 -2 35 -6 35 -8z
m-7080 -134 c5 0 12 5 15 10 3 6 11 10 18 10 6 0 2 -6 -8 -14 -19 -14 -19 -15
-1 -35 11 -12 14 -21 8 -21 -6 0 -17 10 -24 23 l-12 22 -7 -25 c-5 -17 -7 -5
-6 35 0 33 2 45 4 28 2 -18 8 -33 13 -33z m7620 50 c-8 -5 -37 -9 -65 -8 l-50
1 55 7 c30 4 60 7 65 8 6 1 3 -3 -5 -8z m-551 -82 c-1 -32 -4 -45 -7 -33 -4
11 -16 20 -27 20 -23 0 -32 30 -15 50 7 8 21 15 31 15 16 0 19 -7 18 -52z
m944 42 c-13 -5 -23 -18 -23 -29 0 -12 8 -21 23 -24 21 -5 21 -5 -2 -4 -52 4
-49 68 3 66 21 0 21 0 -1 -9z m-439 -21 c-10 -11 -28 -25 -39 -31 -11 -6 -4 4
15 20 41 36 51 41 24 11z m-7531 -119 c9 0 9 -2 0 -8 -6 -4 -13 -23 -16 -42
-2 -19 -4 -3 -4 35 0 39 2 58 4 43 2 -16 10 -28 16 -28z m6997 -30 c5 0 12 5
15 10 3 6 11 10 18 10 6 0 2 -6 -8 -14 -19 -14 -19 -15 -1 -35 11 -12 14 -21
7 -21 -6 0 -14 7 -17 15 -8 20 -21 19 -27 -2 -3 -10 -4 9 -4 42 0 33 2 45 4
28 2 -18 8 -33 13 -33z m-7030 -150 c24 15 36 12 15 -4 -19 -14 -19 -15 -1
-35 11 -12 14 -21 9 -21 -6 0 -17 7 -24 16 -12 14 -14 14 -20 -3 -5 -10 -7 7
-7 42 0 45 2 52 7 28 5 -26 9 -30 21 -23z m7070 35 c0 -13 -45 -95 -52 -95 -5
0 1 18 12 40 25 49 25 48 -7 53 -23 3 -21 4 10 6 20 0 37 -1 37 -4z m-12 -248
c9 -3 -1 -5 -23 -5 -22 0 -32 2 -22 5 12 3 17 15 17 40 0 29 -3 34 -17 29 -15
-5 -14 -3 2 9 19 15 20 14 23 -29 2 -32 8 -46 20 -49z m-7039 11 c-1 -32 -4
-45 -7 -33 -4 11 -16 20 -27 20 -23 0 -32 30 -15 50 7 8 21 15 31 15 16 0 19
-7 18 -52z m2878 46 c-3 -3 -12 -4 -19 -1 -8 3 -5 6 6 6 11 1 17 -2 13 -5z
m-11 -62 c-10 -2 -22 0 -28 6 -6 6 0 7 19 4 21 -5 23 -7 9 -10z m14 -96 c0 -2
-11 -6 -25 -8 -13 -3 -22 -1 -19 3 5 9 44 13 44 5z m-14 -64 c-10 -2 -22 0
-28 6 -6 6 0 7 19 4 21 -5 23 -7 9 -10z m-3 -229 c-28 -5 -30 -29 -3 -36 13
-3 20 -13 19 -29 -2 -23 -2 -23 -6 0 -3 14 -12 22 -24 22 -14 0 -19 7 -19 25
0 21 4 25 28 24 23 -2 24 -2 5 -6z m-6 -89 c-3 -3 -12 -4 -19 -1 -8 3 -5 6 6
6 11 1 17 -2 13 -5z m2771 -61 c-10 -2 -28 -2 -40 0 -13 2 -5 4 17 4 22 1 32
-1 23 -4z m-2750 -15 c7 -7 11 -23 11 -37 -1 -18 -3 -20 -6 -8 -3 10 -9 14
-16 10 -8 -4 -7 -1 1 9 9 12 10 18 2 23 -18 11 -40 -3 -40 -25 0 -14 4 -19 13
-14 9 6 9 4 -1 -8 -16 -19 0 -33 26 -23 14 5 15 4 4 -7 -30 -30 -70 43 -41 78
14 17 31 18 47 2z m2875 -25 c-7 -2 -19 -2 -25 0 -7 3 -2 5 12 5 14 0 19 -2
13 -5z m-2864 -143 c4 0 16 -7 27 -16 18 -15 18 -15 -3 -5 -31 15 -31 15 -36
-26 -2 -21 -4 -6 -4 32 0 39 2 58 4 43 2 -16 8 -28 12 -28z m2744 13 c-13 -2
-35 -2 -50 0 -16 2 -5 4 22 4 28 0 40 -2 28 -4z m115 0 c-10 -2 -26 -2 -35 0
-10 3 -2 5 17 5 19 0 27 -2 18 -5z m-2798 -151 c0 -5 -10 -17 -22 -28 l-23
-19 19 22 18 22 -58 4 -59 3 63 2 c34 1 62 -2 62 -6z m2698 1 c-15 -2 -42 -2
-60 0 -18 2 -6 4 27 4 33 0 48 -2 33 -4z m-2779 -87 c-23 -20 -23 -20 -6 0 9
11 18 31 18 45 l2 24 4 -24 c3 -16 -3 -31 -18 -45z m2764 -73 c-13 -2 -33 -2
-45 0 -13 2 -3 4 22 4 25 0 35 -2 23 -4z"/>
<path d="M2597 6913 c-4 -3 -7 -15 -7 -27 0 -15 3 -17 12 -8 7 7 17 12 22 12
6 0 0 -7 -12 -16 -23 -16 -21 -34 3 -34 17 0 26 26 19 56 -6 23 -23 31 -37 17z"/>
<path d="M3073 6714 c-7 -18 11 -39 26 -30 17 11 13 46 -4 46 -9 0 -18 -7 -22
-16z"/>
<path d="M8200 6370 c0 -5 7 -10 15 -10 8 0 15 5 15 10 0 6 -7 10 -15 10 -8 0
-15 -4 -15 -10z"/>
<path d="M8033 5434 c-7 -18 11 -39 26 -30 17 11 13 46 -4 46 -9 0 -18 -7 -22
-16z"/>
<path d="M5735 4865 c-62 -61 11 -150 83 -99 32 22 30 76 -4 103 -34 27 -50
26 -79 -4z"/>
<path d="M2288 4933 c7 -3 16 -2 19 1 4 3 -2 6 -13 5 -11 0 -14 -3 -6 -6z"/>
<path d="M2585 4876 c-17 -12 -15 -14 30 -24 28 -6 51 -9 53 -7 6 6 -38 45
-51 45 -7 0 -22 -6 -32 -14z"/>
<path d="M3435 4865 c-14 -13 -25 -33 -25 -45 0 -25 42 -70 65 -70 20 0 57 19
67 34 17 24 8 65 -18 85 -35 27 -59 26 -89 -4z"/>
<path d="M3700 4775 c0 -8 5 -15 10 -15 6 0 10 7 10 15 0 8 -4 15 -10 15 -5 0
-10 -7 -10 -15z"/>
<path d="M4025 4876 c-18 -13 -17 -14 16 -22 19 -4 36 -8 39 -9 3 0 11 -4 18
-9 25 -15 24 3 -1 28 -30 29 -45 32 -72 12z"/>
<path d="M3360 4180 c0 -5 12 -10 26 -10 14 0 23 4 19 10 -3 6 -15 10 -26 10
-10 0 -19 -4 -19 -10z"/>
<path d="M4514 4175 c-4 -9 -2 -21 4 -27 15 -15 44 -1 40 19 -4 23 -36 29 -44
8z"/>
<path d="M2679 3237 c12 -15 11 -17 -3 -17 -10 0 -14 -5 -11 -10 5 -8 11 -7
20 0 8 7 19 9 25 5 23 -14 8 4 -17 21 -24 15 -26 15 -14 1z"/>
<path d="M7713 3194 c-7 -18 11 -39 26 -30 17 11 13 46 -4 46 -9 0 -18 -7 -22
-16z"/>
<path d="M7393 1594 c-7 -18 11 -39 26 -30 17 11 13 46 -4 46 -9 0 -18 -7 -22
-16z"/>
<path d="M353 1114 c-7 -18 11 -39 26 -30 17 11 13 46 -4 46 -9 0 -18 -7 -22
-16z"/>
<path d="M4835 7190 c-3 -5 1 -10 9 -10 9 0 16 5 16 10 0 6 -4 10 -9 10 -6 0
-13 -4 -16 -10z"/>
</g>
</svg>
