<?xml version="1.0" standalone="no"?>
<!DOCTYPE svg PUBLIC "-//W3C//DTD SVG 20010904//EN"
 "http://www.w3.org/TR/2001/REC-SVG-20010904/DTD/svg10.dtd">
<svg version="1.0" xmlns="http://www.w3.org/2000/svg"
 width="785.000000pt" height="628.000000pt" viewBox="0 0 785.000000 628.000000"
 preserveAspectRatio="xMidYMid meet">

<g transform="translate(0.000000,628.000000) scale(0.100000,-0.100000)"
fill="#000000" stroke="none">
<path d="M0 3140 l0 -3140 1818 0 c1441 0 1821 3 1831 12 11 10 13 10 7 1 -6
-10 43 -13 231 -12 131 1 226 4 210 8 l-27 6 25 38 c14 20 30 37 35 37 8 0 16
-55 11 -83 -1 -4 428 -7 953 -7 952 1 955 1 961 21 10 30 2 32 -28 8 l-27 -20
0 29 c0 16 7 35 16 43 25 20 49 -1 49 -45 l0 -36 801 0 c636 0 804 3 812 13 6
7 12 33 15 57 l4 45 1 -45 c1 -26 -3 -51 -10 -58 -9 -9 7 -12 75 -12 l87 0 0
44 c0 44 0 45 -38 49 l-37 4 38 1 37 2 0 69 c0 58 -3 70 -17 74 -17 4 -17 5 0
6 16 1 17 152 17 3016 l0 3015 -970 0 c-769 0 -970 -3 -970 -12 0 -10 -2 -10
-8 -1 -4 7 -17 11 -29 11 -28 -3 -23 -33 6 -32 14 0 18 -3 12 -9 -14 -14 -42
0 -48 23 -5 20 -16 20 -2924 20 l-2919 0 0 -3140z m5883 3023 c-28 -5 -30 -29
-3 -36 13 -3 20 -13 19 -29 -2 -23 -2 -23 -6 0 -3 14 -12 22 -24 22 -14 0 -19
7 -19 25 0 21 4 25 28 24 23 -2 24 -2 5 -6z m1180 0 c-7 -2 -21 -2 -30 0 -10
3 -4 5 12 5 17 0 24 -2 18 -5z m-1186 -89 c-3 -3 -12 -4 -19 -1 -8 3 -5 6 6 6
11 1 17 -2 13 -5z m1191 -61 c-15 -2 -42 -2 -60 0 -18 2 -6 4 27 4 33 0 48 -2
33 -4z m-5655 -10 c3 -5 -5 -8 -18 -8 -13 0 -21 3 -18 8 2 4 10 7 18 7 8 0 16
-3 18 -7z m4470 0 c-28 -5 -30 -29 -3 -36 13 -3 20 -13 19 -29 -2 -23 -2 -23
-6 0 -3 14 -12 22 -24 22 -14 0 -19 7 -19 25 0 21 4 25 28 24 23 -2 24 -2 5
-6z m-4455 -48 c-3 -3 -9 2 -12 12 -6 14 -5 15 5 6 7 -7 10 -15 7 -18z m-15
-37 c-2 -5 -10 -8 -18 -8 -8 0 -16 3 -18 8 -3 4 5 7 18 7 13 0 21 -3 18 -7z
m4464 -4 c-3 -3 -12 -4 -19 -1 -8 3 -5 6 6 6 11 1 17 -2 13 -5z m-4424 -71
c-13 -2 -35 -2 -50 0 -16 2 -5 4 22 4 28 0 40 -2 28 -4z m4457 2 c0 -13 -45
-95 -52 -95 -5 0 1 18 12 40 25 49 25 48 -7 53 -23 3 -21 4 10 6 20 0 37 -1
37 -4z m1103 -87 c7 -4 -1 -7 -18 -7 -16 0 -24 3 -17 6 7 2 13 25 14 51 l1 47
4 -45 c3 -24 10 -48 16 -52z m-5600 -75 c-7 -2 -21 -2 -30 0 -10 3 -4 5 12 5
17 0 24 -2 18 -5z m4497 2 c0 -13 -45 -95 -52 -95 -5 0 1 18 12 40 25 49 25
48 -7 53 -23 3 -21 4 10 6 20 0 37 -1 37 -4z m613 -2 c-7 -2 -19 -2 -25 0 -7
3 -2 5 12 5 14 0 19 -2 13 -5z m467 -25 c-13 -13 -19 -16 -15 -8 14 25 28 41
32 36 3 -3 -5 -15 -17 -28z m-5576 -17 c3 -4 -6 -6 -19 -3 -14 2 -25 6 -25 8
0 8 39 4 44 -5z m5120 0 c3 -4 -6 -6 -19 -3 -14 2 -25 6 -25 8 0 8 39 4 44 -5z
m496 -27 c0 -2 -16 -4 -35 -4 -19 0 -35 4 -35 8 0 4 16 6 35 4 19 -2 35 -6 35
-8z m-5633 -20 c-3 -3 -12 -4 -19 -1 -8 3 -5 6 6 6 11 1 17 -2 13 -5z m5120 0
c-3 -3 -12 -4 -19 -1 -8 3 -5 6 6 6 11 1 17 -2 13 -5z m-5054 -61 c-18 -2 -48
-2 -65 0 -18 2 -4 4 32 4 36 0 50 -2 33 -4z m3990 -10 c-13 -2 -35 -2 -50 0
-16 2 -5 4 22 4 28 0 40 -2 28 -4z m1081 -1 c3 -5 -5 -8 -17 -8 -16 1 -23 -6
-25 -23 -3 -17 0 -21 10 -15 11 6 11 5 0 -8 -16 -19 0 -33 26 -23 14 5 15 4 4
-7 -30 -30 -70 43 -41 78 13 15 35 19 43 6z m473 -42 c-11 -27 -24 -50 -28
-50 -4 0 1 18 12 40 24 49 24 48 -8 53 -23 3 -22 4 9 6 l36 1 -21 -50z m-5527
36 c0 -2 -8 -10 -17 -17 -16 -13 -17 -12 -4 4 13 16 21 21 21 13z m5069 -38
c-1 -18 -2 -19 -6 -5 -2 9 -9 14 -15 11 -7 -4 -8 -2 -4 4 12 20 26 13 25 -10z
m541 -106 c0 -5 -10 -17 -22 -28 l-23 -19 19 22 18 22 -58 4 -59 3 63 2 c34 1
62 -2 62 -6z m-5685 -39 c-11 -3 -23 -10 -27 -17 -5 -7 -8 -7 -8 0 0 16 11 24
34 23 20 -1 20 -1 1 -6z m5606 -46 l-24 -22 19 27 c10 14 21 24 23 22 3 -3 -6
-15 -18 -27z m-5605 -15 c-10 -2 -22 0 -28 6 -6 6 0 7 19 4 21 -5 23 -7 9 -10z
m5601 -94 c-2 -13 -4 -5 -4 17 -1 22 1 32 4 23 2 -10 2 -28 0 -40z m36 -47
c-10 -9 -13 -10 -5 -1 6 7 13 34 14 60 l1 45 4 -44 c3 -33 0 -48 -14 -60z
m-5621 39 c4 -45 -7 -73 -19 -54 -5 7 -18 14 -31 15 l-22 4 25 38 c14 20 30
37 34 37 5 0 11 -18 13 -40z m-19 -127 c-24 -5 -32 -33 -10 -33 7 0 18 -5 25
-12 18 -18 -4 -48 -36 -47 l-27 1 25 7 c32 9 40 41 11 41 -16 0 -21 6 -21 25
0 21 4 25 28 24 23 -2 24 -2 5 -6z m5188 -220 c13 -16 12 -17 -3 -4 -10 7 -18
15 -18 17 0 8 8 3 21 -13z m-4081 -160 c0 -43 3 -102 6 -130 l7 -53 38 0 c33
0 39 -3 39 -20 0 -20 -5 -21 -112 -18 -93 2 -113 6 -113 18 0 10 13 16 43 18
l42 3 0 110 0 109 -29 0 c-17 0 -33 5 -36 10 -12 20 7 30 61 30 l54 0 0 -77z
m3260 -52 c0 -122 1 -129 21 -134 42 -11 14 -32 -44 -32 -31 0 -59 -4 -63 -8
-13 -12 -74 -8 -104 8 -69 36 -76 120 -13 175 32 29 41 31 89 28 53 -3 54 -3
54 25 0 17 -5 27 -14 27 -8 0 -18 5 -21 10 -12 19 6 30 51 30 l44 0 0 -129z
m200 114 c9 -11 11 -38 6 -101 -8 -101 -12 -114 -36 -114 -21 0 -26 17 -35
123 -5 55 -4 81 5 92 16 19 44 19 60 0z m-4082 -27 c3 -13 -3 -18 -22 -18 -16
0 -26 -6 -26 -15 0 -11 12 -15 48 -15 55 0 92 9 92 21 0 5 -10 9 -23 9 -29 0
-37 7 -30 26 8 21 122 19 130 -2 3 -9 1 -19 -5 -23 -6 -4 -16 -49 -22 -101
-15 -136 -17 -140 -51 -140 -22 0 -32 6 -39 25 -6 15 -17 25 -30 25 -12 0 -25
-10 -32 -25 -8 -18 -19 -25 -39 -25 -31 0 -32 2 -50 143 -7 53 -16 97 -21 97
-4 0 -8 9 -8 20 0 19 5 21 62 18 50 -2 63 -6 66 -20z m372 -63 c33 -17 60 -61
60 -100 0 -23 -4 -25 -44 -25 -24 0 -59 -7 -77 -15 -39 -17 -36 -18 51 -19 49
-1 65 -4 65 -15 0 -21 -59 -34 -129 -29 -53 4 -62 8 -94 42 -29 33 -33 43 -29
73 7 41 21 59 62 85 36 22 96 23 135 3z m631 -8 c13 -22 0 -67 -18 -67 -9 0
-26 11 -39 25 -28 30 -62 32 -98 4 -29 -23 -36 -78 -12 -98 34 -28 100 -23
148 11 25 18 44 -2 29 -30 -21 -40 -121 -55 -187 -27 -67 28 -79 120 -21 172
31 29 44 32 121 29 51 -2 71 -7 77 -19z m233 8 c35 -17 66 -61 66 -95 0 -108
-170 -150 -234 -58 -18 26 -21 80 -5 109 27 52 111 73 173 44z m337 -6 c15
-15 19 -33 19 -80 0 -46 4 -65 17 -74 24 -18 7 -35 -38 -35 -38 0 -39 1 -39
35 0 28 -4 35 -20 35 -24 0 -26 -18 -3 -35 24 -18 7 -35 -38 -35 -37 0 -39 1
-39 33 0 26 -4 33 -20 34 -24 2 -26 -15 -3 -32 26 -19 6 -35 -47 -35 -53 0
-73 16 -47 35 13 9 17 28 17 70 0 42 -4 61 -17 70 -35 26 -4 35 119 34 104 -1
123 -4 139 -20z m239 6 c33 -17 60 -61 60 -100 0 -22 -4 -25 -39 -25 -42 0
-106 -19 -96 -29 4 -3 35 -6 68 -6 47 0 62 -3 62 -14 0 -20 -59 -34 -128 -29
-46 3 -63 10 -87 33 -37 36 -46 74 -25 115 32 62 120 89 185 55z m902 -25 c21
-21 38 -47 38 -58 0 -68 -64 -117 -141 -110 -48 5 -49 5 -49 -23 0 -24 4 -29
25 -29 19 0 25 -5 25 -20 0 -19 -5 -21 -72 -18 -48 2 -73 7 -76 16 -2 7 5 16
17 19 20 5 21 12 21 114 0 88 -3 109 -14 109 -18 0 -29 16 -21 29 3 5 51 9
107 9 l102 0 38 -38z m154 28 c4 -6 -1 -17 -11 -25 -20 -14 -18 -15 45 -15 63
0 65 1 45 15 -28 21 -9 37 45 37 51 0 73 -15 49 -34 -8 -6 -23 -47 -34 -91
-19 -74 -22 -80 -48 -83 -18 -2 -29 2 -33 12 -3 9 -14 16 -24 16 -10 0 -21 -7
-24 -16 -4 -10 -15 -14 -33 -12 -26 3 -29 9 -48 83 -11 44 -26 85 -34 91 -24
19 -2 34 49 34 27 0 52 -5 56 -12z m398 -9 c23 -18 26 -28 26 -85 0 -50 3 -64
15 -64 8 0 15 -9 15 -20 0 -17 -7 -20 -49 -20 -53 0 -74 16 -48 35 20 15 24
104 5 123 -36 36 -88 -7 -88 -72 0 -36 4 -45 21 -49 12 -3 19 -12 17 -19 -3
-9 -24 -13 -63 -13 -39 0 -60 4 -63 13 -2 7 5 16 17 19 18 5 21 13 21 66 0 44
-4 63 -17 72 -30 22 -4 33 82 34 69 0 88 -4 109 -20z m276 6 c33 -17 60 -61
60 -100 0 -23 -4 -25 -40 -25 -54 0 -56 -27 -2 -32 48 -4 50 -28 2 -41 -19 -5
-61 -7 -93 -5 -48 4 -63 9 -89 35 -24 25 -31 40 -31 72 0 22 7 48 14 57 42 51
122 68 179 39z m-1485 -205 c-20 -39 -42 -70 -50 -70 -19 0 -19 -2 2 76 17 62
18 64 50 64 l33 0 -35 -70z m2020 20 c0 -18 -33 -26 -47 -12 -6 6 -7 15 -3 22
10 16 50 8 50 -10z m-2692 -507 c-13 -2 -23 -9 -23 -14 0 -5 10 -10 23 -10
l22 -2 -22 -4 c-28 -5 -32 -49 -5 -56 9 -3 1 -5 -18 -5 -19 0 -29 2 -22 5 14
6 17 53 2 53 -5 0 -2 9 7 20 10 11 27 19 38 19 18 -2 17 -2 -2 -6z m177 -37
c0 -34 4 -46 18 -49 9 -3 -1 -5 -23 -5 -22 0 -32 2 -22 5 20 5 25 78 5 86 -8
3 -6 6 5 6 14 1 17 -7 17 -43z m100 0 c0 -34 4 -46 18 -49 9 -3 -1 -5 -23 -5
-22 0 -32 2 -22 5 20 5 25 78 5 86 -8 3 -6 6 5 6 14 1 17 -7 17 -43z m290 0
c0 -34 4 -46 18 -49 9 -3 -1 -5 -23 -5 -22 0 -32 2 -22 5 20 5 25 78 5 86 -8
3 -6 6 5 6 14 1 17 -7 17 -43z m1310 25 c0 -14 5 -18 19 -14 10 3 21 1 24 -4
3 -5 -4 -9 -16 -9 -18 1 -22 -4 -22 -26 1 -16 -4 -28 -10 -28 -5 0 -10 22 -10
50 0 28 3 50 8 50 4 0 7 -9 7 -19z m352 -29 c3 -49 3 -49 -29 -50 -18 -1 -34
2 -37 6 -2 4 8 8 22 7 20 0 27 5 27 20 0 15 -7 20 -27 20 -14 -1 -24 3 -21 8
3 5 16 7 30 4 20 -4 24 -1 20 14 -3 11 -1 19 3 19 4 0 10 -22 12 -48z m228 30
c0 -13 7 -18 22 -18 17 1 23 -6 29 -31 4 -23 3 -33 -6 -33 -7 0 -10 11 -7 31
4 26 2 30 -14 27 -13 -2 -19 -12 -19 -31 1 -15 -4 -27 -10 -27 -5 0 -10 22
-10 50 0 28 3 50 8 50 4 0 7 -8 7 -18z m-3933 2 c-3 -3 -12 -4 -19 -1 -8 3 -5
6 6 6 11 1 17 -2 13 -5z m60 0 c-3 -3 -12 -4 -19 -1 -8 3 -5 6 6 6 11 1 17 -2
13 -5z m2948 -17 c18 -4 18 -5 -2 -6 -18 -1 -23 -7 -23 -27 0 -24 3 -25 28
-19 20 5 24 4 16 -5 -20 -20 -48 -7 -55 25 -6 33 0 62 10 47 3 -5 15 -12 26
-15z m290 0 c18 -4 18 -5 -2 -6 -18 -1 -23 -7 -23 -27 0 -22 4 -25 21 -21 16
4 19 3 11 -5 -17 -17 -42 -1 -42 27 0 14 -5 25 -10 25 -6 0 -5 6 2 14 7 8 15
10 18 6 3 -4 14 -10 25 -13z m-3266 -5 c13 10 14 10 4 -2 -7 -8 -13 -22 -13
-31 0 -10 6 -20 13 -22 6 -3 -1 -5 -18 -5 -16 0 -24 2 -17 5 15 6 16 34 2 51
-7 9 -7 9 2 2 8 -6 17 -6 27 2z m112 -8 c23 -28 -26 -73 -52 -47 -5 5 3 9 19
8 20 0 27 5 27 20 0 15 -7 20 -27 20 -14 -1 -24 3 -22 7 9 14 41 9 55 -8z
m101 -17 c3 -32 2 -34 -29 -35 -18 -1 -33 2 -33 7 0 4 10 7 22 7 26 -1 38 32
16 45 -10 7 -10 9 3 9 12 0 18 -11 21 -33z m172 24 c3 -4 -6 -6 -19 -3 -14 2
-25 6 -25 8 0 8 39 4 44 -5z m99 -2 c-27 -10 -31 -46 -5 -52 9 -3 1 -5 -18 -5
-19 0 -29 2 -22 5 6 2 12 15 12 28 0 13 -6 25 -12 28 -7 2 5 4 27 5 33 0 36
-2 18 -9z m105 -1 c21 -21 13 -28 -30 -27 l-43 2 40 7 c31 5 36 8 23 14 -10 5
-25 5 -34 2 -8 -3 -12 -2 -9 4 8 14 38 13 53 -2z m186 3 c4 -5 -3 -7 -14 -4
-11 3 -20 1 -20 -5 0 -6 10 -13 23 -15 19 -4 18 -4 -5 -6 -27 -1 -38 16 -21
32 9 10 31 9 37 -2z m56 -22 c0 -24 4 -30 18 -27 11 2 17 13 17 31 -1 39 12
33 17 -7 4 -32 2 -34 -26 -33 -26 2 -31 7 -37 35 -3 17 -3 32 2 32 5 0 9 -14
9 -31z m150 19 c0 -4 -12 -6 -27 -5 -22 2 -28 -2 -28 -18 0 -15 7 -20 27 -20
16 1 24 -3 19 -8 -26 -26 -75 19 -52 47 13 15 61 19 61 4z m100 -1 c0 -5 -9
-5 -20 -2 -12 4 -27 1 -35 -5 -9 -8 -15 -8 -15 -2 0 6 6 13 13 15 19 8 57 4
57 -6z m74 7 c28 -11 17 -32 -19 -36 -27 -3 -35 0 -35 12 0 29 20 37 54 24z
m100 -3 c4 -5 -3 -7 -14 -4 -11 3 -20 1 -20 -5 0 -6 10 -13 23 -15 19 -4 18
-4 -5 -6 -27 -1 -38 16 -21 32 9 10 31 9 37 -2z m106 0 c0 -4 -11 -6 -25 -3
-14 2 -25 0 -25 -6 0 -6 10 -12 23 -14 32 -4 28 -32 -5 -36 -16 -2 -28 1 -28
6 0 5 11 7 25 4 15 -2 25 0 25 7 0 6 -9 11 -19 11 -22 0 -35 15 -26 30 8 12
55 13 55 1z m140 -22 c0 -24 4 -30 18 -27 11 2 17 13 17 31 -1 39 12 33 17 -7
4 -32 2 -34 -26 -33 -26 2 -31 7 -37 35 -3 17 -3 32 2 32 5 0 9 -14 9 -31z
m297 25 c-9 -10 12 -46 23 -39 6 3 7 -1 4 -9 -8 -21 -9 -21 -33 19 -18 31 -18
35 -4 35 9 0 13 -3 10 -6z m327 -3 c3 -4 -6 -6 -19 -3 -19 3 -27 -1 -34 -19
-6 -14 -10 -18 -10 -8 -2 30 48 54 63 30z m99 -9 c-4 -9 -9 -10 -19 -1 -8 6
-21 9 -29 5 -9 -3 -13 -2 -10 4 9 14 63 7 58 -8z m98 -25 c-2 -22 -6 -35 -10
-31 -3 5 -15 9 -25 9 -10 0 -24 7 -29 17 -15 23 7 47 41 46 26 -1 27 -3 23
-41z m87 31 c21 -21 13 -28 -25 -27 l-38 2 35 7 c28 5 31 8 18 14 -10 5 -25 5
-34 2 -8 -3 -12 -2 -9 4 8 14 38 13 53 -2z m95 5 c3 -5 -8 -8 -23 -8 -15 0
-26 3 -23 8 2 4 13 7 23 7 10 0 21 -3 23 -7z m177 -22 c0 -20 6 -31 18 -34 9
-3 -1 -5 -23 -5 -22 0 -32 2 -22 5 20 5 24 49 5 56 -8 3 -6 6 5 6 12 1 17 -7
17 -28z m121 -8 c4 -23 3 -33 -6 -33 -7 0 -10 11 -7 31 4 26 2 30 -14 27 -13
-2 -19 -12 -19 -31 1 -15 -4 -27 -10 -27 -5 0 -10 15 -10 34 0 31 2 34 30 33
25 -2 30 -7 36 -34z m283 28 c3 -4 -6 -6 -19 -3 -19 3 -27 -1 -34 -19 -6 -14
-10 -18 -10 -8 -2 30 48 54 63 30z m384 -3 c21 -21 13 -28 -30 -27 l-43 2 40
7 c31 5 36 8 23 14 -10 5 -25 5 -34 2 -8 -3 -12 -2 -9 4 8 14 38 13 53 -2z
m276 3 c3 -4 -6 -6 -19 -3 -14 2 -25 6 -25 8 0 8 39 4 44 -5z m116 -1 c0 -6
-11 -8 -25 -4 -15 4 -25 2 -25 -4 0 -6 10 -12 23 -14 32 -4 28 -33 -6 -34 -25
-1 -25 -1 -2 3 29 5 34 23 6 23 -22 0 -35 15 -26 30 8 13 55 13 55 0z m185 0
c3 -6 -1 -7 -10 -4 -8 4 -22 1 -30 -6 -9 -8 -15 -8 -15 -2 0 19 45 29 55 12z
m93 -2 c7 -7 12 -19 11 -27 0 -10 -4 -7 -9 7 -10 23 -50 32 -50 10 0 -6 -3 -9
-6 -5 -10 10 6 27 25 27 9 0 22 -5 29 -12z m86 3 c3 -4 -6 -6 -19 -3 -14 2
-25 6 -25 8 0 8 39 4 44 -5z m98 -4 c-26 -12 -29 -44 -4 -50 9 -3 1 -5 -18 -6
-24 0 -31 2 -21 8 8 5 12 19 9 33 -4 22 -1 25 26 25 28 0 29 -1 8 -10z m101 6
c3 -5 -8 -8 -23 -8 -15 0 -26 3 -23 8 2 4 13 7 23 7 10 0 21 -3 23 -7z m-4055
-30 c-16 -2 -28 -9 -28 -15 0 -6 11 -8 24 -6 14 3 30 2 36 -2 6 -4 -5 -7 -24
-8 -19 -1 -38 3 -41 8 -10 17 5 30 33 29 l27 -2 -27 -4z m3360 0 c-16 -2 -28
-9 -28 -15 0 -6 11 -8 24 -6 14 3 30 2 36 -2 6 -4 -5 -7 -24 -8 -19 -1 -38 3
-41 8 -10 17 5 30 33 29 l27 -2 -27 -4z m480 0 c-16 -2 -28 -9 -28 -15 0 -6
11 -8 24 -6 14 3 30 2 36 -2 6 -4 -5 -7 -24 -8 -19 -1 -38 3 -41 8 -10 17 5
30 33 29 l27 -2 -27 -4z m-3153 -21 c17 4 23 2 17 -4 -14 -14 -55 -6 -59 12
-4 12 -3 13 5 1 6 -8 20 -12 37 -9z m1162 -9 c-2 -22 -8 -28 -27 -30 -22 -1
-23 -1 -2 4 27 5 29 23 3 23 -11 0 -22 4 -25 9 -3 4 6 6 19 3 15 -2 25 0 25 7
0 6 2 11 4 11 3 0 4 -12 3 -27z m1903 4 c22 -4 21 -5 -4 -4 -17 1 -31 9 -33
17 -3 10 -2 11 4 4 4 -7 19 -14 33 -17z m-3527 1 c-2 -5 -15 -8 -28 -8 -13 0
-26 3 -28 8 -3 4 10 7 28 7 18 0 31 -3 28 -7z m187 -4 c0 -2 -13 -4 -30 -4
-16 0 -30 4 -30 8 0 5 14 7 30 4 17 -2 30 -6 30 -8z m385 6 c-3 -5 -18 -9 -33
-9 l-27 1 30 8 c17 4 31 8 33 9 2 0 0 -3 -3 -9z m95 -6 c0 -2 -13 -4 -30 -4
-16 0 -30 4 -30 8 0 5 14 7 30 4 17 -2 30 -6 30 -8z m865 6 c-3 -5 -18 -9 -33
-9 l-27 1 30 8 c17 4 31 8 33 9 2 0 0 -3 -3 -9z m288 -2 c-2 -5 -15 -8 -28 -8
-13 0 -26 3 -28 8 -3 4 10 7 28 7 18 0 31 -3 28 -7z m113 0 c2 -3 -12 -5 -31
-6 -19 -1 -36 2 -39 6 -4 8 62 7 70 0z m559 2 c-3 -5 -18 -9 -33 -9 l-27 1 30
8 c17 4 31 8 33 9 2 0 0 -3 -3 -9z m388 -2 c-2 -5 -15 -8 -28 -8 -13 0 -26 3
-28 8 -3 4 10 7 28 7 18 0 31 -3 28 -7z m571 0 c-3 -4 -21 -7 -40 -6 -19 1
-31 4 -25 7 13 9 70 7 65 -1z m402 0 c2 -3 -12 -5 -31 -6 -19 -1 -36 2 -39 6
-4 8 62 7 70 0z m64 2 c0 -5 -4 -10 -10 -10 -5 0 -10 5 -10 10 0 6 5 10 10 10
6 0 10 -4 10 -10z m-1127 -7 c-7 -2 -19 -2 -25 0 -7 3 -2 5 12 5 14 0 19 -2
13 -5z m-1568 -23 c4 -6 -6 -10 -22 -9 -25 0 -26 1 -8 9 11 5 21 9 22 9 1 1 5
-3 8 -9z m488 -7 c-7 -2 -19 -2 -25 0 -7 3 -2 5 12 5 14 0 19 -2 13 -5z
m-3040 -60 c-7 -2 -21 -2 -30 0 -10 3 -4 5 12 5 17 0 24 -2 18 -5z m0 -245 c7
-4 -1 -7 -18 -7 -16 0 -24 3 -17 6 7 2 13 25 14 51 l1 47 4 -45 c3 -24 10 -48
16 -52z m6280 85 c-13 -2 -35 -2 -50 0 -16 2 -5 4 22 4 28 0 40 -2 28 -4z
m-4813 -15 c0 -4 -6 -8 -12 -9 -18 -2 -68 -1 -98 0 -14 1 -45 1 -70 1 -95 -2
-134 1 -121 9 17 11 301 10 301 -1z m226 0 c8 -9 10 -9 -96 -9 -109 -1 -120 0
-120 10 0 10 205 9 216 -1z m-487 -69 c11 7 86 5 107 -3 6 -2 17 0 24 4 8 5
22 4 32 -1 12 -6 18 -6 18 1 0 5 5 10 10 10 6 0 10 -7 10 -14 0 -18 -52 -22
-247 -18 -89 2 -143 7 -143 13 0 6 21 9 50 8 27 -2 52 0 55 3 3 3 21 2 39 -2
19 -4 39 -4 45 -1z m499 -8 c2 -7 -36 -11 -117 -11 -67 0 -124 0 -128 -1 -4 0
-9 4 -11 10 -4 12 39 16 158 14 56 -1 96 -6 98 -12z m-2150 -58 c-10 -2 -28
-2 -40 0 -13 2 -5 4 17 4 22 1 32 -1 23 -4z m1820 -38 c-2 -1 -24 -14 -50 -29
-27 -15 -48 -31 -48 -36 0 -5 -7 -7 -15 -4 -21 9 -5 27 45 49 22 10 40 21 40
24 0 4 -80 6 -177 5 -189 -1 -256 3 -248 17 3 4 100 8 216 8 116 -1 213 2 217
6 3 3 10 -4 14 -16 5 -12 7 -23 6 -24z m-1375 -57 c7 -4 -1 -7 -18 -7 -16 0
-24 3 -17 6 7 2 13 25 14 51 l1 47 4 -45 c3 -24 10 -48 16 -52z m1462 -12 c34
-16 24 -23 -40 -29 -22 -3 -13 -4 21 -3 55 1 60 -1 56 -18 -4 -14 -1 -17 15
-12 13 4 26 -1 39 -16 10 -12 13 -18 6 -14 -22 13 -111 -60 -112 -91 0 -25 25
-12 61 30 46 52 53 48 50 -32 -1 -26 -4 -32 -17 -27 -22 8 -74 -15 -74 -32 0
-11 11 -13 43 -10 33 3 46 0 60 -15 19 -22 23 -7 7 23 -8 16 -7 18 4 14 49
-19 -8 -114 -68 -114 -30 0 -46 8 -118 58 -23 17 -19 11 12 -17 25 -22 57 -43
73 -46 25 -6 40 -35 17 -35 -12 0 -51 -75 -43 -84 4 -3 0 -6 -8 -6 -8 0 -20 9
-27 21 -7 12 -16 18 -19 15 -4 -3 -12 -1 -20 6 -24 19 -36 -5 -14 -29 18 -19
18 -22 3 -36 -19 -20 -9 -35 12 -18 17 14 95 11 99 -4 1 -5 -16 -16 -38 -23
-36 -13 -138 -11 -255 3 -14 2 -58 4 -97 4 -59 1 -73 4 -73 17 0 13 17 15 118
12 l119 -3 0 28 c0 28 -2 28 -36 21 -49 -11 -90 -9 -103 4 -18 18 0 31 32 22
27 -8 31 -6 36 16 4 14 2 30 -4 36 -6 6 -100 10 -246 10 -193 0 -236 3 -236
14 0 8 10 13 23 13 12 -1 116 0 230 1 190 1 208 3 203 18 -2 9 -8 36 -11 60
-8 48 16 44 -224 46 -107 1 -145 4 -149 14 -2 8 6 12 25 12 15 -1 55 -1 88 -1
33 0 67 0 75 0 8 0 31 2 50 4 19 2 51 0 71 -3 41 -8 73 9 63 33 -5 13 -29 15
-151 15 -92 0 -149 4 -156 11 -14 14 -26 13 141 15 114 1 145 5 152 16 22 34
27 32 -167 34 -80 1 -134 5 -135 11 -2 6 57 11 161 12 l163 2 29 27 29 28 62
-22 c35 -12 74 -22 88 -21 29 1 20 5 -32 14 -40 6 -50 20 -20 28 37 10 128 5
157 -7z m-1422 -53 c-13 -2 -33 -2 -45 0 -13 2 -3 4 22 4 25 0 35 -2 23 -4z
m1747 -5 c0 -18 -95 -22 -109 -4 -9 10 1 13 49 15 43 1 60 -2 60 -11z m-2266
-6 c3 -5 -5 -8 -17 -8 -16 1 -23 -6 -25 -23 -3 -17 0 -21 10 -15 11 6 11 5 0
-8 -16 -19 0 -33 26 -23 14 5 15 4 4 -7 -30 -30 -70 43 -41 78 13 15 35 19 43
6z m6714 1 c-10 -2 -26 -2 -35 0 -10 3 -2 5 17 5 19 0 27 -2 18 -5z m-6699
-45 c-1 -18 -2 -19 -6 -5 -2 9 -9 14 -15 11 -7 -4 -8 -2 -4 4 12 20 26 13 25
-10z m522 -15 c13 -16 12 -17 -3 -4 -10 7 -18 15 -18 17 0 8 8 3 21 -13z
m1747 -81 c2 -7 2 -12 0 -12 -113 -13 -118 -12 -118 5 0 10 5 15 13 12 8 -3
19 -2 24 1 18 11 77 6 81 -6z m-2285 -104 c7 -4 -1 -7 -18 -7 -16 0 -24 3 -17
6 7 2 13 25 14 51 l1 47 4 -45 c3 -24 10 -48 16 -52z m485 80 c7 -7 11 -23 11
-37 -1 -18 -3 -20 -6 -8 -3 10 -9 14 -16 10 -8 -4 -7 -1 1 9 9 12 10 18 2 23
-18 11 -40 -3 -40 -25 0 -14 4 -19 13 -14 9 6 9 4 -1 -8 -16 -19 0 -33 26 -23
14 5 15 4 4 -7 -30 -30 -70 43 -41 78 14 17 31 18 47 2z m-491 -198 c-11 -27
-24 -50 -28 -50 -4 0 1 18 12 40 24 49 24 48 -8 53 -23 3 -22 4 9 6 l36 1 -21
-50z m476 43 c-24 -5 -32 -33 -10 -33 7 0 18 -5 25 -12 18 -18 -4 -48 -36 -47
l-27 1 25 7 c32 9 40 41 11 41 -16 0 -21 6 -21 25 0 21 4 25 28 24 23 -2 24
-2 5 -6z m1097 -60 c0 -16 12 -15 -205 -15 -111 1 -181 5 -183 11 -4 12 55 16
246 16 108 0 142 -3 142 -12z m948 -2 c4 -12 6 -12 -255 -14 -156 -1 -181 2
-170 20 8 13 420 8 425 -6z m-530 -5 c20 5 50 -12 39 -22 -10 -11 -60 8 -63
24 -1 7 0 8 2 3 3 -5 13 -7 22 -5z m72 0 c0 -3 -4 -8 -10 -11 -5 -3 -10 -1
-10 4 0 6 5 11 10 11 6 0 10 -2 10 -4z m4508 -3 c-10 -2 -28 -2 -40 0 -13 2
-5 4 17 4 22 1 32 -1 23 -4z m-4378 -69 c0 -10 -13 -14 -50 -14 -27 0 -53 -1
-57 -2 -4 -2 -9 5 -11 14 -3 14 6 17 50 20 62 3 68 2 68 -18z m-722 -1 c3 -10
-26 -13 -121 -13 -129 0 -170 6 -146 21 22 13 262 6 267 -8z m567 -2 c3 -5 -3
-12 -13 -15 -16 -6 -20 -21 -25 -114 -4 -77 -10 -109 -21 -117 -8 -5 -23 -16
-33 -22 -15 -10 -13 -11 11 -2 35 12 126 77 126 90 0 4 6 6 14 3 11 -4 13 -12
6 -29 -6 -15 -6 -27 1 -30 10 -7 4 -57 -12 -110 -5 -16 -26 -43 -47 -58 l-37
-28 -7 46 c-12 83 -41 105 -145 105 -18 0 -33 5 -33 10 0 6 -5 10 -12 10 -6 0
-9 -3 -5 -6 3 -3 -7 -23 -22 -45 -16 -21 -34 -52 -41 -68 l-12 -31 -32 27
c-17 14 -30 34 -28 43 4 25 -22 29 -188 29 -80 0 -153 3 -162 6 -39 15 -2 23
114 24 67 1 123 3 125 5 2 2 19 0 38 -4 36 -8 61 3 67 29 3 12 -26 15 -177 16
-145 1 -180 4 -180 15 0 11 36 14 192 15 184 1 194 2 216 23 26 24 46 30 28 8
-16 -19 -4 -64 21 -77 11 -6 22 -8 25 -5 8 8 -7 26 -23 26 -8 0 -14 5 -14 10
0 6 5 10 11 10 7 0 8 16 3 46 -5 34 -4 45 5 40 6 -4 11 -14 11 -22 0 -15 37
-94 45 -94 2 0 -1 15 -6 32 -5 18 -9 57 -9 85 0 50 2 53 25 53 14 0 25 -6 25
-12 0 -8 3 -9 8 -3 4 6 28 20 54 32 26 12 53 32 60 43 13 21 43 27 53 11z
m-1475 -11 c-8 -5 -37 -9 -65 -8 l-50 1 55 7 c30 4 60 7 65 8 6 1 3 -3 -5 -8z
m-567 -7 c-28 -5 -30 -29 -3 -36 13 -3 20 -13 19 -29 -2 -23 -2 -23 -6 0 -3
14 -12 22 -24 22 -14 0 -19 7 -19 25 0 21 4 25 28 24 23 -2 24 -2 5 -6z m6610
0 c-13 -2 -35 -2 -50 0 -16 2 -5 4 22 4 28 0 40 -2 28 -4z m137 2 c0 -13 -45
-95 -52 -95 -5 0 1 18 12 40 25 49 25 48 -7 53 -23 3 -21 4 10 6 20 0 37 -1
37 -4z m-6226 -56 c-10 -11 -28 -25 -39 -31 -11 -6 -4 4 15 20 41 36 51 41 24
11z m1229 7 c15 -5 27 -15 27 -23 0 -9 -5 -11 -12 -7 -7 5 -139 9 -293 10
-180 1 -281 6 -283 12 -2 6 12 12 30 14 67 6 504 1 531 -6z m-1756 -42 c-3 -3
-12 -4 -19 -1 -8 3 -5 6 6 6 11 1 17 -2 13 -5z m6813 -64 c-8 -5 -37 -9 -65
-8 l-50 1 55 7 c30 4 60 7 65 8 6 1 3 -3 -5 -8z m-6788 -40 c4 -45 -7 -73 -19
-54 -5 7 -18 14 -31 15 l-22 4 25 38 c14 20 30 37 34 37 5 0 11 -18 13 -40z
m2268 -8 c0 -15 -9 -17 -62 -17 -48 0 -63 4 -66 15 -2 12 11 16 63 18 57 2 65
0 65 -16z m30 -2 c0 -11 -4 -20 -8 -20 -4 0 -8 9 -8 20 0 11 4 20 8 20 4 0 8
-9 8 -20z m4260 16 c0 -2 -11 -6 -25 -8 -13 -3 -22 -1 -19 3 5 9 44 13 44 5z
m184 -27 c-10 -11 -28 -25 -39 -31 -11 -6 -4 4 15 20 41 36 51 41 24 11z
m-198 -37 c-10 -2 -22 0 -28 6 -6 6 0 7 19 4 21 -5 23 -7 9 -10z m-6563 -69
c-24 -5 -32 -33 -10 -33 7 0 18 -5 25 -12 18 -18 -4 -48 -36 -47 l-27 1 25 7
c32 9 40 41 11 41 -16 0 -21 6 -21 25 0 21 4 25 28 24 23 -2 24 -2 5 -6z
m6250 0 c-7 -2 -21 -2 -30 0 -10 3 -4 5 12 5 17 0 24 -2 18 -5z m360 0 c-13
-2 -35 -2 -50 0 -16 2 -5 4 22 4 28 0 40 -2 28 -4z m-5013 -25 c0 -6 7 -5 15
2 13 11 14 10 10 -3 -4 -8 -16 -17 -28 -19 -34 -7 -263 -2 -276 6 -27 17 6 25
100 24 55 0 102 2 104 4 9 8 75 -5 75 -14z m387 8 c0 -8 -11 -13 -26 -13 -23
0 -24 0 -6 13 10 8 22 14 25 14 4 0 7 -6 7 -14z m313 -12 c0 -10 -8 -14 -22
-12 -27 4 -35 25 -11 30 23 6 33 0 33 -18z m-500 -5 c0 -5 -10 -9 -21 -9 -18
0 -19 2 -9 15 12 15 30 12 30 -6z m38 4 c-4 -22 -22 -20 -26 1 -2 10 3 16 13
16 10 0 15 -7 13 -17z m4772 -17 c0 -2 -8 -10 -17 -17 -16 -13 -17 -12 -4 4
13 16 21 21 21 13z m-4612 -50 c4 -31 -18 -105 -51 -176 l-21 -45 -7 59 c-4
32 -13 62 -20 67 -10 6 -11 11 -3 17 6 4 14 22 18 41 13 70 77 98 84 37z
m-210 -40 c10 -33 10 -42 -3 -62 -8 -13 -15 -31 -16 -41 -1 -28 -17 32 -25 94
-6 50 -5 55 12 51 12 -2 24 -18 32 -42z m-253 -47 c0 -16 -32 -19 -57 -7 -30
14 -20 25 20 23 23 -2 37 -8 37 -16z m4725 -3 c0 -2 -11 -6 -25 -8 -13 -3 -22
-1 -19 3 5 9 44 13 44 5z m319 -48 c-1 -32 -4 -45 -7 -33 -4 11 -16 20 -27 20
-23 0 -32 30 -15 50 7 8 21 15 31 15 16 0 19 -7 18 -52z m-333 -16 c-10 -2
-22 0 -28 6 -6 6 0 7 19 4 21 -5 23 -7 9 -10z m317 -69 c-24 -5 -32 -33 -10
-33 7 0 18 -5 25 -12 18 -18 -4 -48 -36 -47 l-27 1 25 7 c32 9 40 41 11 41
-16 0 -21 6 -21 25 0 21 4 25 28 24 23 -2 24 -2 5 -6z m-4643 -7 c0 -3 -4 -8
-10 -11 -5 -3 -10 -1 -10 4 0 6 5 11 10 11 6 0 10 -2 10 -4z m4317 -82 c-3 -3
-12 -4 -19 -1 -8 3 -5 6 6 6 11 1 17 -2 13 -5z m-4987 -41 c0 -11 -4 -11 -20
-1 -15 10 -22 10 -32 0 -9 -9 -5 -14 21 -23 42 -15 38 -43 -7 -47 -26 -3 -32
0 -31 15 0 10 3 13 6 6 6 -15 53 -17 53 -3 0 6 -8 13 -17 17 -34 12 -44 25
-32 39 14 17 59 14 59 -3z m265 -6 c18 -4 18 -5 -2 -6 -18 -1 -23 -7 -23 -27
0 -24 3 -25 28 -19 20 5 24 4 16 -5 -20 -20 -48 -7 -55 25 -6 33 0 62 10 47 3
-5 15 -12 26 -15z m568 16 c-7 -2 -13 -20 -13 -39 0 -27 4 -34 19 -34 11 0 22
8 24 18 4 13 5 11 6 -5 1 -21 -4 -23 -41 -22 -24 0 -37 3 -30 6 6 2 12 20 12
38 0 18 -6 36 -12 38 -7 3 1 5 17 5 17 0 24 -2 18 -5z m492 -16 c18 -4 18 -5
-2 -6 -18 -1 -23 -7 -23 -27 0 -22 4 -25 21 -21 16 4 19 3 11 -5 -17 -17 -42
-1 -42 27 0 14 -5 25 -10 25 -6 0 -5 6 2 14 7 8 15 10 18 6 3 -4 14 -10 25
-13z m4014 -37 c4 0 16 -7 27 -16 18 -15 18 -15 -3 -5 -31 15 -31 15 -36 -26
-2 -21 -4 -6 -4 32 0 39 2 58 4 43 2 -16 8 -28 12 -28z m-5251 28 c21 -21 13
-28 -30 -27 l-43 2 40 7 c31 5 36 8 23 14 -10 5 -25 5 -34 2 -8 -3 -12 -2 -9
4 8 14 38 13 53 -2z m80 5 c-10 -2 -26 -2 -35 0 -10 3 -2 5 17 5 19 0 27 -2
18 -5z m179 1 c-3 -3 -12 -4 -19 -1 -8 3 -5 6 6 6 11 1 17 -2 13 -5z m118 -5
c3 -5 -1 -6 -10 -2 -10 3 -20 1 -24 -4 -4 -7 -10 -7 -17 2 -9 9 -6 12 17 13
16 0 31 -3 34 -9z m105 -38 c-4 -39 -8 -46 -28 -47 -18 -1 -19 -1 -2 3 11 2
20 10 20 18 0 8 -7 11 -19 8 -10 -3 -21 -1 -24 4 -3 5 4 9 16 9 16 -1 22 5 22
19 0 14 -6 20 -22 19 -12 0 -20 3 -17 7 2 4 17 7 32 7 27 -1 27 -2 22 -47z
m100 39 c0 -6 -11 -8 -25 -4 -15 4 -25 2 -25 -4 0 -6 10 -12 23 -14 32 -4 28
-33 -6 -34 -25 -1 -25 -1 -2 3 29 5 34 23 6 23 -22 0 -35 15 -26 30 8 13 55
13 55 0z m278 -2 c7 -7 12 -19 11 -27 0 -10 -4 -7 -9 7 -10 23 -50 32 -50 10
0 -6 -3 -9 -6 -5 -10 10 6 27 25 27 9 0 22 -5 29 -12z m102 -37 c-4 -39 -8
-46 -28 -47 -18 -1 -19 -1 -2 3 11 2 20 10 20 18 0 8 -7 11 -19 8 -10 -3 -21
-1 -24 4 -3 5 4 9 16 9 16 -1 22 5 22 19 0 14 -6 20 -22 19 -12 0 -20 3 -17 7
2 4 17 7 32 7 27 -1 27 -2 22 -47z m94 40 c3 -4 -6 -6 -19 -3 -19 3 -27 -1
-34 -19 -6 -14 -10 -18 -10 -8 -2 30 48 54 63 30z m46 -16 c0 -14 -2 -25 -4
-25 -2 0 -6 11 -8 25 -3 14 -1 25 3 25 5 0 9 -11 9 -25z m3818 -88 c9 -3 1 -5
-18 -5 -19 0 -29 2 -22 5 7 2 13 25 14 51 l2 47 3 -47 c3 -33 9 -48 21 -51z
m-4078 50 c22 -4 21 -5 -4 -4 -17 1 -31 9 -33 17 -3 10 -2 11 4 4 4 -7 19 -14
33 -17z m-837 1 c-2 -5 -15 -8 -28 -8 -13 0 -26 3 -28 8 -3 4 10 7 28 7 18 0
31 -3 28 -7z m90 0 c-2 -5 -13 -8 -24 -8 -10 0 -19 3 -19 8 0 4 11 7 24 7 13
0 22 -3 19 -7z m962 2 c-3 -5 -18 -9 -33 -9 l-27 1 30 8 c17 4 31 8 33 9 2 0
0 -3 -3 -9z m102 2 c8 -5 -2 -8 -25 -9 -28 0 -32 1 -17 7 26 11 28 11 42 2z
m-879 -9 c-10 -2 -26 -2 -35 0 -10 3 -2 5 17 5 19 0 27 -2 18 -5z m59 1 c-3
-3 -12 -4 -19 -1 -8 3 -5 6 6 6 11 1 17 -2 13 -5z m56 -1 c-7 -2 -19 -2 -25 0
-7 3 -2 5 12 5 14 0 19 -2 13 -5z m4524 -178 c1 -17 0 -24 -3 -17 -6 14 -44
17 -44 3 0 -5 8 -12 18 -15 13 -4 13 -4 -3 -3 -27 3 -25 31 3 35 26 4 29 18 5
26 -14 4 -14 4 2 3 15 -2 21 -10 22 -32z m73 -95 c-8 -5 -37 -9 -65 -8 l-50 1
55 7 c30 4 60 7 65 8 6 1 3 -3 -5 -8z m-40 -53 c0 -2 -10 -12 -22 -23 l-23
-19 19 23 c18 21 26 27 26 19z m-21 -127 c4 0 16 -7 27 -16 18 -15 18 -15 -3
-5 -31 15 -31 15 -36 -26 -2 -21 -4 -6 -4 32 0 39 2 58 4 43 2 -16 8 -28 12
-28z m784 -627 c-7 -2 -21 -2 -30 0 -10 3 -4 5 12 5 17 0 24 -2 18 -5z m1 -42
c3 -4 -6 -6 -19 -3 -14 2 -25 6 -25 8 0 8 39 4 44 -5z m-3539 -11 c3 -6 -1 -7
-9 -4 -18 7 -21 14 -7 14 6 0 13 -4 16 -10z m1943 -17 c-10 -2 -28 -2 -40 0
-13 2 -5 4 17 4 22 1 32 -1 23 -4z m1579 -19 c-3 -3 -12 -4 -19 -1 -8 3 -5 6
6 6 11 1 17 -2 13 -5z m-3934 -71 c-7 -2 -21 -2 -30 0 -10 3 -4 5 12 5 17 0
24 -2 18 -5z m425 0 c-10 -2 -26 -2 -35 0 -10 3 -2 5 17 5 19 0 27 -2 18 -5z
m1925 -85 c7 -4 -1 -7 -18 -7 -16 0 -24 3 -17 6 7 2 13 25 14 51 l1 47 4 -45
c3 -24 10 -48 16 -52z m1601 84 c3 -5 -5 -8 -17 -8 -16 1 -23 -6 -25 -23 -3
-17 0 -21 10 -15 11 6 11 5 0 -8 -16 -19 0 -33 26 -23 14 5 15 4 4 -7 -30 -30
-70 43 -41 78 13 15 35 19 43 6z m15 -44 c-1 -18 -2 -19 -6 -5 -2 9 -9 14 -15
11 -7 -4 -8 -2 -4 4 12 20 26 13 25 -10z m-3496 -115 c-13 -2 -35 -2 -50 0
-16 2 -5 4 22 4 28 0 40 -2 28 -4z m3485 -86 c9 -3 1 -5 -18 -5 -19 0 -29 2
-22 5 7 2 13 25 14 51 l2 47 3 -47 c3 -33 9 -48 21 -51z m-1617 54 c-13 -3
-28 -15 -32 -26 -5 -14 -8 -15 -8 -4 -1 21 19 39 44 38 17 -1 17 -2 -4 -8z
m-4 -57 c-3 -3 -12 -4 -19 -1 -8 3 -5 6 6 6 11 1 17 -2 13 -5z m-2344 -61
c-13 -2 -33 -2 -45 0 -13 2 -3 4 22 4 25 0 35 -2 23 -4z m2400 0 c-13 -2 -33
-2 -45 0 -13 2 -3 4 22 4 25 0 35 -2 23 -4z m1637 -3 c-8 -5 -37 -9 -65 -8
l-50 1 55 7 c30 4 60 7 65 8 6 1 3 -3 -5 -8z m-3560 -7 c-19 -3 -44 -12 -55
-21 -20 -17 -20 -17 -1 6 14 16 29 22 55 20 l36 -1 -35 -4z m1941 -60 c13 -16
12 -17 -3 -4 -17 13 -22 21 -14 21 2 0 10 -8 17 -17z m1579 14 c0 -2 -10 -12
-22 -23 l-23 -19 19 23 c18 21 26 27 26 19z m40 -107 c-8 -5 -37 -9 -65 -8
l-50 1 55 7 c30 4 60 7 65 8 6 1 3 -3 -5 -8z m-4100 -32 c-13 -13 -19 -16 -15
-8 14 25 28 41 32 36 3 -3 -5 -15 -17 -28z m2153 25 c-7 -2 -21 -2 -30 0 -10
3 -4 5 12 5 17 0 24 -2 18 -5z m275 -86 c9 -3 1 -5 -18 -5 -19 0 -29 2 -22 5
7 2 13 25 14 51 l2 47 3 -47 c3 -33 9 -48 21 -51z m-1933 56 c-11 -3 -23 -10
-27 -17 -5 -7 -8 -7 -8 0 0 16 11 24 34 23 20 -1 20 -1 1 -6z m3565 -16 c0 -2
-10 -12 -22 -23 l-23 -19 19 23 c18 21 26 27 26 19z m-4020 -23 c0 -2 -16 -4
-35 -4 -19 0 -35 4 -35 8 0 4 16 6 35 4 19 -2 35 -6 35 -8z m456 -22 c-10 -2
-22 0 -28 6 -6 6 0 7 19 4 21 -5 23 -7 9 -10z m3521 -94 c-2 -13 -4 -5 -4 17
-1 22 1 32 4 23 2 -10 2 -28 0 -40z m-3917 34 c0 -5 -10 -17 -22 -28 l-23 -19
19 22 18 22 -58 4 -59 3 63 2 c34 1 62 -2 62 -6z m2010 -36 c0 -2 -11 -6 -25
-8 -13 -3 -22 -1 -19 3 5 9 44 13 44 5z"/>
<path d="M1382 5165 c-10 -21 -9 -25 3 -25 9 0 15 10 15 25 0 14 -2 25 -3 25
-2 0 -9 -11 -15 -25z"/>
<path d="M5606 4589 c-51 -40 -24 -119 41 -119 31 0 63 34 63 65 0 28 -40 75
-63 75 -8 0 -26 -9 -41 -21z"/>
<path d="M2165 4598 c-18 -11 -15 -13 30 -24 27 -7 51 -11 53 -9 6 6 -37 45
-50 45 -7 0 -22 -6 -33 -12z"/>
<path d="M3015 4585 c-14 -13 -25 -33 -25 -45 0 -25 42 -70 65 -70 20 0 57 19
67 34 17 24 8 65 -18 85 -35 27 -59 26 -89 -4z"/>
<path d="M3605 4596 c-18 -13 -17 -15 20 -21 22 -4 48 -12 58 -17 16 -8 17 -7
8 11 -11 20 -41 41 -58 41 -5 0 -18 -6 -28 -14z"/>
<path d="M4471 4586 c-58 -61 34 -139 94 -80 22 22 18 52 -10 79 -30 31 -55
32 -84 1z"/>
<path d="M5336 4599 c-24 -15 -4 -29 42 -29 36 0 42 14 13 30 -24 12 -31 12
-55 -1z"/>
<path d="M5320 4486 c0 -9 37 -12 55 -5 15 6 11 8 -17 8 -21 1 -38 -1 -38 -3z"/>
<path d="M2940 3900 c0 -5 12 -10 26 -10 14 0 23 4 19 10 -3 6 -15 10 -26 10
-10 0 -19 -4 -19 -10z"/>
<path d="M4094 3895 c-4 -9 -2 -21 4 -27 15 -15 44 -1 40 19 -4 23 -36 29 -44
8z"/>
<path d="M2267 3226 c-4 -10 0 -12 14 -9 24 7 52 -15 44 -35 -6 -16 11 -42 27
-42 15 0 1 60 -19 82 -19 21 -59 24 -66 4z"/>
<path d="M2256 3181 c-4 -7 -5 -15 -2 -18 9 -9 19 4 14 18 -4 11 -6 11 -12 0z"/>
<path d="M2255 3141 c-3 -2 -5 -18 -4 -35 0 -30 1 -30 10 -7 7 19 12 22 21 13
17 -17 58 -15 58 3 0 25 -66 45 -85 26z"/>
<path d="M2384 3049 c-10 -12 -34 -28 -53 -36 -30 -13 -35 -12 -52 3 -17 16
-19 16 -19 1 0 -22 39 -31 74 -17 15 5 32 7 38 4 15 -10 -20 -34 -49 -34 -18
0 -23 -6 -23 -25 0 -15 6 -25 14 -25 23 0 69 20 62 27 -3 3 -1 11 4 18 5 6 10
27 11 46 2 19 7 40 12 47 16 20 1 14 -19 -9z"/>
<path d="M2460 2998 l-20 -33 21 -9 c25 -12 39 5 39 47 0 36 -16 34 -40 -5z"/>
<path d="M582 2605 c-10 -21 -9 -25 3 -25 9 0 15 10 15 25 0 14 -2 25 -3 25
-2 0 -9 -11 -15 -25z"/>
<path d="M7133 2274 c-7 -18 11 -39 26 -30 17 11 13 46 -4 46 -9 0 -18 -7 -22
-16z"/>
<path d="M6017 73 c-4 -3 -7 -15 -7 -25 0 -16 3 -16 20 -6 11 7 20 18 20 25 0
14 -22 18 -33 6z"/>
<path d="M4102 45 c-10 -21 -9 -25 3 -25 9 0 15 10 15 25 0 14 -2 25 -3 25 -2
0 -9 -11 -15 -25z"/>
</g>
</svg>
