<?xml version="1.0" standalone="no"?>
<!DOCTYPE svg PUBLIC "-//W3C//DTD SVG 20010904//EN"
 "http://www.w3.org/TR/2001/REC-SVG-20010904/DTD/svg10.dtd">
<svg version="1.0" xmlns="http://www.w3.org/2000/svg"
 width="1075.000000pt" height="447.000000pt" viewBox="0 0 1075.000000 447.000000"
 preserveAspectRatio="xMidYMid meet">

<g transform="translate(0.000000,447.000000) scale(0.100000,-0.100000)"
fill="#000000" stroke="none">
<path d="M135 4455 c76 -20 1580 -20 1650 -1 44 12 -61 14 -825 14 -732 0
-867 -2 -825 -13z"/>
<path d="M2624 4455 c-17 -13 18 -14 307 -15 278 0 328 2 339 15 11 13 -24 15
-307 15 -265 0 -322 -2 -339 -15z"/>
<path d="M4057 4463 c-4 -3 -7 -10 -7 -15 0 -4 1501 -8 3335 -8 l3335 0 0
-2220 c0 -1967 2 -2220 15 -2220 13 0 15 255 15 2235 l0 2235 -3343 0 c-1839
0 -3347 -3 -3350 -7z"/>
<path d="M190 4180 l0 -100 75 0 c68 0 75 2 75 20 0 18 -7 20 -55 20 -48 0
-55 2 -55 20 0 17 7 20 45 20 38 0 45 3 45 20 0 17 -7 20 -45 20 -38 0 -45 3
-45 20 0 17 7 20 50 20 43 0 50 3 50 20 0 18 -7 20 -70 20 l-70 0 0 -100z"/>
<path d="M940 4245 c0 -32 -2 -34 -19 -23 -49 30 -97 -39 -71 -102 13 -32 25
-37 88 -38 l42 -1 0 100 c0 92 -1 99 -20 99 -16 0 -20 -7 -20 -35z m-5 -90 c0
-36 -2 -40 -25 -40 -20 0 -26 6 -28 28 -5 42 5 59 30 55 20 -3 23 -9 23 -43z"/>
<path d="M1255 4266 c-16 -12 -20 -24 -18 -68 4 -85 15 -113 46 -116 19 -2 27
1 27 12 0 9 -7 16 -15 16 -11 0 -15 12 -15 45 0 33 4 45 15 45 8 0 15 7 15 15
0 8 -6 15 -14 15 -8 0 -16 11 -18 26 -3 23 -4 24 -23 10z"/>
<path d="M1570 4180 l0 -100 63 0 c49 0 68 4 80 18 21 23 22 56 2 72 -11 9
-13 16 -5 24 17 17 12 64 -9 76 -11 5 -45 10 -75 10 l-56 0 0 -100z m115 40
c0 -10 -12 -16 -37 -18 -33 -3 -38 0 -38 18 0 18 5 21 38 18 25 -2 37 -8 37
-18z m3 -82 c3 -15 -4 -18 -37 -18 -35 0 -41 3 -41 21 0 17 5 20 37 17 27 -2
39 -8 41 -20z"/>
<path d="M2231 4254 c-62 -78 18 -227 82 -156 37 41 5 122 -43 109 -15 -4 -20
0 -20 14 0 22 32 39 38 21 4 -14 42 -16 42 -3 0 18 -31 41 -55 41 -14 0 -32
-11 -44 -26z m64 -109 c0 -23 -4 -30 -20 -30 -21 0 -31 25 -21 51 11 28 41 12
41 -21z"/>
<path d="M2391 4212 c-22 -38 -41 -74 -41 -80 0 -7 16 -12 40 -12 33 0 40 -3
40 -20 0 -11 7 -20 15 -20 8 0 15 9 15 20 0 11 7 20 15 20 8 0 15 7 15 15 0 8
-7 15 -15 15 -12 0 -15 14 -15 65 0 86 -16 85 -69 -3z m39 -32 c0 -23 -4 -30
-20 -30 -24 0 -25 8 -4 38 20 29 24 28 24 -8z"/>
<path d="M2613 4273 c-7 -2 -13 -13 -13 -23 0 -10 -6 -20 -12 -22 -10 -4 -10
-10 0 -32 6 -15 12 -47 12 -71 0 -33 4 -45 15 -45 12 0 15 13 15 60 0 47 3 60
15 60 8 0 15 7 15 15 0 8 -7 15 -15 15 -22 0 -18 17 6 23 12 3 18 10 14 16 -6
11 -31 13 -52 4z"/>
<path d="M3355 4266 c-16 -12 -20 -24 -18 -68 4 -85 15 -113 46 -116 19 -2 27
1 27 12 0 9 -7 16 -15 16 -11 0 -15 12 -15 45 0 33 4 45 15 45 8 0 15 7 15 15
0 8 -6 15 -14 15 -8 0 -16 11 -18 26 -3 23 -4 24 -23 10z"/>
<path d="M370 4155 c0 -68 2 -75 20 -75 16 0 19 8 22 58 3 49 6 57 23 57 17 0
20 -8 23 -57 2 -43 7 -58 17 -58 12 0 15 15 15 64 0 77 -15 96 -61 79 -16 -6
-29 -7 -29 -2 0 5 -7 9 -15 9 -12 0 -15 -15 -15 -75z"/>
<path d="M550 4210 c-42 -42 -13 -130 43 -130 12 0 33 7 46 16 20 15 21 18 8
26 -10 5 -24 4 -36 -4 -15 -9 -23 -9 -35 1 -36 30 -5 98 33 74 11 -7 23 -8 32
-2 12 8 11 12 -5 24 -27 21 -62 19 -86 -5z"/>
<path d="M700 4210 c-43 -43 -13 -130 45 -130 33 0 75 42 75 75 0 33 -42 75
-75 75 -14 0 -34 -9 -45 -20z m75 -55 c0 -43 -22 -58 -50 -35 -32 27 -10 84
30 78 16 -2 20 -11 20 -43z"/>
<path d="M1032 4214 c-17 -12 -22 -25 -22 -59 0 -34 5 -47 22 -59 28 -20 59
-20 84 -1 21 15 18 17 -40 19 -51 2 -43 26 8 26 42 0 46 2 46 25 0 29 -32 65
-58 65 -10 0 -28 -7 -40 -16z m66 -31 c2 -9 -7 -13 -27 -13 -30 0 -39 9 -24
24 11 10 46 3 51 -11z"/>
<path d="M1345 4205 c-14 -13 -25 -36 -25 -50 0 -33 42 -75 75 -75 36 0 65 33
65 75 0 69 -68 98 -115 50z m75 -19 c26 -32 -7 -87 -44 -73 -16 6 -23 66 -9
80 11 12 40 8 53 -7z"/>
<path d="M1776 4208 c-20 -28 -13 -35 19 -18 18 10 28 11 36 3 16 -16 2 -33
-25 -33 -28 0 -46 -18 -46 -47 0 -27 38 -40 69 -23 14 7 21 7 21 0 0 -5 6 -10
14 -10 11 0 13 13 9 63 -3 34 -10 68 -16 75 -16 20 -64 14 -81 -10z m64 -73
c0 -21 -28 -31 -43 -16 -9 9 -8 14 3 21 22 14 40 12 40 -5z"/>
<path d="M1926 4217 c-31 -23 -17 -60 27 -72 46 -13 49 -30 4 -31 -62 -3 -64
-3 -43 -19 26 -20 81 -19 101 1 28 28 15 57 -32 72 -52 17 -58 37 -8 29 36 -6
58 9 34 24 -21 13 -63 11 -83 -4z"/>
<path d="M2082 4214 c-17 -12 -22 -25 -22 -59 0 -34 5 -47 22 -59 28 -20 59
-20 84 -1 21 15 18 17 -40 19 -51 2 -43 26 8 26 42 0 46 2 46 25 0 29 -32 65
-58 65 -10 0 -28 -7 -40 -16z m66 -31 c2 -9 -7 -13 -27 -13 -30 0 -39 9 -24
24 11 10 46 3 51 -11z"/>
<path d="M2695 4205 c-14 -13 -25 -36 -25 -50 0 -33 42 -75 75 -75 36 0 65 33
65 75 0 69 -68 98 -115 50z m75 -19 c26 -32 -7 -87 -44 -73 -16 6 -23 66 -9
80 11 12 40 8 53 -7z"/>
<path d="M2850 4154 c0 -59 3 -74 15 -74 11 0 15 12 15 48 0 52 6 65 33 75 31
11 18 26 -23 25 l-40 0 0 -74z"/>
<path d="M2950 4155 c0 -60 3 -75 15 -75 11 0 15 12 15 48 0 55 11 77 34 69
12 -5 16 -20 16 -62 0 -48 2 -55 20 -55 18 0 20 7 20 55 0 42 4 57 16 62 23 8
34 -14 34 -69 0 -36 4 -48 15 -48 12 0 15 14 15 64 0 75 -15 96 -59 80 -18 -7
-34 -7 -50 0 -16 7 -28 6 -42 -2 -11 -7 -19 -8 -19 -2 0 5 -7 10 -15 10 -12 0
-15 -15 -15 -75z"/>
<path d="M3208 4219 c-22 -12 -24 -39 -3 -39 8 0 15 5 15 10 0 6 9 10 21 10
33 0 19 -31 -21 -44 -37 -12 -50 -37 -30 -61 15 -18 52 -19 68 -3 9 9 12 9 12
0 0 -7 8 -12 18 -12 15 0 17 8 14 62 -2 43 -8 67 -20 76 -19 14 -50 15 -74 1z
m50 -86 c-4 -22 -38 -30 -38 -10 0 14 13 24 33 26 5 1 7 -7 5 -16z"/>
<path d="M203 3893 c-29 -11 -13 -44 27 -60 44 -18 48 -24 24 -44 -14 -11 -21
-11 -45 3 -16 10 -29 13 -29 7 0 -19 48 -33 75 -21 43 20 29 52 -27 66 -31 7
-37 30 -12 40 21 8 20 8 38 -10 14 -13 16 -13 16 -1 0 22 -36 33 -67 20z"/>
<path d="M2093 3835 c0 -38 2 -52 4 -30 3 22 8 44 13 49 16 16 40 -15 42 -53
1 -36 1 -36 5 -4 5 42 -13 76 -37 70 -13 -3 -20 1 -23 17 -2 11 -4 -10 -4 -49z"/>
<path d="M2730 3835 c0 -38 2 -66 5 -63 7 7 9 118 1 125 -3 3 -6 -24 -6 -62z"/>
<path d="M2930 3835 c0 -38 2 -66 5 -63 7 7 9 118 1 125 -3 3 -6 -24 -6 -62z"/>
<path d="M3630 3879 c0 -15 -5 -19 -19 -14 -22 7 -51 -18 -51 -43 0 -29 17
-45 49 -47 l31 -2 0 64 c0 34 -2 63 -5 63 -3 0 -5 -9 -5 -21z m-12 -31 c28
-28 -3 -83 -33 -58 -8 7 -15 20 -15 29 0 17 18 41 30 41 3 0 11 -5 18 -12z"/>
<path d="M3820 3839 c0 -60 2 -65 22 -66 30 -3 48 14 48 46 0 27 -16 51 -34
51 -5 0 -2 -6 8 -13 25 -18 18 -72 -9 -72 -17 0 -20 7 -22 53 -2 77 -13 77
-13 1z"/>
<path d="M0 3509 c0 -343 2 -381 16 -375 9 3 20 6 25 6 5 0 9 154 9 375 l0
375 -25 0 -25 0 0 -381z"/>
<path d="M978 3880 c-8 -26 7 -104 22 -107 12 -4 12 -2 2 5 -8 5 -12 26 -11
55 3 45 -5 71 -13 47z"/>
<path d="M1838 3880 c-8 -26 7 -104 22 -107 12 -4 12 -2 2 5 -8 5 -12 26 -11
55 3 45 -5 71 -13 47z"/>
<path d="M2038 3880 c-8 -26 7 -104 22 -107 12 -4 12 -2 2 5 -8 5 -12 26 -11
55 3 45 -5 71 -13 47z"/>
<path d="M2878 3879 c-8 -23 8 -103 20 -105 7 -1 8 0 2 3 -12 6 -13 80 -1 85
5 2 3 8 -4 15 -9 8 -15 9 -17 2z"/>
<path d="M4018 3879 c-8 -23 8 -103 20 -105 7 -1 8 0 2 3 -12 6 -13 80 -1 85
5 2 3 8 -4 15 -9 8 -15 9 -17 2z"/>
<path d="M4068 3879 c-8 -23 8 -103 20 -105 7 -1 8 0 2 3 -12 6 -13 80 -1 85
5 2 3 8 -4 15 -9 8 -15 9 -17 2z"/>
<path d="M313 3820 c0 -30 2 -43 4 -27 2 15 2 39 0 55 -2 15 -4 2 -4 -28z"/>
<path d="M363 3863 c-8 -3 -12 -22 -11 -51 l1 -47 6 45 c4 31 11 45 21 45 10
0 17 -14 20 -45 l6 -45 4 47 c6 54 -7 68 -47 51z"/>
<path d="M439 3861 c8 -5 18 -29 21 -53 l7 -43 2 41 c1 39 -12 64 -33 64 -6 0
-5 -4 3 -9z"/>
<path d="M513 3863 c-7 -2 -13 -12 -13 -21 0 -13 2 -13 14 3 12 16 16 17 30 6
20 -17 21 -45 1 -61 -12 -10 -18 -10 -30 0 -13 11 -15 7 -14 -26 2 -29 3 -32
6 -12 3 19 9 25 19 21 21 -8 44 16 44 46 0 41 -23 58 -57 44z"/>
<path d="M633 3859 c29 -83 31 -101 12 -115 -10 -8 -14 -14 -8 -14 6 0 15 6
20 13 13 16 46 117 41 123 -3 2 -11 -15 -18 -38 l-13 -43 -13 39 c-8 22 -17
42 -21 45 -3 3 -4 -1 0 -10z"/>
<path d="M788 3859 c-28 -16 -23 -67 7 -81 22 -10 29 -9 43 6 16 17 16 18 -5
5 -18 -10 -24 -10 -37 0 -25 21 -19 31 19 31 36 0 46 15 23 38 -14 14 -27 15
-50 1z m36 -5 c26 -10 18 -24 -14 -24 -30 0 -41 14 -17 23 6 3 13 6 14 6 1 1
8 -2 17 -5z"/>
<path d="M893 3863 c-8 -3 -12 -22 -11 -51 l1 -47 4 40 c3 22 8 44 13 49 16
16 40 -15 42 -53 1 -36 1 -36 5 -4 7 53 -17 82 -54 66z"/>
<path d="M1038 3859 c-28 -16 -23 -67 7 -81 22 -10 29 -9 43 6 16 17 16 18 -5
5 -18 -10 -24 -10 -37 0 -25 21 -19 31 19 31 36 0 46 15 23 38 -14 14 -27 15
-50 1z m36 -5 c26 -10 18 -24 -14 -24 -30 0 -41 14 -17 23 6 3 13 6 14 6 1 1
8 -2 17 -5z"/>
<path d="M1143 3863 c-8 -3 -12 -22 -11 -51 l1 -47 4 40 c2 22 11 46 20 53 17
12 9 15 -14 5z"/>
<path d="M1233 3859 c29 -83 31 -101 12 -115 -10 -8 -14 -14 -8 -14 6 0 15 6
20 13 13 16 46 117 41 123 -3 2 -11 -15 -18 -38 l-13 -43 -13 39 c-8 22 -17
42 -21 45 -3 3 -4 -1 0 -10z"/>
<path d="M1338 3859 c-28 -16 -23 -67 7 -81 31 -14 55 3 55 41 0 44 -27 61
-62 40z m40 -11 c28 -28 -3 -83 -33 -58 -8 7 -15 20 -15 29 0 17 18 41 30 41
3 0 11 -5 18 -12z"/>
<path d="M1543 3863 c-8 -3 -12 -22 -11 -51 l1 -47 4 40 c2 22 11 46 20 53 17
12 9 15 -14 5z"/>
<path d="M1642 3858 c-17 -17 -15 -63 3 -78 18 -15 55 -4 55 18 0 13 -2 13
-14 -3 -12 -16 -16 -17 -30 -6 -9 7 -16 21 -16 31 0 10 7 24 16 31 14 11 18
10 30 -6 11 -15 14 -16 14 -3 0 26 -38 36 -58 16z"/>
<path d="M1739 3854 c-13 -16 -12 -16 8 -4 18 12 24 12 39 -1 15 -12 17 -12
12 1 -7 22 -42 24 -59 4z"/>
<path d="M1889 3854 c-13 -16 -12 -16 8 -4 18 12 24 12 39 -1 15 -12 17 -12
12 1 -7 22 -42 24 -59 4z"/>
<path d="M2198 3859 c-28 -16 -23 -67 7 -81 22 -10 29 -9 43 6 16 17 16 18 -5
5 -18 -10 -24 -10 -37 0 -25 21 -19 31 19 31 36 0 46 15 23 38 -14 14 -27 15
-50 1z m36 -5 c26 -10 18 -24 -14 -24 -30 0 -41 14 -17 23 6 3 13 6 14 6 1 1
8 -2 17 -5z"/>
<path d="M2303 3863 c-8 -3 -12 -22 -11 -51 l1 -47 4 40 c3 22 8 44 13 49 16
16 40 -15 42 -53 1 -36 1 -36 5 -4 7 53 -17 82 -54 66z"/>
<path d="M2453 3863 c-7 -2 -13 -12 -13 -21 0 -13 2 -13 14 3 12 16 16 17 30
6 20 -17 21 -45 1 -61 -12 -10 -18 -10 -30 0 -13 11 -15 7 -14 -26 2 -29 3
-32 6 -12 3 19 9 25 19 21 21 -8 44 16 44 46 0 41 -23 58 -57 44z"/>
<path d="M2544 3825 c1 -49 1 -50 34 -50 l32 -1 -2 51 c-1 42 -2 44 -5 13 -4
-39 -28 -67 -43 -52 -5 5 -11 27 -13 49 -3 33 -4 31 -3 -10z"/>
<path d="M2645 3860 c-3 -6 1 -7 10 -4 8 4 22 1 30 -6 9 -7 15 -8 15 -2 0 19
-45 29 -55 12z"/>
<path d="M2773 3859 c11 -7 18 -24 19 -52 l1 -42 4 38 c4 38 -9 67 -31 67 -6
0 -3 -5 7 -11z"/>
<path d="M2973 3859 c11 -7 18 -24 19 -52 l1 -42 4 38 c4 38 -9 67 -31 67 -6
0 -3 -5 7 -11z"/>
<path d="M3043 3862 c-21 -13 -26 -58 -8 -76 9 -9 20 -16 25 -16 17 0 40 12
40 21 0 5 -9 4 -21 -3 -17 -11 -22 -10 -35 7 -14 19 -13 20 20 23 37 3 46 18
24 40 -14 14 -28 15 -45 4z m45 -19 c2 -8 -6 -13 -22 -13 -25 0 -33 10 -19 24
10 10 36 3 41 -11z"/>
<path d="M3193 3862 c-21 -13 -26 -58 -8 -76 9 -9 20 -16 25 -16 17 0 40 12
40 21 0 5 -9 4 -21 -3 -17 -11 -22 -10 -35 7 -14 19 -13 20 20 23 37 3 46 18
24 40 -14 14 -28 15 -45 4z m45 -19 c2 -8 -6 -13 -22 -13 -25 0 -33 10 -19 24
10 10 36 3 41 -11z"/>
<path d="M3280 3820 c0 -29 2 -51 4 -49 8 8 10 88 3 95 -4 4 -7 -17 -7 -46z"/>
<path d="M3323 3859 c11 -7 18 -24 19 -52 l1 -42 4 38 c4 38 -9 67 -31 67 -6
0 -3 -5 7 -11z"/>
<path d="M3393 3862 c-12 -8 -18 -31 -15 -64 4 -34 72 -30 72 4 0 5 -7 2 -16
-6 -21 -21 -31 -20 -44 4 -8 14 -8 26 0 40 12 23 30 26 50 8 12 -11 12 -10 1
5 -14 18 -29 21 -48 9z"/>
<path d="M3476 3854 c-9 -8 -16 -24 -16 -34 0 -21 25 -50 44 -50 20 0 36 22
36 50 0 46 -34 64 -64 34z m52 -32 c2 -22 -2 -34 -12 -38 -34 -13 -61 37 -34
64 21 21 43 9 46 -26z"/>
<path d="M3683 3862 c-21 -13 -26 -58 -8 -76 9 -9 20 -16 25 -16 17 0 40 12
40 21 0 5 -9 4 -21 -3 -17 -11 -22 -10 -35 7 -14 19 -13 20 20 23 37 3 46 18
24 40 -14 14 -28 15 -45 4z m45 -19 c2 -8 -6 -13 -22 -13 -25 0 -33 10 -19 24
10 10 36 3 41 -11z"/>
<path d="M3924 3825 c1 -49 1 -50 34 -50 l32 -1 -2 51 c-1 42 -2 44 -5 13 -4
-39 -28 -67 -43 -52 -5 5 -11 27 -13 49 -3 33 -4 31 -3 -10z"/>
<path d="M4126 3854 c-9 -8 -16 -24 -16 -34 0 -21 25 -50 44 -50 20 0 36 22
36 50 0 46 -34 64 -64 34z m52 -32 c2 -22 -2 -34 -12 -38 -34 -13 -61 37 -34
64 21 21 43 9 46 -26z"/>
<path d="M4220 3820 c0 -29 2 -51 4 -49 8 8 10 88 3 95 -4 4 -7 -17 -7 -46z"/>
<path d="M4263 3859 c11 -7 18 -24 19 -52 l1 -42 4 38 c4 38 -9 67 -31 67 -6
0 -3 -5 7 -11z"/>
<path d="M2640 3831 c0 -5 11 -12 25 -15 14 -4 25 -11 25 -17 0 -17 -29 -22
-48 -8 -15 13 -16 12 -3 -4 19 -24 55 -18 59 9 2 16 -4 24 -27 32 -17 6 -31 7
-31 3z"/>
<path d="M1760 3821 c-16 -4 -25 -14 -25 -26 0 -16 7 -20 38 -20 34 -1 37 2
37 27 0 29 -6 31 -50 19z m22 -33 c-12 -12 -42 -4 -42 11 0 12 44 19 49 8 2
-5 -1 -13 -7 -19z"/>
<path d="M1910 3821 c-16 -4 -25 -14 -25 -26 0 -16 7 -20 38 -20 34 -1 37 2
37 27 0 29 -6 31 -50 19z m22 -33 c-12 -12 -42 -4 -42 11 0 12 44 19 49 8 2
-5 -1 -13 -7 -19z"/>
<path d="M1474 3793 c-10 -16 -13 -16 -29 -3 -16 13 -18 13 -13 0 2 -8 11 -16
19 -17 19 -4 42 12 38 26 -3 7 -9 4 -15 -6z"/>
<path d="M4320 3780 c0 -5 5 -10 10 -10 6 0 10 5 10 10 0 6 -4 10 -10 10 -5 0
-10 -4 -10 -10z"/>
<path d="M4240 3259 c0 -28 -1 -29 -16 -15 -8 9 -22 16 -29 16 -21 0 -45 -29
-45 -54 0 -31 24 -50 54 -42 20 5 23 3 19 -13 -7 -27 -35 -36 -49 -17 -16 23
-27 20 -14 -4 13 -24 37 -26 62 -3 17 15 18 14 18 -20 0 -21 5 -37 10 -37 6 0
10 43 10 110 0 67 -4 110 -10 110 -5 0 -10 -14 -10 -31z m-20 -49 c0 -16 -6
-30 -12 -33 -24 -8 -38 5 -38 33 0 16 6 30 13 33 23 8 37 -5 37 -33z"/>
<path d="M790 3235 c0 -22 -3 -25 -24 -19 -19 4 -28 0 -42 -21 -16 -25 -16
-30 -3 -54 11 -19 23 -26 47 -27 l32 -1 0 74 c0 40 -2 73 -5 73 -3 0 -5 -11
-5 -25z m-10 -44 c13 -26 13 -33 -4 -56 -12 -16 -16 -17 -30 -6 -19 16 -21 52
-4 69 17 17 26 15 38 -7z"/>
<path d="M897 3242 c-22 -24 -22 -95 -1 -116 32 -33 74 -13 74 35 0 32 -23 53
-50 46 -24 -6 -27 15 -4 34 14 11 18 10 30 -6 8 -10 17 -16 20 -12 10 10 -16
37 -36 37 -9 0 -24 -8 -33 -18z m51 -76 c4 -36 -12 -54 -33 -36 -18 15 -20 56
-2 63 22 9 32 1 35 -27z"/>
<path d="M1102 3190 l-2 -75 30 -2 c22 -2 34 4 45 21 29 44 -1 95 -46 81 -13
-5 -19 1 -22 22 -2 15 -5 -6 -5 -47z m56 8 c17 -17 15 -53 -4 -69 -14 -11 -18
-10 -30 6 -17 23 -17 30 -4 56 12 22 21 24 38 7z"/>
<path d="M1343 3253 c20 -2 37 -6 37 -9 0 -3 -7 -19 -17 -37 -20 -39 -34 -97
-23 -97 5 0 11 15 15 33 4 17 16 47 26 65 10 18 19 37 19 43 0 5 -21 8 -47 7
-44 -1 -45 -2 -10 -5z"/>
<path d="M1437 3242 c-23 -26 -22 -94 1 -115 35 -32 72 -14 72 34 0 35 -23 53
-55 45 -24 -6 -25 -5 -15 13 16 31 32 36 46 16 8 -10 17 -16 20 -12 10 10 -16
37 -36 37 -9 0 -24 -8 -33 -18z m51 -76 c4 -36 -12 -54 -33 -36 -18 15 -20 56
-2 63 22 9 32 1 35 -27z"/>
<path d="M1642 3248 c-17 -17 -15 -63 3 -78 8 -7 24 -10 35 -7 24 6 27 -15 4
-34 -14 -11 -18 -10 -30 6 -8 10 -17 16 -20 12 -10 -10 16 -37 37 -37 44 0 67
100 31 133 -22 20 -43 22 -60 5z m42 -4 c32 -12 15 -74 -19 -74 -14 0 -25 42
-15 60 12 22 12 22 34 14z"/>
<path d="M1744 3238 c-11 -29 -6 -128 7 -128 5 0 9 23 9 50 0 33 4 50 13 50 9
0 8 3 -2 9 -7 5 -10 14 -7 20 17 27 26 6 26 -57 l0 -69 32 -1 c42 -1 58 13 58
53 0 38 -21 60 -50 52 -16 -4 -20 0 -20 19 0 20 -5 24 -28 24 -20 0 -31 -7
-38 -22z m116 -47 c13 -26 13 -33 -4 -56 -12 -16 -16 -17 -30 -6 -19 16 -21
52 -4 69 17 17 26 15 38 -7z"/>
<path d="M1949 3248 c-1 -7 -1 -30 0 -50 2 -33 0 -38 -19 -38 -22 0 -22 1 -5
26 9 14 15 28 12 30 -2 3 -14 -10 -25 -28 l-21 -33 29 -3 c22 -2 30 -9 30 -23
0 -10 5 -19 10 -19 6 0 10 9 10 19 0 11 6 22 13 24 10 4 10 6 0 6 -9 1 -13 18
-13 51 0 28 -4 50 -10 50 -5 0 -11 -6 -11 -12z"/>
<path d="M2042 3237 c-23 -24 -32 -51 -10 -29 21 21 27 13 31 -45 3 -52 3 -50
5 20 1 42 1 77 -1 77 -2 0 -13 -10 -25 -23z"/>
<path d="M2130 3233 c-24 -25 -24 -25 -3 -19 21 7 22 3 26 -51 3 -53 3 -51 5
20 1 42 1 77 0 76 -2 -1 -14 -12 -28 -26z"/>
<path d="M2210 3187 l0 -74 32 -1 c42 -1 58 13 58 53 0 38 -21 60 -50 52 -16
-4 -20 0 -20 19 0 13 -4 24 -10 24 -6 0 -10 -31 -10 -73z m70 4 c13 -26 13
-33 -4 -56 -12 -16 -16 -17 -30 -6 -19 16 -21 52 -4 69 17 17 26 15 38 -7z"/>
<path d="M2434 3236 c-15 -24 -15 -28 1 -52 13 -20 22 -24 41 -20 28 7 33 -14
9 -34 -13 -10 -19 -9 -37 6 -14 13 -19 14 -16 5 2 -8 12 -19 21 -25 25 -16 50
4 61 46 18 72 -43 129 -80 74z m54 2 c28 -28 -3 -83 -33 -58 -8 7 -15 20 -15
29 0 17 18 41 30 41 3 0 11 -5 18 -12z"/>
<path d="M2568 3253 c17 -2 32 -6 32 -8 0 -1 -9 -22 -20 -46 -11 -24 -19 -55
-19 -69 0 -17 6 -8 20 29 10 30 26 62 34 71 23 26 19 30 -32 28 -37 -1 -40 -2
-15 -5z"/>
<path d="M2651 3190 l-1 -76 32 1 c26 0 36 6 46 28 12 24 11 31 -3 53 -13 20
-22 24 -40 20 -20 -5 -24 -2 -28 21 -2 16 -5 -6 -6 -47z m57 8 c30 -30 -1 -94
-33 -68 -25 20 -13 80 15 80 3 0 11 -5 18 -12z"/>
<path d="M2760 3240 c-13 -24 -2 -27 14 -4 7 9 18 12 29 8 21 -8 22 -30 1 -42
-15 -8 -15 -10 0 -15 9 -4 16 -17 16 -31 0 -31 -30 -43 -47 -20 -7 10 -16 14
-20 11 -4 -4 1 -15 10 -24 13 -13 23 -15 44 -7 29 10 40 34 27 62 -4 9 -6 28
-5 41 5 41 -50 57 -69 21z"/>
<path d="M2860 3187 l0 -74 32 -1 c42 -1 58 13 58 53 0 38 -21 60 -50 52 -16
-4 -20 0 -20 19 0 13 -4 24 -10 24 -6 0 -10 -31 -10 -73z m70 4 c13 -26 13
-33 -4 -56 -12 -16 -16 -17 -30 -6 -19 16 -21 52 -4 69 17 17 26 15 38 -7z"/>
<path d="M2986 3244 c-10 -9 -16 -33 -16 -59 0 -68 43 -98 74 -53 30 42 10
128 -29 128 -7 0 -21 -7 -29 -16z m42 -6 c29 -29 4 -133 -27 -114 -16 10 -23
69 -12 99 12 30 21 33 39 15z"/>
<path d="M3150 3234 c0 -21 -3 -24 -20 -19 -29 9 -50 -12 -50 -50 0 -39 17
-56 54 -53 26 2 26 4 26 75 0 40 -2 73 -5 73 -3 0 -5 -12 -5 -26z m-12 -36
c17 -17 15 -53 -4 -69 -14 -11 -18 -10 -30 6 -8 10 -14 26 -14 35 0 16 18 40
30 40 3 0 11 -5 18 -12z"/>
<path d="M3211 3209 c-17 -28 -31 -52 -31 -55 0 -2 14 -4 30 -4 23 0 30 -4 30
-20 0 -11 5 -20 10 -20 6 0 10 9 10 19 0 11 6 22 13 24 10 4 10 6 0 6 -9 1
-13 18 -13 51 0 28 -4 50 -9 50 -4 0 -22 -23 -40 -51z m29 -19 c0 -23 -4 -30
-20 -30 -24 0 -25 4 -4 35 21 32 24 31 24 -5z"/>
<path d="M3312 3248 c-15 -15 -16 -48 0 -48 6 0 3 -9 -8 -21 -20 -22 -13 -43
19 -63 34 -21 77 38 49 66 -7 7 -7 16 1 28 21 35 -32 67 -61 38z m46 -21 c4
-22 -27 -35 -38 -16 -10 15 7 42 24 36 6 -2 12 -11 14 -20z m6 -60 c16 -25
-16 -56 -38 -37 -19 15 -20 32 -4 48 15 15 28 11 42 -11z"/>
<path d="M3411 3190 l-1 -76 32 1 c26 0 36 6 46 28 12 24 11 31 -3 53 -13 20
-22 24 -40 20 -20 -5 -24 -2 -28 21 -2 16 -5 -6 -6 -47z m57 8 c30 -30 -1 -94
-33 -68 -25 20 -13 80 15 80 3 0 11 -5 18 -12z"/>
<path d="M3538 3253 c36 -5 38 -12 18 -51 -20 -40 -30 -92 -17 -92 6 0 11 11
11 24 0 12 11 44 25 70 14 26 25 49 25 52 0 2 -21 3 -47 2 -37 -1 -40 -2 -15
-5z"/>
<path d="M3636 3244 c-36 -35 -9 -92 38 -80 20 5 23 3 19 -13 -7 -27 -35 -36
-49 -17 -16 23 -27 20 -14 -4 25 -47 80 -8 80 58 0 41 -19 72 -45 72 -7 0 -21
-7 -29 -16z m54 -34 c0 -16 -6 -30 -12 -33 -24 -8 -38 5 -38 33 0 16 6 30 13
33 23 8 37 -5 37 -33z"/>
<path d="M3762 3237 c-23 -24 -32 -51 -10 -29 21 21 27 13 31 -45 3 -52 3 -50
5 20 1 42 1 77 -1 77 -2 0 -13 -10 -25 -23z"/>
<path d="M3978 3253 c17 -2 32 -6 32 -8 0 -1 -9 -22 -20 -46 -11 -24 -19 -55
-19 -69 0 -17 6 -8 20 29 10 30 26 62 34 71 23 26 19 30 -32 28 -37 -1 -40 -2
-15 -5z"/>
<path d="M250 3143 c0 -42 4 -73 10 -73 6 0 10 11 10 24 0 19 4 23 20 19 29
-8 50 14 50 52 0 40 -16 54 -58 53 l-32 -1 0 -74z m70 48 c13 -26 13 -33 -4
-56 -12 -16 -16 -17 -30 -6 -19 16 -21 52 -4 69 17 17 26 15 38 -7z"/>
<path d="M353 3206 c3 -8 11 -33 17 -55 13 -48 28 -53 37 -11 8 43 20 45 27 5
9 -46 23 -44 36 6 6 22 14 47 17 55 3 8 1 14 -5 14 -5 0 -13 -16 -16 -35 -8
-41 -21 -39 -29 5 -9 40 -25 38 -33 -5 -3 -19 -10 -35 -14 -35 -4 0 -11 16
-14 35 -4 19 -12 35 -18 35 -5 0 -8 -6 -5 -14z"/>
<path d="M500 3163 c0 -29 5 -53 10 -53 6 0 10 17 10 39 0 39 20 68 40 56 5
-3 10 -26 10 -51 0 -24 5 -44 10 -44 15 0 12 86 -3 98 -7 6 -27 10 -45 10 -32
-1 -32 -1 -32 -55z"/>
<path d="M622 3208 c-16 -16 -16 -70 0 -86 17 -17 53 -15 68 3 18 21 5 31 -15
12 -17 -18 -40 -13 -49 9 -4 11 4 14 34 14 32 0 40 4 40 18 0 24 -19 42 -45
42 -12 0 -26 -5 -33 -12z m58 -24 c0 -8 -10 -14 -25 -14 -26 0 -35 25 -12 33
18 6 37 -3 37 -19z"/>
<path d="M1002 3208 c-16 -16 -16 -70 0 -86 17 -17 53 -15 68 3 18 22 5 31
-15 11 -22 -21 -32 -20 -45 4 -10 18 -8 20 30 20 44 0 53 16 24 44 -18 19 -45
21 -62 4z m42 -4 c25 -10 19 -34 -9 -34 -24 0 -34 18 -18 33 8 8 8 8 27 1z"/>
<path d="M1216 3198 c-21 -29 -20 -41 2 -68 14 -18 25 -22 45 -16 16 4 27 13
27 23 0 14 -2 14 -20 -2 -16 -15 -22 -15 -35 -5 -25 21 -17 30 25 30 22 0 40
3 40 8 0 18 -33 52 -50 52 -10 0 -26 -10 -34 -22z m52 0 c19 -19 14 -28 -18
-28 -16 0 -30 4 -30 8 0 9 21 32 30 32 3 0 11 -5 18 -12z"/>
<path d="M1546 3204 c-30 -30 -10 -94 29 -94 16 0 48 30 41 37 -3 3 -13 -2
-22 -11 -24 -24 -39 -15 -42 26 -4 41 18 57 43 32 13 -13 15 -13 15 -1 0 14
-20 27 -40 27 -5 0 -16 -7 -24 -16z"/>
<path d="M2332 3208 c-7 -7 -12 -26 -12 -43 0 -17 5 -36 12 -43 17 -17 53 -15
68 3 18 22 5 31 -15 11 -22 -21 -32 -20 -45 4 -10 18 -8 20 30 20 44 0 53 16
24 44 -18 19 -45 21 -62 4z m42 -4 c25 -10 19 -34 -9 -34 -24 0 -34 18 -18 33
8 8 8 8 27 1z"/>
<path d="M3853 3214 c-7 -3 -13 -10 -13 -15 0 -6 9 -5 21 2 17 9 25 8 37 -5
15 -14 13 -16 -16 -22 -67 -14 -64 -66 5 -61 l34 2 -3 50 c-3 45 -5 50 -28 52
-14 1 -31 -1 -37 -3z m51 -68 c-7 -19 -35 -29 -47 -17 -14 14 1 31 28 31 17 0
23 -4 19 -14z"/>
<path d="M4066 3198 c-9 -12 -16 -30 -16 -39 0 -20 31 -49 52 -49 18 0 44 28
34 37 -3 4 -12 -2 -20 -12 -12 -16 -16 -17 -30 -6 -9 7 -16 24 -16 36 0 12 7
29 16 36 14 11 18 10 30 -6 8 -10 17 -16 20 -12 10 10 -16 37 -37 37 -10 0
-25 -10 -33 -22z"/>
<path d="M830 3200 c0 -5 5 -10 10 -10 6 0 10 5 10 10 0 6 -4 10 -10 10 -5 0
-10 -4 -10 -10z"/>
<path d="M830 3120 c0 -5 5 -10 10 -10 6 0 10 5 10 10 0 6 -4 10 -10 10 -5 0
-10 -4 -10 -10z"/>
<path d="M17 1659 c-16 -9 -17 -60 -17 -834 l0 -825 25 0 25 0 0 835 c0 459
-3 835 -7 835 -5 0 -16 -5 -26 -11z"/>
<path d="M10502 167 c-29 -29 -50 -56 -47 -58 4 -5 115 98 115 108 0 12 -23
-4 -68 -50z"/>
<path d="M10532 137 c-30 -32 -17 -41 14 -10 13 13 24 26 24 28 0 12 -18 3
-38 -18z"/>
</g>
</svg>
