<?xml version="1.0" standalone="no"?>
<!DOCTYPE svg PUBLIC "-//W3C//DTD SVG 20010904//EN"
 "http://www.w3.org/TR/2001/REC-SVG-20010904/DTD/svg10.dtd">
<svg version="1.0" xmlns="http://www.w3.org/2000/svg"
 width="1103.000000pt" height="325.000000pt" viewBox="0 0 1103.000000 325.000000"
 preserveAspectRatio="xMidYMid meet">

<g transform="translate(0.000000,325.000000) scale(0.100000,-0.100000)"
fill="#000000" stroke="none">
<path d="M0 1625 l0 -1625 5515 0 5515 0 0 1625 0 1625 -5515 0 -5515 0 0
-1625z m3605 1560 c0 -13 -8 -21 -22 -23 -17 -3 -23 2 -23 16 0 10 3 22 7 26
13 13 38 1 38 -19z m-2987 -10 c2 -18 -2 -20 -42 -17 -62 5 -96 -27 -96 -91 0
-62 31 -90 94 -85 38 2 46 0 46 -13 0 -32 -80 -40 -130 -14 -86 44 -76 197 15
236 11 4 40 7 65 6 37 -2 46 -6 48 -22z m612 -30 c0 -18 5 -25 20 -25 11 0 20
-7 20 -15 0 -8 -9 -15 -20 -15 -19 0 -21 -5 -18 -57 2 -48 6 -58 21 -57 11 1
17 -5 17 -18 0 -16 -6 -19 -32 -16 -40 4 -58 34 -58 101 0 35 -4 47 -15 47 -8
0 -15 7 -15 15 0 8 7 15 15 15 8 0 15 9 15 19 0 19 12 29 38 30 6 1 12 -10 12
-24z m2480 0 c0 -18 5 -25 20 -25 11 0 20 -7 20 -15 0 -8 -9 -15 -20 -15 -19
0 -21 -5 -18 -57 2 -48 6 -58 21 -57 11 1 17 -5 17 -18 0 -16 -6 -19 -32 -16
-40 4 -58 34 -58 101 0 35 -4 47 -15 47 -8 0 -15 7 -15 15 0 8 7 15 15 15 8 0
15 9 15 19 0 19 12 29 38 30 6 1 12 -10 12 -24z m-3000 -37 c0 -9 3 -9 12 0
21 21 48 14 48 -13 0 -18 -4 -23 -15 -19 -29 12 -45 -16 -45 -77 0 -56 -1 -59
-25 -59 -25 0 -25 1 -25 90 0 89 0 90 25 90 14 0 25 -5 25 -12z m219 -14 c12
-15 21 -37 21 -50 0 -23 -4 -24 -60 -24 -47 0 -60 -3 -60 -15 0 -25 45 -40 75
-27 34 16 35 15 35 -7 0 -22 -19 -31 -65 -31 -47 0 -64 8 -80 41 -23 43 -18
77 14 110 39 39 91 40 120 3z m181 6 c16 -16 20 -33 20 -90 0 -68 -1 -70 -25
-70 -14 0 -25 5 -25 12 0 9 -3 9 -12 0 -28 -28 -98 -1 -98 38 0 25 33 50 74
57 21 3 36 11 36 20 0 20 -26 27 -60 15 -26 -10 -30 -9 -30 8 0 22 13 28 63
29 24 1 44 -6 57 -19z m319 3 c11 -10 24 -33 27 -50 l7 -33 -67 0 c-63 0 -66
-1 -56 -20 13 -25 52 -35 79 -20 18 9 21 8 21 -9 0 -39 -88 -44 -125 -6 -76
75 32 205 114 138z m285 1 c12 -11 16 -36 16 -90 0 -67 -2 -74 -20 -74 -11 0
-20 5 -20 10 0 7 -6 7 -19 0 -26 -14 -64 -13 -79 2 -16 16 -15 63 1 76 7 6 32
14 55 18 45 7 51 14 27 34 -14 12 -29 11 -67 -5 -13 -5 -18 -2 -18 8 0 36 94
51 124 21z m209 4 c4 -10 7 -10 18 0 18 17 59 15 81 -5 14 -13 18 -31 18 -90
0 -66 -2 -73 -20 -73 -18 0 -20 7 -20 59 0 57 -15 91 -40 91 -21 0 -40 -47
-40 -97 0 -46 -3 -53 -20 -53 -19 0 -20 7 -20 90 0 82 2 90 19 90 11 0 21 -6
24 -12z m287 2 c16 -8 40 -58 40 -81 0 -5 -29 -9 -65 -9 -70 0 -80 -10 -39
-37 21 -13 32 -15 55 -6 25 10 29 9 29 -7 0 -38 -88 -42 -125 -5 -54 53 -18
155 55 155 17 0 40 -4 50 -10z m108 -52 c8 -32 17 -56 21 -53 4 2 13 29 20 60
11 48 16 55 36 55 20 0 25 -7 36 -55 7 -31 16 -58 19 -60 4 -3 13 22 19 55 10
49 16 60 32 60 24 0 24 -9 -4 -100 -20 -67 -26 -75 -47 -75 -22 0 -27 7 -41
60 l-17 60 -17 -62 c-16 -54 -22 -63 -41 -63 -20 0 -26 11 -48 84 -31 101 -31
98 -4 94 18 -2 25 -14 36 -60z m382 50 c0 -9 3 -9 12 0 21 21 48 14 48 -13 0
-18 -4 -23 -15 -19 -29 12 -45 -16 -45 -77 0 -56 -1 -59 -25 -59 -25 0 -25 1
-25 90 0 89 0 90 25 90 14 0 25 -5 25 -12z m209 -5 c11 -10 24 -33 27 -50 l7
-33 -67 0 c-63 0 -66 -1 -56 -20 13 -25 52 -35 79 -20 18 9 21 8 21 -9 0 -39
-88 -44 -125 -6 -76 75 32 205 114 138z m111 8 c0 -5 12 -5 28 1 61 23 102
-13 102 -88 0 -62 -79 -111 -118 -72 -9 9 -12 0 -12 -40 0 -49 -2 -52 -25 -52
l-25 0 0 130 0 130 25 0 c14 0 25 -4 25 -9z m314 -12 c21 -17 26 -29 26 -65 0
-61 -32 -94 -90 -94 -56 0 -90 34 -90 90 0 80 89 120 154 69z m176 3 c0 -13
-8 -17 -32 -17 -44 0 -43 -23 2 -44 71 -33 42 -105 -41 -99 -36 2 -45 7 -47
25 -3 20 -1 21 26 11 54 -21 87 12 35 34 -64 27 -77 54 -43 88 27 27 100 29
100 2z m100 -72 c0 -89 0 -90 -25 -90 -25 0 -25 1 -25 90 0 89 0 90 25 90 25
0 25 -1 25 -90z m317 66 c22 -19 28 -32 28 -66 0 -34 -6 -47 -28 -66 -63 -54
-157 -16 -157 63 0 21 6 45 13 54 34 44 101 52 144 15z m113 12 c0 -9 3 -9 12
0 21 21 48 14 48 -13 0 -16 -4 -23 -14 -19 -26 10 -46 -25 -46 -82 0 -47 -2
-54 -20 -54 -19 0 -20 7 -20 90 0 83 1 90 20 90 11 0 20 -5 20 -12z m146 -45
c9 -32 19 -62 22 -67 3 -6 15 19 27 55 17 51 26 65 45 67 19 3 22 0 16 -15
-79 -214 -97 -243 -141 -243 -18 0 -25 5 -25 20 0 13 7 20 20 20 41 0 43 34 5
127 -19 48 -35 88 -35 90 0 2 11 3 25 3 21 0 27 -7 41 -57z m-1606 -403 c0
-47 -4 -80 -10 -80 -6 0 -10 33 -10 80 0 47 4 80 10 80 6 0 10 -33 10 -80z
m50 0 c0 -47 -4 -80 -10 -80 -6 0 -10 33 -10 80 0 47 4 80 10 80 6 0 10 -33
10 -80z m430 70 c0 -5 -4 -10 -10 -10 -5 0 -10 5 -10 10 0 6 5 10 10 10 6 0
10 -4 10 -10z m408 -1 c-21 -12 -24 -39 -5 -40 10 0 10 -2 0 -6 -8 -3 -14 -26
-15 -56 l-1 -52 -4 45 c-3 24 -9 50 -15 57 -7 9 -7 13 1 13 6 0 11 8 11 18 0
23 9 32 29 32 14 -1 13 -2 -1 -11z m92 -69 c0 -47 -4 -80 -10 -80 -6 0 -10 33
-10 80 0 47 4 80 10 80 6 0 10 -33 10 -80z m620 0 c0 -47 -4 -80 -10 -80 -6 0
-10 33 -10 80 0 47 4 80 10 80 6 0 10 -33 10 -80z m239 -2 c0 -46 -3 -78 -6
-71 -3 10 -9 10 -24 0 -27 -17 -53 2 -57 40 -4 39 22 67 54 59 21 -6 24 -3 24
24 0 16 2 30 5 30 3 0 5 -37 4 -82z m486 22 c8 6 23 9 35 5 17 -5 20 -14 18
-58 l-2 -52 -3 47 c-7 78 -58 74 -66 -5 -2 -23 -4 -4 -4 43 0 47 2 68 4 47 4
-31 7 -36 18 -27z m1060 0 c8 6 23 9 35 5 17 -5 20 -14 18 -58 l-2 -52 -3 47
c-7 78 -58 74 -66 -5 -2 -23 -4 -4 -4 43 0 47 2 68 4 47 4 -31 7 -36 18 -27z
m852 -62 c-2 -24 -4 -5 -4 42 0 47 2 66 4 43 2 -24 2 -62 0 -85z m413 40 c0
-50 -4 -78 -9 -69 -6 9 -11 10 -15 2 -18 -28 -66 4 -66 43 0 31 33 60 59 51
18 -5 21 -2 21 24 0 17 2 31 5 31 3 0 5 -37 5 -82z m225 22 c8 6 23 9 35 5 17
-5 20 -14 18 -58 l-2 -52 -3 47 c-7 78 -58 74 -66 -5 -2 -23 -4 -4 -4 43 0 47
2 68 4 47 4 -31 7 -36 18 -27z m1875 50 c0 -5 -4 -10 -10 -10 -5 0 -10 5 -10
10 0 6 5 10 10 10 6 0 10 -4 10 -10z m577 -112 c-2 -24 -4 -5 -4 42 0 47 2 66
4 43 2 -24 2 -62 0 -85z m418 62 c8 6 23 9 35 5 17 -5 20 -14 18 -58 l-2 -52
-3 47 c-7 78 -58 74 -66 -5 -2 -23 -4 -4 -4 43 0 47 2 68 4 47 4 -31 7 -36 18
-27z m-9807 -23 c25 -67 28 -95 6 -54 -20 37 -71 39 -80 2 -3 -14 -10 -25 -15
-25 -7 0 32 118 48 143 8 13 17 -2 41 -66z m6234 1 c27 -70 31 -107 7 -54 -17
37 -63 36 -84 -1 -15 -27 -16 -27 -9 -3 4 14 13 39 20 55 8 18 12 21 8 8 -4
-19 -1 -23 20 -23 29 0 31 6 15 47 -8 22 -12 24 -19 13 -11 -17 -13 -9 -4 14
11 28 19 18 46 -56z m4017 53 c8 -14 6 -25 -8 -42 -10 -13 -21 -31 -24 -39 -5
-13 -6 -13 -6 0 -1 9 6 26 15 38 20 29 11 56 -16 49 -11 -3 -18 -1 -14 4 9 16
43 10 53 -10z m-9535 -23 c8 -5 7 -8 -1 -8 -9 0 -13 -16 -13 -44 0 -26 5 -46
13 -49 7 -4 8 -6 1 -6 -20 -2 -33 24 -35 70 -3 48 10 86 19 59 3 -8 10 -18 16
-22z m764 1 c15 -1 15 -2 0 -6 -13 -3 -18 -15 -18 -43 0 -26 6 -43 18 -50 15
-10 15 -10 -3 -8 -16 3 -21 12 -23 48 -2 25 -9 48 -15 52 -9 6 -9 8 1 8 6 0
13 8 13 18 1 16 2 16 6 0 2 -10 12 -19 21 -19z m1336 -1 c8 -5 7 -8 -1 -8 -17
0 -17 -72 -1 -88 9 -9 9 -12 0 -12 -17 0 -31 31 -33 76 -3 43 11 80 19 54 3
-8 10 -18 16 -22z m1510 0 c8 -5 7 -8 -1 -8 -17 0 -17 -72 -1 -88 9 -9 9 -12
0 -12 -17 0 -31 31 -33 76 -3 43 11 80 19 54 3 -8 10 -18 16 -22z m1390 0 c8
-5 7 -8 -1 -8 -17 0 -17 -72 -1 -88 9 -9 9 -12 0 -12 -17 0 -31 31 -33 76 -3
43 11 80 19 54 3 -8 10 -18 16 -22z m2464 1 c15 -1 15 -2 0 -6 -13 -3 -18 -15
-18 -43 0 -26 6 -43 18 -50 15 -10 15 -10 -3 -8 -16 3 -21 12 -23 48 -2 25 -9
48 -15 52 -9 6 -9 8 1 8 6 0 13 8 13 18 1 16 2 16 6 0 2 -10 12 -19 21 -19z
m700 0 c15 -1 15 -2 0 -6 -13 -3 -18 -15 -18 -43 0 -26 6 -43 18 -50 15 -10
15 -10 -3 -8 -16 3 -21 12 -23 48 -2 25 -9 48 -15 52 -9 6 -9 8 1 8 6 0 13 8
13 18 1 16 2 16 6 0 2 -10 12 -19 21 -19z m-8744 -10 c9 13 26 15 26 2 0 -5
-9 -11 -19 -14 -15 -4 -21 -16 -24 -48 -3 -38 -4 -35 -5 16 -1 37 2 55 7 46 6
-9 11 -10 15 -2z m114 -1 c23 -23 13 -38 -23 -38 -28 0 -35 -4 -35 -19 0 -22
22 -33 48 -24 13 5 14 3 6 -6 -17 -19 -46 -9 -63 20 -13 24 -13 29 2 53 19 28
45 34 65 14z m73 5 c23 14 52 0 57 -27 10 -50 -31 -93 -63 -66 -11 9 -14 4
-18 -27 -2 -21 -4 0 -5 47 0 47 2 80 5 73 3 -10 9 -10 24 0z m175 -18 c14 -21
15 -31 6 -51 -15 -31 -37 -40 -68 -26 -17 9 -24 20 -24 41 0 58 56 81 86 36z
m94 14 c0 -5 -4 -8 -9 -5 -5 4 -17 3 -27 -1 -14 -5 -12 -10 17 -34 29 -23 31
-29 20 -43 -15 -18 -47 -21 -57 -5 -4 7 0 9 14 5 33 -11 37 14 6 39 -25 20
-27 25 -15 39 15 18 51 22 51 5z m47 -71 c-2 -18 -4 -6 -4 27 0 33 2 48 4 33
2 -15 2 -42 0 -60z m187 66 c21 -20 20 -53 -1 -76 -20 -22 -41 -23 -65 -1 -22
20 -23 51 -1 75 20 22 46 23 67 2z m80 5 c9 8 16 10 16 6 0 -4 -7 -13 -16 -20
-9 -6 -20 -29 -24 -51 -7 -36 -8 -35 -9 21 0 40 2 55 8 46 8 -12 12 -12 25 -2z
m56 -39 c15 -45 22 -43 40 13 7 21 14 36 16 34 7 -7 -46 -141 -59 -149 -23
-15 -27 -8 -7 12 25 25 25 23 0 88 -11 30 -17 51 -12 48 5 -3 15 -23 22 -46z
m210 40 c0 -5 -7 -7 -15 -4 -21 8 -45 -14 -45 -41 0 -27 24 -49 45 -41 8 3 15
1 15 -4 0 -13 -26 -13 -51 0 -25 14 -26 75 -1 89 22 13 52 14 52 1z m101 0
c24 -13 26 -62 3 -85 -23 -22 -56 -15 -73 16 -13 24 -13 29 2 53 19 28 37 32
68 16z m130 -15 c11 -28 11 -85 0 -85 -6 0 -11 21 -13 47 -2 25 -7 48 -13 50
-21 6 -39 -17 -45 -59 l-7 -43 -2 55 -1 55 36 0 c28 0 39 -5 45 -20z m177 -30
l3 -51 -33 1 c-28 0 -33 4 -33 24 0 13 7 26 15 28 12 4 13 3 1 -5 -16 -12 -7
-46 11 -40 22 8 34 38 19 47 -11 7 -11 9 0 13 20 7 -1 30 -22 25 -11 -3 -16
-1 -13 5 3 5 16 8 27 6 19 -3 22 -11 25 -53z m49 -27 c-2 -18 -4 -6 -4 27 0
33 2 48 4 33 2 -15 2 -42 0 -60z m124 57 c11 -28 11 -85 0 -85 -6 0 -11 21
-13 47 -2 25 -7 48 -13 50 -21 6 -39 -17 -45 -59 l-7 -43 -2 55 -1 55 36 0
c28 0 39 -5 45 -20z m89 15 c0 -5 -6 -7 -14 -4 -28 11 -28 -18 0 -41 25 -20
27 -25 15 -39 -15 -18 -47 -21 -57 -5 -4 8 0 9 15 4 40 -12 46 7 10 35 -29 24
-31 30 -20 44 15 17 51 22 51 6z m158 -2 c7 -7 12 -30 12 -53 0 -43 -3 -44
-68 -37 -27 4 -8 45 27 57 28 9 31 13 18 23 -8 7 -23 9 -32 5 -13 -4 -16 -3
-11 5 9 15 39 15 54 0z m280 -1 c17 -11 15 -72 -3 -87 -8 -7 -25 -10 -39 -6
-22 5 -25 2 -29 -26 -2 -18 -5 3 -5 47 l-2 80 33 0 c17 0 38 -4 45 -8z m76 2
c9 13 26 15 26 2 0 -5 -9 -11 -19 -14 -15 -4 -21 -16 -24 -48 -3 -38 -4 -35
-5 16 -1 37 2 55 7 46 6 -9 11 -10 15 -2z m117 1 c24 -13 26 -62 3 -85 -23
-22 -56 -15 -73 16 -13 24 -13 29 2 53 19 28 37 32 68 16z m67 -61 c-5 -68
-16 -89 -43 -89 -5 1 -2 5 8 11 14 8 17 24 17 79 0 46 4 70 11 70 8 0 10 -22
7 -71z m100 59 c23 -23 13 -38 -23 -38 -23 0 -35 -5 -35 -14 0 -20 27 -39 45
-32 9 3 13 2 10 -4 -8 -14 -38 -13 -53 2 -18 18 -15 75 6 87 23 14 36 13 50
-1z m112 2 c0 -5 -7 -7 -15 -4 -21 8 -45 -14 -45 -41 0 -27 24 -49 45 -41 8 3
15 1 15 -4 0 -13 -26 -13 -51 0 -25 14 -26 75 -1 89 22 13 52 14 52 1z m240
-45 c0 -30 -4 -55 -10 -55 -5 0 -10 25 -10 55 0 30 5 55 10 55 6 0 10 -25 10
-55z m154 39 c25 -25 19 -34 -24 -34 -43 0 -49 -9 -24 -35 10 -10 24 -13 36
-9 14 4 18 2 14 -5 -10 -16 -42 -14 -60 5 -21 20 -20 53 1 76 20 22 37 23 57
2z m96 8 c0 -5 -10 -8 -21 -8 -32 1 -35 -22 -5 -34 44 -16 29 -60 -20 -60 -8
0 -14 4 -14 8 0 5 10 8 21 8 32 -1 35 22 5 35 -27 13 -35 44 -13 52 20 9 47 8
47 -1z m147 -74 c-2 -18 -4 -6 -4 27 0 33 2 48 4 33 2 -15 2 -42 0 -60z m68
72 c8 7 23 9 35 5 17 -5 20 -14 18 -58 l-2 -52 -3 47 c-7 78 -58 74 -66 -5 -3
-32 -4 -28 -4 18 -1 33 1 54 4 47 4 -10 8 -10 18 -2z m133 -1 c-48 -18 -48
-70 0 -88 21 -7 22 -10 8 -10 -26 -1 -56 27 -56 52 0 28 28 57 54 56 18 0 17
-2 -6 -10z m126 -77 c4 -7 15 -11 23 -8 8 3 11 1 8 -4 -10 -16 -34 -11 -45 9
-5 11 -9 37 -9 58 l2 38 6 -40 c4 -22 10 -46 15 -53z m53 6 c-2 -18 -4 -6 -4
27 0 33 2 48 4 33 2 -15 2 -42 0 -60z m180 0 c-2 -18 -4 -6 -4 27 0 33 2 48 4
33 2 -15 2 -42 0 -60z m68 72 c8 7 23 9 35 5 17 -5 20 -14 18 -58 l-2 -52 -3
47 c-7 78 -58 74 -66 -5 -3 -32 -4 -28 -4 18 -1 33 1 54 4 47 4 -10 8 -10 18
-2z m175 -62 c0 -56 -3 -69 -19 -78 -24 -12 -61 -13 -61 -1 0 5 9 7 20 4 25
-7 50 13 50 40 0 16 -3 18 -12 9 -16 -16 -33 -15 -52 4 -37 36 -8 95 44 91
l30 -2 0 -67z m358 60 c23 -23 13 -38 -23 -38 -28 0 -35 -4 -35 -19 0 -22 22
-33 48 -24 13 5 14 3 6 -6 -17 -19 -46 -9 -63 20 -13 24 -13 29 2 53 19 28 45
34 65 14z m126 1 c9 13 26 15 26 2 0 -5 -9 -11 -19 -14 -15 -4 -21 -16 -24
-48 -3 -38 -4 -35 -5 16 -1 37 2 55 7 46 6 -9 11 -10 15 -2z m114 -1 c23 -23
13 -38 -23 -38 -28 0 -35 -4 -35 -19 0 -22 22 -33 48 -24 13 5 14 3 6 -6 -17
-19 -46 -9 -63 20 -13 24 -13 29 2 53 19 28 45 34 65 14z m62 -55 c1 -28 20
-11 31 27 7 22 15 40 19 40 4 0 -1 -25 -13 -55 -11 -30 -23 -55 -26 -55 -8 0
-42 89 -40 105 1 13 28 -46 29 -62z m87 -15 c-2 -18 -4 -6 -4 27 0 33 2 48 4
33 2 -15 2 -42 0 -60z m93 72 c0 -5 -6 -7 -14 -4 -28 11 -28 -18 0 -41 25 -20
27 -25 15 -39 -15 -18 -47 -21 -57 -5 -4 8 0 9 15 4 40 -12 46 7 10 35 -29 24
-31 30 -20 44 15 17 51 22 51 6z m47 -72 c-2 -18 -4 -6 -4 27 0 33 2 48 4 33
2 -15 2 -42 0 -60z m114 72 c24 -13 26 -62 3 -85 -23 -22 -56 -15 -73 16 -13
24 -13 29 2 53 19 28 37 32 68 16z m69 -45 c0 -30 -4 -55 -10 -55 -5 0 -10 25
-10 55 0 30 5 55 10 55 6 0 10 -25 10 -55z m58 43 c14 -14 16 -98 3 -98 -6 0
-11 21 -13 48 -2 37 -6 47 -20 46 -10 -1 -15 2 -12 7 7 13 28 11 42 -3z m229
-70 c-2 -18 -4 -6 -4 27 0 33 2 48 4 33 2 -15 2 -42 0 -60z m93 72 c0 -5 -6
-7 -14 -4 -28 11 -28 -18 0 -41 25 -20 27 -25 15 -39 -15 -18 -47 -21 -57 -5
-4 8 0 9 15 4 40 -12 46 7 10 35 -29 24 -31 30 -20 44 15 17 51 22 51 6z m181
0 c24 -13 26 -62 3 -85 -23 -22 -56 -15 -73 16 -13 24 -13 29 2 53 19 28 37
32 68 16z m83 -1 c9 8 16 10 16 6 0 -4 -7 -13 -16 -20 -9 -6 -20 -29 -24 -51
-7 -36 -8 -35 -9 21 0 40 2 55 8 46 8 -12 12 -12 25 -2z m56 -39 c15 -45 22
-43 40 13 7 21 14 36 16 34 7 -7 -46 -141 -59 -149 -23 -15 -27 -8 -7 12 25
25 25 23 0 88 -11 30 -17 51 -12 48 5 -3 15 -23 22 -46z m404 39 c9 13 26 15
26 2 0 -5 -9 -11 -19 -14 -15 -4 -21 -16 -24 -48 -3 -38 -4 -35 -5 16 -1 37 2
55 7 46 6 -9 11 -10 15 -2z m114 -1 c23 -23 13 -38 -23 -38 -28 0 -35 -4 -35
-19 0 -22 22 -33 48 -24 13 5 14 3 6 -6 -17 -19 -46 -9 -63 20 -13 24 -13 29
2 53 19 28 45 34 65 14z m100 0 c7 -7 12 -30 12 -52 0 -38 -2 -41 -29 -43 -57
-4 -65 50 -10 62 38 9 32 31 -7 28 -22 -2 -25 0 -14 7 20 13 34 12 48 -2z
m193 -53 l11 -30 14 40 c8 22 19 44 25 50 12 12 -39 -125 -53 -142 -6 -7 -15
-13 -21 -13 -5 0 -2 9 8 20 17 19 18 26 7 63 -7 23 -15 51 -18 62 l-5 20 11
-20 c5 -11 15 -33 21 -50z m317 53 c7 -7 12 -30 12 -53 0 -43 -3 -44 -68 -37
-27 4 -8 45 27 57 28 9 31 13 18 23 -8 7 -23 9 -32 5 -13 -4 -16 -3 -11 5 9
15 39 15 54 0z m62 -43 c14 -43 14 -43 40 29 6 16 13 26 16 24 7 -8 -31 -99
-41 -99 -7 0 -45 85 -45 101 0 14 20 -21 30 -55z m148 43 c23 -23 13 -38 -23
-38 -23 0 -35 -5 -35 -14 0 -22 27 -38 52 -32 l23 6 -23 -12 c-32 -16 -56 0
-60 39 -5 47 37 80 66 51z m170 -43 l3 -51 -33 1 c-28 0 -33 4 -33 24 0 13 7
26 15 28 12 4 13 3 1 -5 -16 -12 -7 -46 11 -40 22 8 34 38 19 47 -11 7 -11 9
0 13 20 7 -1 30 -22 25 -11 -3 -16 -1 -13 5 3 5 16 8 27 6 19 -3 22 -11 25
-53z m133 48 c23 14 52 0 57 -27 10 -50 -31 -93 -63 -66 -11 9 -14 4 -18 -27
-2 -21 -4 0 -5 47 0 47 2 80 5 73 3 -10 9 -10 24 0z m123 -4 c9 8 16 10 16 6
0 -4 -7 -13 -16 -20 -9 -6 -20 -29 -24 -51 -7 -36 -8 -35 -9 21 0 40 2 55 8
46 8 -12 12 -12 25 -2z m122 -14 c14 -21 15 -31 6 -51 -15 -31 -37 -40 -68
-26 -17 9 -24 20 -24 41 0 58 56 81 86 36z m43 -121 c-6 -8 -19 -14 -27 -14
-12 0 -11 4 6 16 19 13 22 25 24 82 l2 67 3 -68 c3 -43 0 -74 -8 -83z m115
130 c25 -25 19 -34 -24 -34 -43 0 -49 -9 -24 -35 10 -10 24 -13 36 -9 14 4 18
2 14 -5 -10 -16 -42 -14 -60 5 -21 20 -20 53 1 76 20 22 37 23 57 2z m84 5
c-48 -18 -48 -70 0 -88 21 -7 22 -10 8 -10 -26 -1 -56 27 -56 52 0 28 28 57
54 56 18 0 17 -2 -6 -10z m202 0 c0 -8 5 -8 15 1 9 7 15 8 15 2 0 -5 -7 -12
-15 -16 -10 -3 -15 -19 -15 -46 0 -22 -4 -40 -10 -40 -5 0 -10 25 -10 55 0 30
5 55 10 55 6 0 10 -5 10 -11z m124 -5 c25 -25 19 -34 -24 -34 -43 0 -49 -9
-24 -35 10 -10 24 -13 36 -9 14 4 18 2 14 -5 -10 -16 -42 -14 -60 5 -21 20
-20 53 1 76 20 22 37 23 57 2z m77 9 c23 14 52 0 57 -27 10 -50 -31 -93 -63
-66 -11 9 -14 4 -18 -27 -2 -21 -4 0 -5 47 0 47 2 80 5 73 3 -10 9 -10 24 0z
m160 -3 c24 -13 26 -62 3 -85 -23 -22 -56 -15 -73 16 -13 24 -13 29 2 53 19
28 37 32 68 16z m103 2 c3 -5 -4 -8 -16 -8 -31 1 -33 -22 -4 -35 43 -20 29
-59 -20 -59 -8 0 -14 4 -14 8 0 5 10 8 21 8 32 -1 35 22 5 34 -41 15 -33 56
11 59 6 1 14 -3 17 -7z m56 -47 c0 -30 -4 -55 -10 -55 -5 0 -10 25 -10 55 0
30 5 55 10 55 6 0 10 -25 10 -55z m186 30 c14 -21 15 -31 6 -51 -15 -31 -37
-40 -68 -26 -17 9 -24 20 -24 41 0 58 56 81 86 36z m68 14 c9 13 26 15 26 2 0
-5 -9 -11 -19 -14 -15 -4 -21 -16 -24 -48 -3 -38 -4 -35 -5 16 -1 37 2 55 7
46 6 -9 11 -10 15 -2z m67 -54 l11 -30 14 40 c8 22 19 44 25 50 12 12 -39
-125 -53 -142 -6 -7 -15 -13 -21 -13 -5 0 -2 9 8 20 17 19 18 26 7 63 -7 23
-15 51 -18 62 l-5 20 11 -20 c5 -11 15 -33 21 -50z m207 53 c23 -23 13 -38
-23 -38 -28 0 -35 -4 -35 -19 0 -22 22 -33 48 -24 13 5 14 3 6 -6 -17 -19 -46
-9 -63 20 -13 24 -13 29 2 53 19 28 45 34 65 14z m142 2 c0 -5 -6 -7 -14 -4
-28 11 -28 -18 0 -41 25 -20 27 -25 15 -39 -15 -18 -47 -21 -57 -5 -4 8 0 9
15 4 40 -12 46 7 10 35 -29 24 -31 30 -20 44 15 17 51 22 51 6z m108 -2 c23
-23 13 -38 -23 -38 -28 0 -35 -4 -35 -19 0 -22 22 -33 48 -24 13 5 14 3 6 -6
-17 -19 -46 -9 -63 20 -13 24 -13 29 2 53 19 28 45 34 65 14z m81 -35 c15 52
27 53 37 2 8 -46 21 -44 29 5 4 22 10 40 15 40 4 0 0 -25 -8 -55 -8 -30 -19
-55 -23 -55 -5 0 -11 16 -15 35 -6 35 -24 58 -24 33 -1 -7 -7 -26 -14 -43
l-14 -30 -9 25 c-6 14 -13 41 -17 60 -5 28 -2 25 12 -14 l18 -50 13 47z m299
35 c23 -23 13 -38 -23 -38 -28 0 -35 -4 -35 -19 0 -22 22 -33 48 -24 13 5 14
3 6 -6 -17 -19 -46 -9 -63 20 -13 24 -13 29 2 53 19 28 45 34 65 14z m52 -58
l-7 -45 -1 60 c-1 37 2 54 7 45 5 -8 5 -35 1 -60z m40 60 c0 -5 -7 -10 -16
-10 -8 0 -12 5 -9 10 3 6 10 10 16 10 5 0 9 -4 9 -10z m88 -2 c23 -23 13 -38
-23 -38 -23 0 -35 -5 -35 -14 0 -20 27 -39 45 -32 9 3 13 2 10 -4 -8 -14 -38
-13 -53 2 -18 18 -15 75 6 87 23 14 36 13 50 -1z m-6871 -100 c-3 -8 -6 -5 -6
6 -1 11 2 17 5 13 3 -3 4 -12 1 -19z m-3350 -280 c-2 -24 -4 -7 -4 37 0 44 2
63 4 43 2 -21 2 -57 0 -80z m583 69 c12 -4 11 -6 -2 -6 -14 -1 -18 -11 -20
-48 l-2 -48 -3 48 c-2 26 -9 47 -14 47 -5 0 -4 6 3 14 7 8 15 10 18 6 3 -4 12
-10 20 -13z m860 0 c12 -4 11 -6 -2 -6 -14 -1 -18 -11 -20 -48 l-2 -48 -3 48
c-2 26 -9 47 -14 47 -5 0 -4 6 3 14 7 8 15 10 18 6 3 -4 12 -10 20 -13z
m-1393 -79 c-2 -18 -4 -6 -4 27 0 33 2 48 4 33 2 -15 2 -42 0 -60z m63 67 c20
-24 6 -28 -15 -5 -10 11 -13 20 -8 20 6 0 16 -7 23 -15z m59 1 c7 -8 11 -33 8
-58 l-4 -43 -1 47 c-1 33 -7 50 -19 57 -10 6 -13 11 -7 11 6 0 17 -6 23 -14z
m63 -68 c-2 -100 -12 -99 -12 2 0 46 3 80 7 77 4 -4 6 -39 5 -79z m245 0 c-2
-18 -4 -6 -4 27 0 33 2 48 4 33 2 -15 2 -42 0 -60z m43 72 c0 -5 -7 -10 -16
-10 -8 0 -12 5 -9 10 3 6 10 10 16 10 5 0 9 -4 9 -10z m208 -2 c7 -7 12 -32
11 -57 0 -26 -3 -40 -6 -33 -2 6 -10 9 -16 5 -9 -5 -9 -3 -1 8 20 24 14 70
-10 79 -14 6 -16 9 -5 9 8 1 20 -4 27 -11z m152 2 c0 -5 -5 -10 -11 -10 -5 0
-7 5 -4 10 3 6 8 10 11 10 2 0 4 -4 4 -10z m91 -7 c13 -17 13 -17 -6 -3 -11 8
-22 16 -24 17 -2 2 0 3 6 3 6 0 17 -8 24 -17z m56 -105 c-2 -24 -4 -5 -4 42 0
47 2 66 4 43 2 -24 2 -62 0 -85z m67 106 c9 -8 15 -25 15 -37 -2 -22 -2 -22
-6 0 -2 13 -14 30 -26 38 -12 8 -16 15 -10 15 6 0 19 -7 27 -16z m118 -1 c23
-20 23 -56 1 -74 -16 -13 -17 -12 -5 3 20 25 11 61 -18 75 -14 7 -19 13 -11
13 8 0 23 -7 33 -17z m95 11 c-3 -3 -12 -4 -19 -1 -8 3 -5 6 6 6 11 1 17 -2
13 -5z m50 -76 c-2 -18 -4 -6 -4 27 0 33 2 48 4 33 2 -15 2 -42 0 -60z m250 0
c-2 -18 -4 -6 -4 27 0 33 2 48 4 33 2 -15 2 -42 0 -60z m43 72 c0 -5 -7 -10
-16 -10 -8 0 -12 5 -9 10 3 6 10 10 16 10 5 0 9 -4 9 -10z m-1342 -46 c-3 -27
-4 -26 -9 8 -3 22 -1 34 4 29 5 -5 7 -21 5 -37z m52 32 c-18 -22 -8 -59 20
-73 17 -9 20 -13 8 -13 -39 0 -64 60 -36 88 17 17 23 15 8 -2z m68 -11 c-3 -3
-9 2 -12 12 -6 14 -5 15 5 6 7 -7 10 -15 7 -18z m725 10 c-3 -9 -8 -14 -10
-11 -3 3 -2 9 2 15 9 16 15 13 8 -4z m146 -32 c21 -18 24 -24 13 -35 -11 -11
-12 -10 -7 4 5 13 0 21 -19 29 -16 8 -26 20 -25 33 0 15 2 16 6 6 3 -8 17 -25
32 -37z m191 33 c-18 -22 -8 -59 20 -73 17 -9 20 -13 8 -13 -39 0 -64 60 -36
88 17 17 23 15 8 -2z m68 -11 c-3 -3 -9 2 -12 12 -6 14 -5 15 5 6 7 -7 10 -15
7 -18z m-603 -12 c-22 -3 -43 -10 -47 -16 -5 -8 -8 -6 -8 6 0 14 8 17 48 15
47 -1 47 -1 7 -5z m-534 -46 c-10 -9 -11 -8 -5 6 3 10 9 15 12 12 3 -3 0 -11
-7 -18z m273 -16 c-5 -6 -34 20 -34 30 0 5 8 1 18 -8 10 -10 17 -20 16 -22z
m460 23 c3 -8 2 -12 -4 -9 -6 3 -10 10 -10 16 0 14 7 11 14 -7z m397 -7 c-10
-9 -11 -8 -5 6 3 10 9 15 12 12 3 -3 0 -11 -7 -18z m-602 -16 c-6 -2 -18 4
-27 13 -15 15 -15 15 10 4 15 -7 23 -15 17 -17z m141 14 c-7 -8 -20 -15 -29
-15 -11 0 -8 5 9 14 33 19 35 19 20 1z m-890 -45 c0 -6 -45 -10 -115 -10 -70
0 -115 4 -115 10 0 6 45 10 115 10 70 0 115 -4 115 -10z m790 0 c0 -6 -128
-10 -365 -10 -237 0 -365 4 -365 10 0 6 128 10 365 10 237 0 365 -4 365 -10z
m673 -2 c3 -10 -60 -12 -304 -10 -192 2 -309 6 -309 12 0 16 607 13 613 -2z
m127 2 c0 -5 -16 -10 -35 -10 -19 0 -35 5 -35 10 0 6 16 10 35 10 19 0 35 -4
35 -10z m-1320 -380 c0 -5 -4 -10 -10 -10 -5 0 -10 5 -10 10 0 6 5 10 10 10 6
0 10 -4 10 -10z m296 -7 c-3 -10 -10 -46 -17 -79 l-11 -62 -37 2 c-33 1 -36 4
-39 34 -4 40 20 72 53 72 16 0 25 8 29 25 4 14 11 25 17 25 6 0 8 -8 5 -17z
m174 6 c0 -7 -11 -8 -30 -4 -23 5 -32 3 -36 -10 -4 -10 -1 -21 7 -26 12 -7 11
-9 -2 -9 -11 0 -19 -17 -27 -61 -6 -34 -14 -64 -17 -67 -13 -13 -15 9 -4 57 6
28 8 58 5 66 -3 8 -1 15 4 15 6 0 10 6 10 13 0 7 5 18 12 25 15 15 78 16 78 1z
m143 -51 c-8 -34 -12 -70 -10 -80 3 -11 0 -18 -9 -18 -17 0 -17 14 -2 96 6 36
17 64 23 64 9 0 9 -15 -2 -62z m124 40 c-3 -13 -10 -48 -17 -79 l-11 -57 -37
2 c-34 1 -37 3 -40 34 -4 40 20 72 54 72 17 0 25 7 30 25 3 14 11 25 16 25 6
0 8 -10 5 -22z m913 15 c0 -5 -4 -25 -9 -46 l-9 -39 22 21 c12 12 29 21 37 21
9 -1 4 -10 -14 -25 -27 -24 -27 -26 -12 -55 18 -35 5 -40 -18 -7 l-16 22 -7
-22 c-6 -23 -24 -32 -24 -12 0 29 33 149 41 149 5 0 9 -3 9 -7z m259 -5 c0 -7
-6 -42 -13 -78 l-12 -65 -37 -2 c-32 -3 -37 0 -43 23 -10 38 10 72 48 82 23 6
34 15 36 30 4 23 22 31 21 10z m261 2 c0 -5 -4 -10 -10 -10 -5 0 -10 5 -10 10
0 6 5 10 10 10 6 0 10 -4 10 -10z m118 -19 c-4 -28 -2 -29 22 -24 18 3 29 0
33 -10 6 -15 -7 -84 -17 -94 -12 -13 -15 4 -6 42 11 47 -2 68 -26 43 -9 -9
-19 -31 -23 -49 -3 -18 -11 -34 -17 -36 -7 -2 -6 24 5 77 8 44 19 80 24 80 5
0 7 -13 5 -29z m912 19 c0 -5 -4 -10 -10 -10 -5 0 -10 5 -10 10 0 6 5 10 10
10 6 0 10 -4 10 -10z m140 3 c0 -5 -4 -25 -9 -46 l-9 -39 22 21 c12 12 29 21
37 21 9 -1 4 -10 -14 -25 -27 -24 -27 -26 -12 -55 18 -35 5 -40 -18 -7 l-16
22 -7 -22 c-6 -23 -24 -32 -24 -12 0 29 33 149 41 149 5 0 9 -3 9 -7z m-3732
-15 c18 -18 15 -42 -7 -62 -16 -14 -18 -23 -10 -43 12 -32 11 -35 -3 -31 -7 3
-15 15 -18 29 -8 34 -40 38 -40 5 0 -22 -16 -44 -25 -34 -2 2 3 36 12 76 16
71 17 72 48 72 17 0 36 -5 43 -12z m3912 3 c0 -5 -7 -14 -15 -21 -23 -19 -36
-81 -25 -119 7 -24 6 -31 -3 -28 -7 2 -13 27 -15 56 -2 42 2 60 20 87 22 33
38 43 38 25z m50 -6 c0 -9 6 -12 18 -8 13 5 14 3 5 -7 -6 -7 -9 -19 -6 -26 3
-8 0 -14 -6 -14 -6 0 -11 5 -11 11 0 8 -6 7 -17 -2 -15 -12 -16 -12 -10 4 3 9
2 17 -3 17 -6 0 -10 5 -10 10 0 6 7 10 16 10 8 0 12 5 9 10 -3 6 -1 10 4 10 6
0 11 -7 11 -15z m77 -62 c-4 -41 -39 -103 -58 -103 -6 0 0 15 13 33 18 25 23
45 23 90 -1 52 1 56 13 40 8 -11 12 -34 9 -60z m-1423 52 c-4 -9 -1 -15 7 -15
9 0 8 -4 -3 -12 -21 -17 -33 -84 -16 -91 8 -4 7 -6 -4 -6 -25 -1 -29 13 -19
58 5 24 5 41 0 41 -5 0 -1 9 8 20 21 24 35 26 27 5z m730 0 c-4 -9 -1 -15 7
-15 9 0 8 -4 -3 -12 -21 -17 -33 -84 -16 -91 8 -4 7 -6 -4 -6 -25 -1 -29 13
-19 58 5 24 5 41 0 41 -5 0 -1 9 8 20 21 24 35 26 27 5z m-3246 -39 c5 -22
-13 -36 -46 -36 -17 0 -22 -5 -20 -17 3 -13 12 -17 31 -16 15 1 25 -2 22 -8
-9 -13 -49 -11 -63 3 -31 31 2 101 46 96 17 -2 28 -10 30 -22z m112 7 c-1 -40
-26 -137 -36 -140 -7 -2 -10 6 -7 22 4 20 1 25 -15 25 -43 0 -53 57 -16 94 22
23 74 21 74 -1z m44 -33 c-4 -33 -3 -50 4 -50 19 0 39 28 46 65 4 19 11 35 16
35 13 0 12 -11 -1 -64 -10 -39 -13 -43 -44 -44 -19 -1 -37 3 -41 9 -9 15 5 99
17 99 6 0 7 -20 3 -50z m123 -5 c-1 -35 -6 -55 -14 -55 -20 0 -22 13 -11 63
13 64 27 59 25 -8z m74 39 c-12 -9 -23 -31 -27 -55 -4 -21 -12 -39 -18 -39 -9
0 -9 14 -2 54 9 50 12 53 39 54 29 1 29 0 8 -14z m108 2 c16 -19 -11 -46 -45
-46 -13 0 -24 -4 -24 -9 0 -16 27 -31 45 -24 13 4 16 3 11 -5 -9 -16 -49 -15
-64 0 -18 18 -14 56 8 78 23 23 53 26 69 6z m279 -32 c-8 -37 -7 -48 3 -55 10
-6 7 -9 -10 -9 -22 0 -23 2 -17 46 6 49 12 64 25 64 5 0 4 -21 -1 -46z m111
32 c16 -19 -11 -46 -45 -46 -13 0 -24 -4 -24 -9 0 -16 27 -31 45 -24 13 4 16
3 11 -5 -9 -16 -49 -15 -64 0 -18 18 -14 56 8 78 23 23 53 26 69 6z m251 4 c0
-5 -6 -7 -14 -4 -25 10 -29 -17 -6 -41 19 -20 21 -27 10 -40 -13 -16 -60 -21
-60 -6 0 5 8 7 19 4 27 -7 34 11 11 32 -20 18 -26 46 -13 58 10 11 53 8 53 -3z
m166 -27 c-3 -21 -6 -45 -6 -54 0 -11 -11 -16 -40 -17 -34 -2 -40 1 -46 22 -6
24 10 65 30 78 6 4 24 8 40 8 28 0 28 -1 22 -37z m75 21 c-12 -9 -23 -31 -27
-55 -4 -21 -12 -39 -18 -39 -9 0 -9 14 -2 54 9 50 12 53 39 54 29 1 29 0 8
-14z m108 2 c16 -19 -11 -46 -45 -46 -13 0 -24 -4 -24 -9 0 -16 27 -31 45 -24
13 4 16 3 11 -5 -9 -16 -49 -15 -64 0 -18 18 -14 56 8 78 23 23 53 26 69 6z
m235 -1 c5 -14 -9 -83 -18 -92 -12 -13 -15 4 -6 42 5 24 5 44 0 49 -15 15 -40
-14 -46 -55 -10 -59 -27 -48 -19 11 4 29 3 50 -3 50 -16 0 -40 -34 -47 -67 -3
-18 -11 -33 -16 -33 -11 0 -11 -1 1 58 l11 49 69 0 c46 0 71 -4 74 -12z m112
-22 c-3 -21 -6 -45 -6 -54 0 -11 -11 -16 -40 -17 -34 -2 -40 1 -46 22 -6 24
10 65 30 78 6 4 24 8 40 8 28 0 28 -1 22 -37z m73 19 c-11 -10 -24 -33 -28
-51 -12 -60 -29 -48 -18 12 9 50 12 54 39 55 28 1 29 1 7 -16z m207 3 c9 -22
-14 -45 -43 -45 -18 0 -24 -5 -21 -17 2 -11 12 -18 26 -17 12 0 22 -3 22 -8 0
-5 -15 -8 -32 -6 -29 3 -33 7 -36 36 -2 22 3 41 14 53 20 23 62 25 70 4z m216
-22 l3 -38 20 38 c21 42 35 48 35 15 0 -43 15 -50 29 -13 7 19 17 35 22 35 5
0 9 -2 9 -5 0 -15 -51 -105 -60 -105 -5 0 -10 17 -12 38 l-3 37 -20 -38 c-10
-20 -24 -36 -29 -34 -14 5 -20 107 -7 107 5 0 11 -17 13 -37z m155 -18 c-1
-35 -6 -55 -14 -55 -20 0 -22 13 -11 63 13 64 27 59 25 -8z m357 8 c-9 -62 -8
-61 -51 -60 -35 2 -38 5 -41 34 -4 41 26 73 69 73 l30 0 -7 -47z m118 -3 c-3
-42 -15 -70 -26 -59 -3 2 -1 22 4 44 11 47 -2 68 -26 43 -9 -9 -19 -31 -23
-49 -3 -18 -11 -34 -17 -36 -7 -2 -8 13 -1 50 l10 54 41 -1 41 -1 -3 -45z
m172 3 c-9 -62 -8 -61 -51 -60 -35 2 -38 5 -41 34 -4 41 26 73 69 73 l30 0 -7
-47z m96 36 c0 -6 -8 -8 -19 -4 -29 9 -37 -15 -11 -35 32 -24 23 -54 -18 -58
-19 -2 -32 1 -32 8 0 7 8 9 19 5 29 -9 36 14 12 36 -24 23 -26 30 -9 47 15 15
58 16 58 1z m165 -14 c0 -14 -10 -23 -33 -30 -37 -11 -41 -41 -4 -39 12 0 22
-3 22 -8 0 -5 -15 -8 -32 -6 -29 3 -33 7 -36 36 -4 43 22 74 57 70 18 -2 26
-9 26 -23z m66 9 c-12 -9 -23 -31 -27 -55 -4 -21 -12 -39 -18 -39 -9 0 -9 14
-2 54 9 50 12 53 39 54 29 1 29 0 8 -14z m56 -39 c-1 -35 -6 -55 -14 -55 -20
0 -22 13 -11 63 13 64 27 59 25 -8z m93 46 c0 -5 -9 -7 -20 -4 -15 4 -20 0
-20 -15 0 -11 7 -23 16 -26 9 -3 14 -15 12 -28 -2 -18 -11 -24 -35 -26 -20 -2
-33 1 -33 8 0 7 8 9 19 5 30 -9 36 14 11 40 -19 20 -21 27 -10 40 13 16 60 21
60 6z m400 -91 c0 -5 -4 -10 -10 -10 -5 0 -10 5 -10 10 0 6 5 10 10 10 6 0 10
-4 10 -10z m-362 -428 c2 -7 -3 -12 -12 -12 -9 0 -16 7 -16 16 0 17 22 14 28
-4z m-3689 -18 c27 -34 27 -64 0 -98 -41 -52 -129 -19 -129 49 0 38 37 75 75
75 24 0 39 -7 54 -26z m611 11 c0 -9 6 -12 15 -9 8 4 15 1 15 -5 0 -6 -5 -11
-11 -11 -6 0 -8 -7 -5 -16 4 -12 1 -14 -14 -9 -12 4 -20 2 -20 -5 0 -6 -5 -8
-10 -5 -8 5 -7 11 1 21 9 11 8 14 -5 14 -9 0 -16 5 -16 11 0 6 7 9 15 5 9 -3
15 0 15 9 0 8 5 15 10 15 6 0 10 -7 10 -15z m2570 -6 c9 -16 8 -26 -3 -43 -14
-20 -13 -26 5 -54 27 -43 1 -44 -30 -2 -13 17 -27 30 -32 30 -6 0 -10 -13 -10
-30 0 -16 -4 -30 -10 -30 -6 0 -10 32 -10 75 l0 75 40 0 c29 0 42 -5 50 -21z
m1617 7 c-4 -10 -1 -13 9 -9 7 3 14 0 14 -6 0 -6 -5 -11 -11 -11 -8 0 -8 -4 0
-14 10 -12 7 -15 -19 -14 -22 1 -29 5 -26 15 3 7 1 13 -4 13 -6 0 -10 5 -10
11 0 6 7 9 15 5 9 -3 15 0 15 9 0 8 5 15 11 15 6 0 9 -7 6 -14z m-1047 -10 c0
-8 6 -17 13 -20 10 -5 10 -7 0 -12 -15 -7 -18 -74 -3 -74 6 0 10 -5 10 -11 0
-6 -10 -9 -22 -7 -19 2 -24 10 -26 43 -2 22 -9 44 -15 48 -9 6 -9 10 1 14 6 2
12 11 12 19 0 8 7 14 15 14 8 0 15 -6 15 -14z m-3696 -28 c16 -52 19 -54 29
-20 13 43 33 41 45 -5 l10 -38 7 33 c7 32 21 49 31 39 3 -3 -1 -27 -9 -53 -18
-63 -43 -70 -53 -17 l-7 38 -12 -35 c-17 -52 -40 -50 -54 4 -6 25 -11 50 -11
55 0 15 20 14 24 -1z m236 -14 c15 -39 12 -84 -4 -84 -10 0 -16 14 -18 43 -2
29 -8 42 -18 42 -10 0 -16 -13 -18 -42 -2 -29 -8 -43 -18 -43 -10 0 -14 14
-14 54 l0 54 40 0 c35 1 42 -3 50 -24z m108 14 c7 -7 12 -20 12 -30 0 -14 -8
-18 -36 -18 -24 0 -34 -4 -31 -12 2 -7 18 -12 36 -11 40 1 37 -21 -3 -25 -31
-4 -66 22 -66 47 0 46 59 78 88 49z m102 2 c0 -4 -9 -10 -20 -13 -16 -4 -20
-14 -20 -46 0 -30 -4 -41 -15 -41 -11 0 -15 13 -15 54 l0 54 35 0 c19 0 35 -4
35 -8z m2788 -2 c7 -7 12 -20 12 -30 0 -14 -8 -18 -36 -18 -24 0 -34 -4 -31
-12 2 -7 16 -13 30 -13 16 1 27 -5 27 -12 0 -18 -55 -16 -74 3 -9 8 -16 25
-16 36 0 45 58 76 88 46z m120 0 c15 -13 16 -70 0 -86 -7 -7 -22 -12 -35 -12
-18 0 -23 -6 -23 -25 0 -16 -6 -25 -15 -25 -12 0 -15 15 -15 79 l0 79 38 0
c20 0 43 -5 50 -10z m126 -4 c34 -34 6 -94 -44 -94 -35 0 -50 17 -50 57 0 49
59 72 94 37z m101 6 c4 -6 -5 -10 -19 -10 -33 0 -33 -13 -1 -28 28 -13 34 -47
9 -56 -28 -11 -64 -6 -64 8 0 9 8 12 25 8 29 -5 34 14 6 23 -25 7 -35 34 -20
51 13 16 55 19 64 4z m55 -45 c0 -42 -3 -55 -15 -55 -12 0 -15 13 -15 55 0 42
3 55 15 55 12 0 15 -13 15 -55z m188 43 c7 -7 12 -26 12 -43 0 -17 -5 -36 -12
-43 -28 -28 -98 -1 -98 37 0 48 66 81 98 49z m102 1 c0 -5 -6 -9 -14 -9 -17 0
-26 -22 -26 -61 0 -19 -5 -29 -15 -29 -11 0 -15 13 -15 54 l0 54 35 0 c19 0
35 -4 35 -9z m47 -19 c8 -43 21 -46 31 -8 4 18 16 34 25 36 13 3 12 -7 -10
-65 -14 -37 -30 -74 -36 -80 -11 -15 -47 -17 -47 -3 0 6 6 10 14 10 24 0 26
29 6 81 -24 60 -24 59 -5 59 9 0 18 -12 22 -30z m231 -27 c2 -43 0 -53 -12
-53 -12 0 -16 11 -16 46 0 38 -3 45 -17 42 -13 -2 -19 -15 -21 -46 -2 -28 -8
-42 -18 -42 -10 0 -14 14 -14 54 l0 55 48 -2 47 -2 3 -52z m110 1 l3 -52 -43
2 c-39 1 -43 3 -43 26 0 20 7 27 35 37 28 9 31 13 18 18 -10 4 -25 5 -33 1 -8
-3 -15 -2 -15 3 0 15 15 22 45 19 29 -3 30 -5 33 -54z m180 43 c18 -14 16 -97
-3 -97 -11 0 -15 11 -15 39 0 42 -16 63 -31 40 -5 -8 -9 -29 -9 -46 0 -23 -5
-33 -15 -33 -11 0 -15 12 -15 45 0 33 -4 45 -15 45 -11 0 -15 -12 -15 -45 0
-33 -4 -45 -15 -45 -12 0 -15 13 -15 55 l0 55 68 -1 c37 -1 73 -6 80 -12z
m122 -6 c17 -33 12 -41 -26 -41 -24 0 -34 -4 -31 -12 2 -7 16 -13 31 -13 34 1
28 -19 -8 -23 -34 -4 -56 13 -56 45 0 40 18 63 50 63 19 0 33 -7 40 -19z
m1175 -217 c56 -26 65 -60 65 -244 0 -127 -3 -169 -16 -195 -33 -69 62 -65
-1414 -65 -1476 0 -1381 -4 -1414 65 -23 48 -23 342 0 390 32 69 -64 65 1412
65 1194 0 1337 -2 1367 -16z m-5548 -122 c91 -65 78 -209 -23 -257 -43 -20
-49 -16 -32 19 10 23 9 29 -2 36 -11 7 -9 11 11 19 30 11 36 22 45 91 8 63
-11 96 -61 106 -45 8 -76 -11 -103 -67 -18 -36 -19 -45 -7 -61 13 -19 13 -19
19 0 6 19 9 19 33 7 15 -8 30 -12 35 -9 15 10 8 35 -13 42 -20 8 -19 8 6 22
22 12 28 12 42 -3 16 -15 15 -18 0 -35 -17 -19 -24 -58 -9 -48 13 8 35 -11 27
-23 -5 -9 -10 -9 -21 0 -18 15 -26 7 -26 -26 0 -36 -24 -42 -54 -15 l-24 23
-24 -22 -23 -22 -18 37 c-34 71 -3 162 67 198 43 22 116 16 155 -12z m2636
-24 c-86 -218 -103 -253 -117 -256 -9 -2 -16 -2 -16 0 0 3 23 60 51 129 28 68
55 134 59 147 5 12 16 22 25 22 13 0 13 -5 -2 -42z m-2213 -43 c0 -8 -7 -15
-15 -15 -16 0 -20 12 -8 23 11 12 23 8 23 -8z m60 -65 c0 -64 -3 -80 -15 -80
-12 0 -15 16 -15 80 0 64 3 80 15 80 12 0 15 -16 15 -80z m120 1 l0 -79 -37 0
c-48 0 -63 12 -63 52 0 38 15 56 47 56 18 0 23 6 23 25 0 16 6 25 15 25 12 0
15 -15 15 -79z m431 32 c0 -47 1 -47 16 -25 15 22 43 30 43 13 0 -5 -7 -14
-15 -21 -20 -17 -19 -30 7 -57 21 -23 21 -23 1 -23 -11 0 -28 10 -36 23 l-16
22 0 -22 c-1 -14 -7 -23 -16 -23 -12 0 -15 16 -15 80 0 64 3 80 15 80 11 0 15
-12 16 -47z m-809 -15 l14 -53 14 53 c17 65 45 73 55 14 7 -42 25 -79 25 -52
0 37 22 90 36 90 11 0 13 -6 8 -22 -4 -13 -13 -45 -20 -72 -7 -26 -15 -50 -18
-53 -13 -13 -36 9 -42 42 -9 51 -20 51 -33 -1 -17 -66 -39 -56 -63 26 -22 78
-22 80 -4 80 7 0 19 -22 28 -52z m1157 38 c7 -8 11 -27 9 -43 -2 -22 -10 -30
-35 -38 -25 -7 -33 -15 -33 -32 0 -14 -6 -23 -15 -23 -12 0 -15 15 -15 75 l0
75 39 0 c21 0 44 -6 50 -14z m-959 -81 c0 -42 -3 -55 -15 -55 -12 0 -15 13
-15 55 0 42 3 55 15 55 12 0 15 -13 15 -55z m362 41 c4 -6 8 -30 8 -53 0 -32
-4 -43 -15 -43 -11 0 -15 12 -15 45 0 32 -4 45 -14 45 -17 0 -26 -22 -26 -61
0 -16 -4 -29 -10 -29 -5 0 -10 15 -10 33 0 17 -4 38 -9 46 -15 23 -31 2 -31
-40 0 -28 -4 -39 -15 -39 -11 0 -15 13 -15 54 l0 53 73 0 c42 1 75 -4 79 -11z
m106 2 c7 -7 12 -31 12 -54 l0 -43 -42 2 c-39 2 -43 5 -46 30 -3 23 1 28 27
33 17 4 31 11 31 16 0 6 -11 8 -25 6 -17 -4 -25 -1 -25 8 0 17 51 19 68 2z
m102 1 c0 -5 -6 -9 -14 -9 -17 0 -26 -22 -26 -61 0 -19 -5 -29 -15 -29 -11 0
-15 13 -15 54 l0 54 35 0 c19 0 35 -4 35 -9z m190 -3 c0 -9 -7 -12 -20 -9 -26
7 -26 -13 1 -27 33 -18 21 -54 -18 -58 -24 -2 -33 1 -33 11 0 10 7 13 19 10
29 -7 34 13 6 25 -24 11 -33 40 -18 55 13 13 63 7 63 -7z m298 2 c7 -7 12 -31
12 -54 l0 -43 -42 2 c-39 2 -43 5 -46 30 -3 23 1 28 27 33 17 4 31 11 31 16 0
6 -11 8 -25 6 -17 -4 -25 -1 -25 8 0 17 51 19 68 2z m102 -2 c0 -9 -7 -12 -20
-9 -28 7 -25 -4 7 -31 24 -20 25 -26 14 -40 -17 -20 -71 -22 -71 -2 0 9 8 12
25 8 14 -2 25 0 25 5 0 5 -11 15 -25 21 -23 11 -33 40 -18 55 13 13 63 7 63
-7z m90 0 c0 -9 -7 -12 -20 -9 -28 7 -25 -4 7 -31 24 -20 25 -26 14 -40 -17
-20 -71 -22 -71 -2 0 9 8 12 25 8 14 -2 25 0 25 5 0 5 -11 15 -25 21 -23 11
-33 40 -18 55 13 13 63 7 63 -7z m114 -2 c34 -34 6 -94 -44 -94 -35 0 -50 17
-50 57 0 49 59 72 94 37z m101 6 c4 -6 -5 -10 -19 -10 -33 0 -33 -13 -1 -28
28 -13 34 -47 9 -56 -28 -11 -64 -6 -64 8 0 9 8 12 25 8 29 -5 34 14 6 23 -25
7 -35 34 -20 51 13 16 55 19 64 4z m282 -27 l-27 -28 -27 28 -28 27 55 0 55 0
-28 -27z m-907 -13 c0 -5 -13 -10 -30 -10 -16 0 -30 5 -30 10 0 6 14 10 30 10
17 0 30 -4 30 -10z m-1380 -100 c0 -13 -16 -13 -41 0 -18 10 -26 40 -13 52 6
7 54 -39 54 -52z m3014 -214 c98 -41 37 -190 -64 -155 -68 24 -72 126 -6 155
38 16 31 16 70 0z m339 -62 c27 7 47 -10 47 -39 0 -29 -18 -44 -52 -42 -28 2
-28 2 -26 72 0 39 3 55 5 37 4 -29 8 -33 26 -28z m1245 -1 c25 2 27 -1 28 -43
1 -37 1 -38 -3 -8 -7 61 -46 57 -56 -7 -2 -16 -4 4 -4 45 0 41 2 61 4 43 4
-27 8 -31 31 -30z m203 2 c25 8 49 -11 49 -40 0 -29 -18 -44 -52 -42 -28 2
-28 2 -26 72 0 39 3 55 5 37 4 -28 8 -32 24 -27z m826 -52 c-2 -21 -4 -4 -4
37 0 41 2 58 4 38 2 -21 2 -55 0 -75z m166 51 c27 7 47 -10 47 -39 0 -29 -18
-44 -52 -42 -28 2 -28 2 -26 72 0 39 3 55 5 37 4 -29 8 -33 26 -28z m84 -51
c-2 -21 -4 -4 -4 37 0 41 2 58 4 38 2 -21 2 -55 0 -75z m-2587 87 c0 -5 -2
-10 -4 -10 -3 0 -8 5 -11 10 -3 6 -1 10 4 10 6 0 11 -4 11 -10z m199 -4 c18
-22 10 -97 -12 -110 -27 -16 -61 27 -53 68 11 52 41 71 65 42z m774 -68 c9 -6
9 -10 1 -15 -6 -5 -14 -15 -17 -23 -4 -12 -6 -11 -6 3 -1 12 -9 17 -31 17 -16
0 -30 3 -30 6 0 3 15 26 33 51 l32 46 3 -39 c2 -21 9 -42 15 -46z m677 78 c0
-3 -4 -8 -10 -11 -5 -3 -10 -1 -10 4 0 6 5 11 10 11 6 0 10 -2 10 -4z m200 -6
c0 -5 -2 -10 -4 -10 -3 0 -8 5 -11 10 -3 6 -1 10 4 10 6 0 11 -4 11 -10z m450
0 c0 -5 -2 -10 -4 -10 -3 0 -8 5 -11 10 -3 6 -1 10 4 10 6 0 11 -4 11 -10z
m-1426 -32 c8 -5 7 -8 -1 -8 -7 0 -13 -12 -13 -28 0 -15 6 -34 13 -41 10 -10
8 -12 -8 -9 -15 2 -21 13 -25 43 -6 42 9 94 18 65 3 -8 10 -18 16 -22z m-986
2 c15 -1 15 -2 0 -11 -10 -5 -18 -17 -18 -26 0 -9 8 -25 18 -36 16 -19 16 -19
-3 -16 -15 3 -21 15 -25 45 -6 42 -1 81 8 57 2 -7 11 -13 20 -13z m1350 0 c15
-1 15 -2 0 -11 -10 -5 -18 -17 -18 -26 0 -9 8 -25 18 -36 16 -19 16 -19 -3
-16 -15 3 -21 15 -25 45 -6 42 -1 81 8 57 2 -7 11 -13 20 -13z m-1278 -11 c0
-4 -5 -9 -11 -11 -6 -2 -14 -19 -19 -38 l-8 -35 -1 45 c-1 39 2 46 19 46 11 0
20 -3 20 -7z m37 -56 c-2 -16 -4 -5 -4 22 0 28 2 40 4 28 2 -13 2 -35 0 -50z
m311 55 c31 -26 2 -86 -37 -73 -16 5 -20 1 -24 -22 -2 -15 -5 1 -5 37 -2 64
-2 65 26 67 15 1 33 -3 40 -9z m100 -33 c3 -40 2 -41 -30 -40 -42 0 -51 30
-14 46 26 12 26 35 -1 25 -8 -3 -11 -1 -8 5 4 5 17 9 28 7 18 -2 23 -11 25
-43z m100 33 c31 -26 2 -86 -37 -73 -16 5 -20 1 -24 -22 -2 -15 -5 1 -5 37 -2
64 -2 65 26 67 15 1 33 -3 40 -9z m100 -33 c3 -40 2 -41 -30 -40 -42 0 -51 30
-14 46 26 12 26 35 -1 25 -8 -3 -11 -1 -8 5 4 5 17 9 28 7 18 -2 23 -11 25
-43z m51 28 c10 -17 12 -17 25 0 19 25 30 21 12 -5 -14 -20 -14 -24 -1 -45 9
-13 11 -23 6 -23 -6 0 -15 8 -21 18 -10 16 -10 16 -20 0 -6 -10 -15 -18 -21
-18 -5 0 -3 10 6 23 13 21 13 25 -1 45 -8 12 -11 22 -5 22 5 0 15 -8 20 -17z
m139 5 c32 -32 -4 -87 -48 -73 -38 12 -20 85 20 85 9 0 21 -5 28 -12z m322
-44 c0 -27 -5 -55 -12 -62 -15 -15 -45 -15 -54 0 -4 7 -3 8 5 4 16 -10 51 3
51 19 0 9 -10 13 -27 12 -25 -2 -28 2 -31 32 -4 37 8 49 44 47 22 -1 24 -5 24
-52z m47 -11 c-2 -16 -4 -5 -4 22 0 28 2 40 4 28 2 -13 2 -35 0 -50z m223 34
c0 -18 5 -38 12 -45 7 -7 8 -12 2 -12 -19 0 -34 24 -34 57 0 18 5 33 10 33 6
0 10 -15 10 -33z m60 -13 c0 -28 -4 -44 -11 -42 -6 2 -10 7 -10 11 1 4 1 23 1
42 0 19 5 35 10 35 6 0 10 -21 10 -46z m187 -21 c-2 -16 -4 -5 -4 22 0 28 2
40 4 28 2 -13 2 -35 0 -50z m107 51 c9 -8 16 -22 16 -29 0 -16 -27 -45 -41
-45 -44 0 -67 59 -31 79 24 15 38 13 56 -5z m103 -51 c-2 -16 -4 -5 -4 22 0
28 2 40 4 28 2 -13 2 -35 0 -50z m83 56 c0 -5 -4 -7 -10 -4 -5 3 -15 3 -21 -1
-8 -5 -4 -13 11 -24 15 -11 21 -23 17 -34 -7 -18 -47 -22 -47 -5 0 5 5 7 10 4
6 -3 15 -3 21 1 8 5 4 13 -11 24 -15 11 -21 23 -17 34 7 18 47 22 47 5z m138
-34 c3 -38 1 -41 -22 -40 -14 0 -30 5 -37 12 -12 12 -5 33 12 33 6 0 7 -4 4
-10 -9 -15 4 -30 20 -23 18 6 20 33 3 33 -10 0 -9 3 1 9 17 11 -3 25 -25 17
-9 -3 -12 -2 -9 5 4 5 17 9 28 7 18 -2 23 -11 25 -43z m47 15 c9 -41 22 -46
30 -10 4 16 11 33 17 37 8 4 9 0 4 -13 -5 -10 -13 -31 -18 -46 -5 -16 -14 -28
-18 -28 -4 0 -13 12 -18 28 -5 15 -13 35 -17 45 -4 9 -3 17 3 17 6 0 13 -13
17 -30z m133 -15 c3 -39 2 -41 -25 -40 -21 0 -29 5 -31 23 -2 12 2 22 8 22 6
0 8 -4 5 -10 -9 -15 4 -30 20 -23 18 6 20 33 3 33 -10 0 -9 3 1 9 18 11 -2 23
-25 14 -12 -4 -15 -3 -10 6 4 7 18 11 29 9 18 -2 23 -11 25 -43z m49 -22 c-2
-16 -4 -5 -4 22 0 28 2 40 4 28 2 -13 2 -35 0 -50z m141 22 c3 -38 1 -41 -22
-40 -14 0 -30 5 -37 12 -12 12 -5 33 12 33 6 0 7 -4 4 -10 -9 -15 4 -30 20
-23 18 6 20 33 3 33 -10 0 -9 3 1 9 17 11 -3 25 -25 17 -9 -3 -12 -2 -9 5 4 5
17 9 28 7 18 -2 23 -11 25 -43z m250 33 c19 -19 14 -28 -18 -28 -19 0 -30 -5
-30 -14 0 -17 27 -29 43 -20 9 5 9 4 1 -6 -7 -7 -21 -9 -33 -5 -35 11 -23 85
14 85 6 0 16 -5 23 -12z m-1668 -68 c0 -5 -4 -10 -10 -10 -5 0 -10 5 -10 10 0
6 5 10 10 10 6 0 10 -4 10 -10z m1720 0 c0 -5 -4 -10 -10 -10 -5 0 -10 5 -10
10 0 6 5 10 10 10 6 0 10 -4 10 -10z"/>
<path d="M842 3078 c-21 -21 -13 -28 28 -28 38 0 40 2 30 20 -12 22 -40 26
-58 8z"/>
<path d="M1033 3013 c-18 -7 -16 -32 2 -39 18 -7 45 12 45 32 0 14 -23 17 -47
7z"/>
<path d="M1346 3074 c-23 -22 -21 -24 24 -24 41 0 57 21 24 34 -24 9 -31 8
-48 -10z"/>
<path d="M1633 3013 c-17 -6 -16 -32 1 -39 19 -7 56 13 56 31 0 15 -31 19 -57
8z"/>
<path d="M2134 3073 c-17 -17 -16 -18 20 -21 45 -4 54 2 36 23 -16 20 -35 19
-56 -2z"/>
<path d="M2826 3074 c-23 -22 -21 -24 24 -24 41 0 57 21 24 34 -24 9 -31 8
-48 -10z"/>
<path d="M3050 3082 c-22 -7 -30 -23 -30 -59 0 -39 29 -60 59 -43 52 27 25
121 -29 102z"/>
<path d="M3240 3070 c-11 -11 -20 -29 -20 -40 0 -20 32 -60 48 -60 23 0 52 34
52 60 0 18 -8 34 -22 44 -29 20 -34 20 -58 -4z"/>
<path d="M3831 3071 c-26 -26 -27 -55 -1 -81 24 -24 43 -25 64 -4 17 16 21 61
8 80 -15 24 -50 26 -71 5z"/>
<path d="M4350 2666 c-15 -19 -9 -56 12 -69 34 -22 66 41 36 71 -16 16 -33 15
-48 -2z"/>
<path d="M7166 2664 c-9 -8 -16 -22 -16 -29 0 -14 26 -45 39 -45 14 0 31 24
31 45 0 21 -17 45 -31 45 -4 0 -15 -7 -23 -16z"/>
<path d="M471 2687 c-16 -41 -14 -47 15 -47 22 0 24 3 18 23 -14 48 -22 54
-33 24z"/>
<path d="M723 2673 c-24 -9 -13 -23 18 -23 27 0 30 2 19 15 -13 16 -17 17 -37
8z"/>
<path d="M830 2666 c-15 -19 -9 -56 12 -69 34 -22 66 41 36 71 -16 16 -33 15
-48 -2z"/>
<path d="M952 2668 c-30 -30 -2 -86 38 -73 15 5 20 15 20 40 0 41 -32 59 -58
33z"/>
<path d="M1286 2664 c-9 -8 -16 -22 -16 -29 0 -15 27 -45 40 -45 13 0 40 30
40 45 0 15 -27 45 -40 45 -5 0 -16 -7 -24 -16z"/>
<path d="M1743 2672 c-24 -15 -19 -69 7 -77 26 -8 50 11 50 39 0 36 -29 56
-57 38z"/>
<path d="M2475 2626 c-16 -12 -18 -17 -7 -28 15 -15 47 0 47 22 0 20 -18 22
-40 6z"/>
<path d="M2754 2672 c-21 -13 -25 -49 -9 -66 20 -19 27 -20 43 -4 17 17 15 65
-4 72 -19 7 -16 7 -30 -2z"/>
<path d="M2943 2672 c-24 -15 -19 -69 7 -77 26 -8 50 11 50 39 0 36 -29 56
-57 38z"/>
<path d="M3113 2673 c-24 -9 -13 -23 17 -23 32 0 40 14 14 24 -9 3 -16 6 -17
5 -1 0 -8 -3 -14 -6z"/>
<path d="M3610 2665 c-11 -13 -7 -15 25 -15 32 0 36 2 25 15 -7 8 -18 15 -25
15 -7 0 -18 -7 -25 -15z"/>
<path d="M4646 2664 c-20 -19 -20 -35 -2 -60 12 -15 18 -17 33 -8 22 14 29 50
13 70 -16 18 -25 18 -44 -2z"/>
<path d="M5023 2673 c-24 -9 -13 -23 18 -23 27 0 30 2 19 15 -13 16 -17 17
-37 8z"/>
<path d="M5263 2673 c-24 -9 -13 -23 18 -23 27 0 30 2 19 15 -13 16 -17 17
-37 8z"/>
<path d="M5663 2672 c-24 -15 -19 -69 7 -77 26 -8 50 11 50 39 0 36 -29 56
-57 38z"/>
<path d="M6293 2672 c-24 -15 -19 -69 7 -77 26 -8 50 11 50 39 0 36 -29 56
-57 38z"/>
<path d="M6953 2673 c-24 -9 -13 -23 18 -23 27 0 30 2 19 15 -13 16 -17 17
-37 8z"/>
<path d="M7056 2627 c-16 -12 -16 -14 -2 -26 13 -11 19 -11 31 -1 35 29 8 54
-29 27z"/>
<path d="M7565 2626 c-16 -12 -18 -17 -7 -28 15 -15 47 0 47 22 0 20 -18 22
-40 6z"/>
<path d="M7770 2665 c-11 -13 -8 -15 20 -15 21 0 30 4 28 13 -7 18 -33 20 -48
2z"/>
<path d="M8112 2668 c-28 -28 -2 -88 33 -75 20 8 30 54 15 72 -15 18 -32 19
-48 3z"/>
<path d="M8302 2668 c-30 -30 -2 -86 38 -73 15 5 20 15 20 40 0 41 -32 59 -58
33z"/>
<path d="M8470 2665 c-11 -13 -7 -15 25 -15 32 0 36 2 25 15 -7 8 -18 15 -25
15 -7 0 -18 -7 -25 -15z"/>
<path d="M8880 2665 c-11 -13 -7 -15 25 -15 32 0 36 2 25 15 -7 8 -18 15 -25
15 -7 0 -18 -7 -25 -15z"/>
<path d="M9002 2668 c-28 -28 -2 -88 33 -75 20 8 30 54 15 72 -15 18 -32 19
-48 3z"/>
<path d="M9123 2672 c-24 -15 -19 -69 7 -77 26 -8 50 11 50 39 0 36 -29 56
-57 38z"/>
<path d="M9452 2668 c-30 -30 -2 -86 38 -73 15 5 20 15 20 40 0 41 -32 59 -58
33z"/>
<path d="M9813 2673 c-24 -9 -13 -23 18 -23 27 0 30 2 19 15 -13 16 -17 17
-37 8z"/>
<path d="M10063 2673 c-24 -9 -13 -23 18 -23 27 0 30 2 19 15 -13 16 -17 17
-37 8z"/>
<path d="M10443 2673 c-24 -9 -13 -23 18 -23 27 0 30 2 19 15 -13 16 -17 17
-37 8z"/>
<path d="M10623 2673 c-24 -9 -13 -23 17 -23 32 0 40 14 14 24 -9 3 -16 6 -17
5 -1 0 -8 -3 -14 -6z"/>
<path d="M1142 1788 c-14 -14 -16 -78 -3 -78 15 0 41 42 41 67 0 25 -19 30
-38 11z"/>
<path d="M1586 1784 c-17 -16 -22 -74 -7 -74 14 0 31 25 41 59 10 35 -7 43
-34 15z"/>
<path d="M2754 1775 c-17 -27 -16 -56 4 -63 11 -3 42 53 42 78 0 19 -30 10
-46 -15z"/>
<path d="M470 1828 c0 -7 -3 -23 -6 -35 -5 -19 -2 -23 14 -23 28 0 48 36 31
56 -14 17 -39 18 -39 2z"/>
<path d="M575 1784 c-9 -9 -14 -19 -11 -21 9 -9 46 9 46 23 0 19 -15 18 -35
-2z"/>
<path d="M676 1778 c-19 -26 -21 -54 -5 -64 16 -9 38 16 45 54 5 25 3 32 -9
32 -9 0 -23 -10 -31 -22z"/>
<path d="M1040 1785 c-7 -8 -10 -19 -6 -22 9 -9 38 8 38 22 -1 16 -18 16 -32
0z"/>
<path d="M1430 1785 c-7 -8 -10 -19 -6 -22 9 -9 38 8 38 22 -1 16 -18 16 -32
0z"/>
<path d="M1836 1778 c-19 -26 -21 -54 -5 -64 16 -9 38 16 45 54 5 25 3 32 -9
32 -9 0 -23 -10 -31 -22z"/>
<path d="M2030 1785 c-7 -8 -10 -19 -6 -22 9 -9 38 8 38 22 -1 16 -18 16 -32
0z"/>
<path d="M2366 1778 c-19 -26 -21 -54 -5 -64 16 -9 38 16 45 54 5 25 3 32 -9
32 -9 0 -23 -10 -31 -22z"/>
<path d="M2650 1785 c-7 -8 -10 -18 -7 -21 9 -10 48 7 44 19 -6 18 -23 19 -37
2z"/>
<path d="M3374 1775 c-17 -27 -16 -56 4 -63 11 -3 42 53 42 78 0 19 -30 10
-46 -15z"/>
<path d="M3664 1775 c-17 -27 -16 -56 4 -63 11 -3 42 53 42 78 0 19 -30 10
-46 -15z"/>
<path d="M3930 1785 c-7 -8 -10 -19 -6 -22 9 -9 38 8 38 22 -1 16 -18 16 -32
0z"/>
<path d="M467 1252 c-22 -24 -21 -55 1 -75 23 -21 36 -21 56 -1 20 20 20 58 0
78 -20 21 -37 20 -57 -2z"/>
<path d="M3660 1245 c0 -18 5 -25 19 -25 20 0 31 17 24 38 -3 6 -13 12 -24 12
-14 0 -19 -7 -19 -25z"/>
<path d="M895 1220 c-4 -6 5 -10 20 -10 15 0 24 4 20 10 -3 6 -12 10 -20 10
-8 0 -17 -4 -20 -10z"/>
<path d="M3785 1220 c-3 -5 3 -10 14 -10 12 0 21 5 21 10 0 6 -6 10 -14 10 -8
0 -18 -4 -21 -10z"/>
<path d="M3907 1223 c-4 -3 -7 -19 -7 -35 0 -33 24 -38 40 -9 17 32 -10 68
-33 44z"/>
<path d="M4024 1216 c-10 -26 0 -51 21 -51 16 0 20 7 20 30 0 33 -30 49 -41
21z"/>
<path d="M4367 1224 c-13 -13 -7 -55 9 -61 24 -9 51 23 38 45 -12 19 -36 27
-47 16z"/>
<path d="M4860 1175 c0 -8 6 -15 14 -15 8 0 16 7 20 15 4 10 -1 15 -14 15 -11
0 -20 -7 -20 -15z"/>
<path d="M5160 1220 c0 -5 9 -10 20 -10 11 0 20 5 20 10 0 6 -9 10 -20 10 -11
0 -20 -4 -20 -10z"/>
<path d="M3655 975 c-25 -24 -25 -26 -25 -205 0 -179 0 -181 25 -205 l24 -25
1351 0 1351 0 24 25 c25 24 25 26 25 205 0 179 0 181 -25 205 l-24 25 -1351 0
-1351 0 -24 -25z m2323 -207 c-1 -79 -3 -118 -5 -89 -4 51 -5 53 -16 30 -26
-51 -97 -31 -97 27 0 51 66 73 94 32 15 -21 16 -17 16 60 0 45 2 82 5 82 3 0
4 -64 3 -142z m-1988 62 c0 -5 -4 -10 -10 -10 -5 0 -10 5 -10 10 0 6 5 10 10
10 6 0 10 -4 10 -10z m50 -19 c0 -25 3 -28 27 -23 30 6 53 -18 53 -54 0 -33
-26 -54 -65 -52 l-35 1 0 79 c0 45 4 78 10 78 6 0 10 -13 10 -29z m1270 19 c0
-5 -4 -10 -10 -10 -5 0 -10 5 -10 10 0 6 5 10 10 10 6 0 10 -4 10 -10z m120
-19 c0 -24 3 -28 20 -24 32 8 50 -15 50 -63 0 -56 -18 -57 -22 -1 -2 34 -7 42
-23 42 -16 0 -21 -8 -23 -42 -5 -75 -22 -46 -22 37 0 47 4 80 10 80 6 0 10
-13 10 -29z m240 -2 c0 -19 4 -28 11 -24 20 13 57 -5 63 -31 10 -40 -17 -74
-59 -74 l-35 0 0 80 c0 47 4 80 10 80 6 0 10 -14 10 -31z m170 21 c0 -5 -4
-10 -10 -10 -5 0 -10 5 -10 10 0 6 5 10 10 10 6 0 10 -4 10 -10z m-1620 -19
c15 -30 12 -97 -6 -115 -39 -40 -91 5 -81 70 3 20 11 42 18 50 17 20 57 17 69
-5z m860 -30 c0 -30 5 -52 13 -55 10 -5 10 -7 0 -12 -7 -3 -13 -12 -13 -20 0
-8 -4 -14 -10 -14 -5 0 -10 7 -10 15 0 10 -11 15 -35 15 -19 0 -35 3 -35 6 0
13 71 114 81 114 5 0 9 -22 9 -49z m-1230 24 c0 -8 8 -15 18 -15 16 -1 16 -1
0 -14 -23 -17 -25 -76 -3 -76 8 0 15 -5 15 -11 0 -6 -10 -9 -22 -7 -19 2 -24
10 -26 43 -2 22 -8 45 -14 52 -7 9 -7 13 1 13 6 0 11 7 11 15 0 8 5 15 10 15
6 0 10 -7 10 -15z m1110 0 c0 -8 8 -15 18 -15 16 -1 16 -1 0 -14 -23 -17 -25
-76 -3 -76 8 0 15 -5 15 -11 0 -6 -10 -9 -22 -7 -19 2 -24 10 -26 43 -2 22 -8
45 -14 52 -7 9 -7 13 1 13 6 0 11 7 11 15 0 8 5 15 10 15 6 0 10 -7 10 -15z
m410 1 c0 -8 6 -17 13 -20 10 -5 10 -7 0 -12 -15 -7 -18 -74 -3 -74 6 0 10 -4
10 -10 0 -11 -40 -14 -40 -2 -1 4 -5 27 -10 52 -5 27 -4 52 1 62 12 22 29 24
29 4z m-1420 -22 c0 -2 -9 -13 -20 -24 -11 -11 -20 -33 -20 -50 0 -16 -4 -30
-10 -30 -5 0 -10 24 -10 53 0 53 1 54 30 55 17 0 30 -1 30 -4z m40 -49 c0 -30
-4 -55 -10 -55 -5 0 -10 25 -10 55 0 30 5 55 10 55 6 0 10 -25 10 -55z m348
43 c17 -14 15 -73 -3 -88 -8 -7 -26 -10 -40 -8 -22 5 -25 2 -25 -23 0 -16 -4
-29 -10 -29 -6 0 -10 33 -10 78 l0 78 38 1 c20 1 43 -3 50 -9z m110 0 c7 -7
12 -31 12 -53 0 -42 0 -42 -39 -43 -33 -2 -41 2 -47 20 -7 24 17 48 49 48 10
0 15 5 11 11 -3 6 -17 9 -30 6 -23 -4 -31 3 -17 16 11 11 48 8 61 -5z m120 0
c17 -14 15 -73 -3 -88 -8 -7 -26 -10 -40 -8 -22 5 -25 2 -25 -23 0 -16 -4 -29
-10 -29 -6 0 -10 33 -10 78 l0 78 38 1 c20 1 43 -3 50 -9z m110 0 c7 -7 12
-31 12 -53 0 -42 0 -42 -39 -43 -33 -2 -41 2 -47 20 -7 24 17 48 49 48 10 0
15 5 11 11 -3 6 -17 9 -30 6 -23 -4 -31 3 -17 16 11 11 48 8 61 -5z m58 -10
l6 -21 19 24 c22 29 37 19 16 -12 -14 -19 -14 -25 -1 -50 8 -16 10 -29 5 -29
-6 0 -16 10 -22 22 l-12 23 -10 -23 c-6 -12 -16 -22 -23 -22 -10 0 -9 7 3 29
16 27 16 30 0 55 -15 22 -15 26 -3 26 8 0 18 -10 22 -22z m165 -2 c16 -35 4
-74 -26 -82 -34 -8 -53 1 -67 30 -9 20 -8 30 6 51 23 34 72 35 87 1z m359 -35
c0 -69 -19 -101 -60 -101 -16 0 -32 5 -35 10 -4 6 8 10 29 10 20 0 36 2 36 4
0 2 3 11 6 19 4 11 -1 13 -20 10 -35 -7 -56 13 -56 51 0 42 16 56 62 54 l38
-1 0 -56z m50 4 c0 -30 -4 -55 -10 -55 -5 0 -10 25 -10 55 0 30 5 55 10 55 6
0 10 -25 10 -55z m240 9 c0 -41 2 -45 23 -42 18 2 23 10 25 46 5 61 22 52 22
-12 l0 -54 -42 2 -43 1 -3 53 c-2 31 1 52 7 52 6 0 11 -20 11 -46z m290 -9 c0
-30 -4 -55 -10 -55 -5 0 -10 25 -10 55 0 30 5 55 10 55 6 0 10 -25 10 -55z
m-700 -45 c0 -5 -4 -10 -10 -10 -5 0 -10 5 -10 10 0 6 5 10 10 10 6 0 10 -4
10 -10z m650 0 c0 -5 -4 -10 -10 -10 -5 0 -10 5 -10 10 0 6 5 10 10 10 6 0 10
-4 10 -10z"/>
<path d="M5884 756 c-11 -28 1 -51 27 -54 28 -3 39 15 31 51 -4 21 -50 23 -58
3z"/>
<path d="M4044 756 c-10 -26 1 -51 23 -54 17 -3 24 3 29 22 3 14 3 30 -1 35
-9 16 -45 13 -51 -3z"/>
<path d="M5670 735 c0 -30 3 -35 24 -35 16 0 26 7 29 21 8 31 -2 49 -29 49
-21 0 -24 -5 -24 -35z"/>
<path d="M4156 784 c-4 -14 -4 -40 -1 -56 5 -23 12 -28 28 -26 19 3 22 9 22
53 0 43 -3 50 -21 53 -16 2 -23 -4 -28 -24z"/>
<path d="M5038 765 c-23 -30 -22 -35 2 -35 16 0 20 7 20 30 0 36 0 36 -22 5z"/>
<path d="M4275 751 c-9 -29 5 -52 29 -49 16 2 22 11 24 36 3 28 0 32 -22 32
-15 0 -27 -7 -31 -19z"/>
<path d="M4397 723 c-14 -13 -6 -24 15 -21 27 4 36 28 11 28 -11 0 -23 -3 -26
-7z"/>
<path d="M4505 751 c-9 -29 5 -52 29 -49 16 2 22 11 24 36 3 28 0 32 -22 32
-15 0 -27 -7 -31 -19z"/>
<path d="M4627 723 c-14 -13 -6 -24 15 -21 27 4 36 28 11 28 -11 0 -23 -3 -26
-7z"/>
<path d="M4828 753 c-8 -36 2 -54 30 -51 23 2 27 8 27 33 0 25 -4 31 -26 33
-19 2 -28 -2 -31 -15z"/>
<path d="M5184 756 c-10 -26 1 -51 23 -54 17 -3 24 3 29 22 3 14 3 30 -1 35
-9 16 -45 13 -51 -3z"/>
<path d="M720 735 c0 -8 4 -15 10 -15 5 0 7 7 4 15 -4 8 -8 15 -10 15 -2 0 -4
-7 -4 -15z"/>
<path d="M1380 755 c-14 -17 -4 -55 15 -55 21 0 35 32 24 53 -12 21 -23 22
-39 2z"/>
<path d="M2170 780 c0 -25 4 -31 18 -28 11 2 17 12 17 28 0 16 -6 26 -17 28
-14 3 -18 -3 -18 -28z"/>
<path d="M1685 721 c-3 -5 -1 -12 5 -16 12 -7 30 2 30 16 0 12 -27 12 -35 0z"/>
<path d="M2275 721 c-3 -5 -1 -12 5 -16 12 -7 30 2 30 16 0 12 -27 12 -35 0z"/>
<path d="M2574 756 c-10 -26 0 -51 21 -51 16 0 20 7 20 30 0 33 -30 49 -41 21z"/>
<path d="M3718 368 c-13 -20 -17 -21 -32 -9 -29 25 -40 -2 -11 -29 l25 -24 30
29 c17 16 30 35 30 42 0 21 -26 15 -42 -9z"/>
<path d="M4076 345 c-12 -13 -14 -21 -5 -36 12 -23 27 -21 43 4 8 12 7 21 -5
33 -15 14 -18 14 -33 -1z"/>
<path d="M5522 348 c-16 -16 -15 -33 4 -48 22 -19 54 12 38 37 -14 22 -27 26
-42 11z"/>
<path d="M6516 345 c-12 -13 -14 -21 -5 -36 12 -23 27 -21 43 4 8 12 7 21 -5
33 -15 14 -18 14 -33 -1z"/>
<path d="M4182 388 c-29 -29 -5 -111 25 -87 7 7 13 26 13 44 0 38 -20 61 -38
43z"/>
<path d="M4946 355 c-16 -24 -16 -25 4 -25 15 0 20 7 20 25 0 14 -2 25 -4 25
-2 0 -11 -11 -20 -25z"/>
<path d="M4282 348 c-16 -16 -15 -33 4 -48 22 -19 54 12 38 37 -14 22 -27 26
-42 11z"/>
<path d="M4385 320 c-11 -17 5 -32 21 -19 7 6 11 15 8 20 -7 12 -21 11 -29 -1z"/>
<path d="M4482 348 c-16 -16 -15 -33 4 -48 22 -19 54 12 38 37 -14 22 -27 26
-42 11z"/>
<path d="M4585 320 c-11 -17 5 -32 21 -19 7 6 11 15 8 20 -7 12 -21 11 -29 -1z"/>
<path d="M4773 353 c-19 -7 -16 -50 4 -57 24 -10 46 21 32 45 -10 19 -15 21
-36 12z"/>
<path d="M5093 353 c-7 -3 -13 -15 -13 -28 0 -24 16 -35 38 -28 6 3 12 15 12
28 0 24 -16 35 -37 28z"/>
<path d="M5715 344 c-8 -9 -15 -17 -15 -19 0 -2 7 -10 15 -19 20 -20 45 -10
45 19 0 29 -25 39 -45 19z"/>
<path d="M6665 350 c-4 -6 6 -10 22 -10 22 0 25 2 13 10 -19 12 -27 12 -35 0z"/>
</g>
</svg>
