<?xml version="1.0" standalone="no"?>
<!DOCTYPE svg PUBLIC "-//W3C//DTD SVG 20010904//EN"
 "http://www.w3.org/TR/2001/REC-SVG-20010904/DTD/svg10.dtd">
<svg version="1.0" xmlns="http://www.w3.org/2000/svg"
 width="537.000000pt" height="599.000000pt" viewBox="0 0 537.000000 599.000000"
 preserveAspectRatio="xMidYMid meet">

<g transform="translate(0.000000,599.000000) scale(0.100000,-0.100000)"
fill="#000000" stroke="none">
<path d="M0 3197 c0 -2221 3 -2796 13 -2806 9 -11 9 -13 0 -7 -10 5 -13 -4
-13 -34 0 -30 3 -39 13 -34 9 6 9 4 0 -7 -7 -7 -13 -34 -13 -61 0 -41 2 -47
18 -41 14 5 13 3 -3 -10 -19 -15 -19 -16 -1 -36 11 -12 14 -21 8 -21 -6 0 -13
6 -15 13 -3 6 -6 -6 -6 -28 -1 -23 5 -47 12 -54 7 -9 8 -11 1 -7 -8 4 -12 -6
-12 -29 l0 -35 2087 0 c1656 0 2090 3 2100 13 11 10 13 10 7 0 -6 -10 114 -13
583 -13 l591 0 0 2120 0 2119 -57 4 -58 3 58 2 57 2 0 870 0 870 -2685 0
-2685 0 0 -2793z m1925 2766 c-11 -3 -23 -10 -27 -17 -5 -7 -8 -7 -8 0 0 16
11 24 34 23 20 -1 20 -1 1 -6z m2414 -45 c-1 -32 -4 -45 -7 -33 -4 11 -16 20
-27 20 -23 0 -32 30 -15 50 7 8 21 15 31 15 16 0 19 -7 18 -52z m475 33 c3 -4
-6 -6 -19 -3 -14 2 -25 6 -25 8 0 8 39 4 44 -5z m-2888 -49 c-10 -2 -22 0 -28
6 -6 6 0 7 19 4 21 -5 23 -7 9 -10z m2871 2 c-3 -3 -12 -4 -19 -1 -8 3 -5 6 6
6 11 1 17 -2 13 -5z m-2579 -91 c-3 -50 -6 -58 -23 -58 -15 0 -22 10 -29 38
-20 81 -46 20 -46 -109 0 -52 0 -53 33 -56 20 -2 32 -8 32 -18 0 -12 -18 -16
-87 -18 -83 -3 -88 -2 -88 18 0 16 6 20 30 20 30 0 30 1 30 54 0 96 -11 146
-31 146 -13 0 -19 -9 -21 -37 -2 -30 -7 -38 -23 -38 -17 0 -20 8 -23 58 l-3
57 126 0 126 0 -3 -57z m231 42 c49 -25 58 -99 16 -131 -13 -10 -10 -17 16
-50 17 -21 40 -42 51 -46 29 -12 16 -33 -22 -36 -24 -3 -38 2 -47 14 -41 56
-64 74 -93 72 -24 -2 -30 -7 -30 -24 0 -16 7 -24 23 -26 12 -2 22 -10 22 -18
0 -20 -136 -22 -143 -2 -2 7 5 16 17 19 20 5 21 12 21 104 0 80 -3 99 -14 99
-18 0 -29 16 -21 30 10 16 172 12 204 -5z m335 1 l27 -13 -32 -7 c-17 -3 -42
-6 -55 -6 -24 0 -24 -1 -24 -100 0 -82 3 -100 15 -100 10 0 15 11 16 33 0 26
2 28 8 12 5 -11 6 -25 4 -31 -2 -6 6 -14 17 -17 13 -3 20 -12 18 -19 -4 -10
-32 -13 -109 -13 -86 0 -104 3 -104 15 0 10 12 16 38 18 l37 3 0 100 0 99 -34
0 c-36 0 -52 12 -41 30 10 15 188 12 219 -4z m246 -1 c32 -17 45 -50 37 -93
-3 -17 1 -34 10 -44 25 -28 19 -79 -12 -106 -25 -21 -35 -22 -133 -20 -76 2
-107 7 -110 16 -2 8 6 16 18 19 22 6 22 8 16 101 -6 70 -12 99 -23 107 -32 23
-3 35 83 35 56 0 95 -5 114 -15z m287 -6 c43 -27 63 -66 63 -126 0 -138 -143
-191 -239 -89 -34 36 -40 118 -12 164 44 69 124 91 188 51z m1536 -6 c-13 -2
-33 -2 -45 0 -13 2 -3 4 22 4 25 0 35 -2 23 -4z m-483 -10 c-19 -3 -44 -12
-55 -21 -20 -17 -20 -17 -1 6 14 16 29 22 55 20 l36 -1 -35 -4z m323 0 c-13
-2 -35 -2 -50 0 -16 2 -5 4 22 4 28 0 40 -2 28 -4z m-2754 -75 c-1 -32 -4 -45
-7 -33 -4 11 -16 20 -27 20 -23 0 -32 30 -15 50 7 8 21 15 31 15 16 0 19 -7
18 -52z m3041 48 c0 -2 -11 -6 -25 -8 -13 -3 -22 -1 -19 3 5 9 44 13 44 5z
m-610 -20 c0 -2 -8 -10 -17 -17 -16 -13 -17 -12 -4 4 13 16 21 21 21 13z m501
-13 c13 -16 12 -17 -3 -4 -10 7 -18 15 -18 17 0 8 8 3 21 -13z m95 -31 c-10
-2 -22 0 -28 6 -6 6 0 7 19 4 21 -5 23 -7 9 -10z m-3039 -94 c-2 -13 -4 -5 -4
17 -1 22 1 32 4 23 2 -10 2 -28 0 -40z m36 -47 c-10 -9 -13 -10 -5 -1 6 7 13
34 14 60 l1 45 4 -44 c3 -33 0 -48 -14 -60z m2364 47 c-2 -13 -4 -5 -4 17 -1
22 1 32 4 23 2 -10 2 -28 0 -40z m36 -47 c-10 -9 -13 -10 -5 -1 6 7 13 34 14
60 l1 45 4 -44 c3 -33 0 -48 -14 -60z m-4155 82 c-10 -2 -28 -2 -40 0 -13 2
-5 4 17 4 22 1 32 -1 23 -4z m4500 0 c-15 -2 -42 -2 -60 0 -18 2 -6 4 27 4 33
0 48 -2 33 -4z m305 -10 c-13 -2 -35 -2 -50 0 -16 2 -5 4 22 4 28 0 40 -2 28
-4z m-4843 -163 c0 -5 -5 -10 -11 -10 -5 0 -7 5 -4 10 3 6 8 10 11 10 2 0 4
-4 4 -10z m1769 -4 c17 -20 10 -67 -11 -79 -23 -15 -48 8 -48 42 0 45 35 66
59 37z m2715 -25 c4 -5 -3 -7 -14 -4 -23 6 -26 13 -6 13 8 0 17 -4 20 -9z
m166 -27 c0 -33 -2 -35 -27 -32 -34 4 -38 32 -5 36 26 4 29 19 5 25 -14 4 -12
5 5 6 19 1 22 -4 22 -35z m-4630 -10 c0 -2 -16 -4 -35 -4 -19 0 -35 4 -35 8 0
4 16 6 35 4 19 -2 35 -6 35 -8z m4463 9 c-7 -2 -21 -2 -30 0 -10 3 -4 5 12 5
17 0 24 -2 18 -5z m-16 -29 c-3 -3 -12 -4 -19 -1 -8 3 -5 6 6 6 11 1 17 -2 13
-5z m170 -96 c-2 -13 -4 -5 -4 17 -1 22 1 32 4 23 2 -10 2 -28 0 -40z m36 -47
c-10 -9 -13 -10 -5 -1 6 7 13 34 14 60 l1 45 4 -44 c3 -33 0 -48 -14 -60z
m-2833 81 c0 -5 -10 -17 -22 -28 l-23 -19 19 22 18 22 -58 4 -59 3 63 2 c34 1
62 -2 62 -6z m2940 -52 c5 0 12 5 15 10 3 6 11 10 18 10 6 0 2 -6 -8 -14 -19
-14 -19 -15 -1 -35 11 -12 14 -21 7 -21 -6 0 -14 7 -17 15 -8 20 -21 19 -27
-2 -3 -10 -4 9 -4 42 0 33 2 45 4 28 2 -18 8 -33 13 -33z m-260 43 c-19 -3
-44 -12 -55 -21 -20 -17 -20 -17 -1 6 14 16 29 22 55 20 l36 -1 -35 -4z
m-2761 -77 c-23 -20 -23 -20 -6 0 9 11 18 31 18 45 l2 24 4 -24 c3 -16 -3 -31
-18 -45z m-1739 50 c0 -2 -7 -7 -16 -10 -8 -3 -12 -2 -9 4 6 10 25 14 25 6z
m-20 -41 c13 -14 21 -25 17 -25 -3 0 -17 11 -31 25 -14 14 -22 25 -17 25 4 0
18 -11 31 -25z m4477 -135 c-11 -27 -24 -50 -28 -50 -4 0 1 18 12 40 24 49 24
48 -8 53 -23 3 -22 4 9 6 l36 1 -21 -50z m-4482 13 c-11 -3 -23 -10 -27 -17
-5 -7 -8 -7 -8 0 0 16 11 24 34 23 20 -1 20 -1 1 -6z m4798 -3 c-13 -5 -23
-18 -23 -29 0 -12 8 -21 23 -24 21 -5 21 -5 -2 -4 -52 4 -49 68 3 66 21 0 21
0 -1 -9z m-4797 -58 c-10 -2 -22 0 -28 6 -6 6 0 7 19 4 21 -5 23 -7 9 -10z m1
-112 c-11 -27 -24 -50 -28 -50 -4 0 1 18 12 40 24 49 24 48 -8 53 -23 3 -22 4
9 6 l36 1 -21 -50z m4495 10 c4 -45 -7 -73 -19 -54 -5 7 -18 14 -31 15 l-22 4
25 38 c14 20 30 37 34 37 5 0 11 -18 13 -40z m318 -26 c0 -33 -2 -35 -27 -32
-34 4 -38 32 -5 36 26 4 29 19 5 25 -14 4 -12 5 5 6 19 1 22 -4 22 -35z m-250
-92 c0 -5 -10 -17 -22 -28 l-23 -19 19 22 18 22 -58 4 -59 3 63 2 c34 1 62 -2
62 -6z m-81 -86 c-23 -20 -23 -20 -6 0 9 11 18 31 18 45 l2 24 4 -24 c3 -16
-3 -31 -18 -45z m-4469 18 c0 -33 -2 -35 -27 -32 -34 4 -38 32 -5 36 26 4 29
19 5 25 -14 4 -12 5 5 6 19 1 22 -4 22 -35z m1233 -41 c-7 -2 -19 -2 -25 0 -7
3 -2 5 12 5 14 0 19 -2 13 -5z m70 0 c-7 -2 -13 -22 -13 -43 0 -21 -6 -43 -15
-50 -18 -15 -47 -10 -52 10 -4 12 -3 12 5 2 5 -8 18 -12 28 -10 24 4 33 76 12
89 -9 6 -3 8 17 8 17 0 24 -3 18 -6z m97 -20 c0 -5 -13 -8 -29 -8 -16 0 -27 3
-24 8 2 4 15 7 29 7 13 0 24 -3 24 -7z m111 -10 c13 -15 12 -15 -8 -2 -20 12
-26 12 -45 0 -21 -13 -22 -13 -9 2 7 10 21 17 31 17 10 0 24 -7 31 -17z m79 5
c0 -9 3 -9 12 0 15 15 38 16 38 1 0 -5 -5 -7 -10 -4 -16 10 -40 -14 -40 -41 0
-16 7 -24 23 -27 12 -2 4 -5 -18 -5 -22 0 -34 2 -27 5 6 2 12 20 12 38 0 18
-6 36 -12 38 -8 3 -6 6 5 6 9 1 17 -4 17 -11z m-190 -33 c10 -12 10 -18 0 -30
-15 -18 -70 -16 -70 2 0 10 4 11 19 2 22 -14 55 -5 49 14 -3 6 -18 15 -34 18
-29 7 -29 7 -3 8 15 0 32 -6 39 -14z m103 -2 c-13 -2 -33 -2 -45 0 -13 2 -3 4
22 4 25 0 35 -2 23 -4z m-8 -31 c13 3 22 1 19 -3 -9 -15 -51 -10 -65 9 -13 15
-12 16 3 3 10 -7 29 -11 43 -9z m-1495 -28 c0 -33 -2 -35 -27 -32 -34 4 -38
32 -5 36 26 4 29 19 5 25 -14 4 -12 5 5 6 19 1 22 -4 22 -35z m3772 -261 c16
-14 18 -34 18 -191 0 -149 -2 -178 -17 -194 -15 -17 -68 -18 -1281 -18 -1163
0 -1267 1 -1284 17 -16 14 -18 34 -18 191 0 149 2 178 17 194 15 17 68 18
1281 18 1163 0 1267 -1 1284 -17z m1386 10 c-16 -2 -40 -2 -55 0 -16 2 -3 4
27 4 30 0 43 -2 28 -4z m-68 -568 c8 0 18 13 21 30 l7 30 1 -32 c1 -24 -4 -33
-20 -38 -25 -8 -39 9 -38 45 1 22 2 22 8 -5 3 -17 13 -30 21 -30z m27 -140 c1
-17 0 -24 -3 -17 -6 14 -44 17 -44 3 0 -5 8 -12 18 -15 13 -4 13 -4 -3 -3 -27
3 -25 31 3 35 26 4 29 18 5 26 -14 4 -14 4 2 3 15 -2 21 -10 22 -32z m-3015
-83 l3 -58 -37 -1 c-21 -1 -40 1 -42 5 -2 4 7 8 21 7 14 0 30 7 36 17 15 23
-9 51 -40 45 -13 -2 -20 0 -16 5 3 6 18 7 34 4 21 -4 29 -2 29 8 0 8 -6 17
-12 19 -8 4 -7 6 4 6 13 1 17 -11 20 -57z m-811 32 c16 -20 1 -48 -30 -52 -25
-4 -28 -29 -3 -35 9 -3 1 -5 -18 -5 -19 0 -29 2 -22 5 7 3 12 23 12 48 0 25
-5 45 -12 48 -7 3 3 6 23 6 22 1 42 -5 50 -15z m95 -12 c6 -4 13 -23 16 -43 4
-35 3 -36 -31 -37 -19 -1 -38 4 -42 10 -11 18 10 38 38 38 31 0 26 22 -8 31
-20 6 -21 7 -4 8 11 0 25 -3 31 -7z m134 -4 c0 -4 -13 -5 -30 -1 -19 3 -30 1
-30 -6 0 -6 8 -11 19 -11 24 0 45 -25 37 -45 -6 -16 -51 -21 -60 -7 -3 5 9 6
26 4 25 -4 29 -2 26 14 -2 10 -12 20 -23 22 -48 9 -43 44 6 40 16 -1 29 -6 29
-10z m110 5 c0 -5 -13 -8 -29 -8 -16 0 -27 3 -24 8 2 4 15 7 29 7 13 0 24 -3
24 -7z m53 -13 c-3 -11 -7 -20 -8 -20 -1 0 -5 9 -8 20 -3 12 0 20 8 20 8 0 11
-8 8 -20z m87 16 c0 -11 -19 -15 -25 -6 -3 5 1 10 9 10 9 0 16 -2 16 -4z m88
-8 c26 -26 8 -78 -27 -78 -18 0 -51 29 -51 46 0 34 54 56 78 32z m127 2 c3 -6
-1 -7 -10 -4 -8 4 -23 0 -33 -7 -15 -13 -16 -12 -3 4 15 19 36 22 46 7z m-355
-35 c10 -12 10 -18 0 -30 -15 -18 -70 -16 -70 2 0 10 4 11 19 2 22 -14 55 -5
49 14 -3 6 -18 15 -34 18 -29 7 -29 7 -3 8 15 0 32 -6 39 -14z m110 -6 c0 13
3 22 6 18 4 -3 3 -19 -1 -34 -6 -25 -8 -26 -19 -11 -7 10 -16 15 -19 11 -4 -3
-7 0 -7 9 0 26 14 29 27 6 l12 -23 1 24z m277 -1 c-3 -8 -6 -5 -6 6 -1 11 2
17 5 13 3 -3 4 -12 1 -19z m3102 -2 c17 -20 10 -67 -11 -79 -23 -15 -48 8 -48
42 0 45 35 66 59 37z m-3419 -28 c0 -5 -4 -8 -10 -8 -5 0 -10 10 -10 23 0 18
2 19 10 7 5 -8 10 -18 10 -22z m258 -5 c-10 -2 -28 -2 -40 0 -13 2 -5 4 17 4
22 1 32 -1 23 -4z m3161 -195 c-1 -32 -4 -45 -7 -33 -4 11 -16 20 -27 20 -23
0 -32 30 -15 50 7 8 21 15 31 15 16 0 19 -7 18 -52z m-1347 -85 c16 -14 18
-34 18 -191 0 -149 -2 -178 -17 -194 -15 -17 -68 -18 -1281 -18 -1163 0 -1267
1 -1284 17 -16 14 -18 34 -18 191 0 149 2 178 17 194 15 17 68 18 1281 18
1163 0 1267 -1 1284 -17z m-2794 0 c-10 -2 -28 -2 -40 0 -13 2 -5 4 17 4 22 1
32 -1 23 -4z m9 -159 c-3 -3 -12 -4 -19 -1 -8 3 -5 6 6 6 11 1 17 -2 13 -5z
m-34 -246 c7 -4 -1 -7 -18 -7 -16 0 -24 3 -17 6 7 2 13 25 14 51 l1 47 4 -45
c3 -24 10 -48 16 -52z m-6 -118 c-11 -27 -24 -50 -28 -50 -4 0 1 18 12 40 24
49 24 48 -8 53 -23 3 -22 4 9 6 l36 1 -21 -50z m-17 -195 c8 0 18 13 21 30 l7
30 1 -32 c1 -24 -4 -33 -20 -38 -25 -8 -39 9 -38 45 1 22 2 22 8 -5 3 -17 13
-30 21 -30z m592 -64 l3 -58 -30 -1 c-31 -1 -55 13 -55 31 0 6 6 3 13 -7 21
-28 52 -17 52 19 0 36 -31 47 -52 19 -7 -10 -13 -13 -13 -7 0 18 29 36 51 30
17 -5 20 -2 16 14 -3 10 -1 19 3 19 5 0 10 -26 12 -59z m-222 32 c0 -10 -6
-10 -24 -1 -39 17 -58 4 -54 -39 2 -31 7 -39 26 -41 13 -2 31 2 40 10 15 12
16 11 3 -4 -16 -21 -51 -24 -69 -6 -15 15 -16 70 0 86 15 15 78 11 78 -5z m98
-15 c26 -26 8 -78 -27 -78 -18 0 -51 29 -51 46 0 34 54 56 78 32z m225 4 c3
-4 -9 -7 -25 -7 -17 0 -33 -6 -36 -14 -3 -10 5 -12 37 -9 22 2 41 0 41 -3 0
-4 -20 -9 -45 -11 -36 -2 -45 0 -45 12 0 9 5 21 12 28 13 13 54 16 61 4z
m-680 -72 c-13 -5 -23 -18 -23 -29 0 -12 8 -21 23 -24 21 -5 21 -5 -2 -4 -52
4 -49 68 3 66 21 0 21 0 -1 -9z m690 -2 c-2 -5 -17 -8 -33 -8 -16 0 -31 3 -33
8 -3 4 12 7 33 7 21 0 36 -3 33 -7z m-663 -123 c0 -13 -45 -95 -52 -95 -5 0 1
18 12 40 25 49 25 48 -7 53 -23 3 -21 4 10 6 20 0 37 -1 37 -4z m2392 -162
c16 -14 18 -34 18 -191 0 -149 -2 -178 -17 -194 -15 -17 -62 -18 -1076 -18
-973 0 -1062 1 -1079 17 -16 14 -18 34 -18 191 0 149 2 178 17 194 15 17 62
18 1076 18 973 0 1062 -1 1079 -17z m410 -570 c16 -14 18 -34 18 -191 0 -149
-2 -178 -17 -194 -15 -17 -68 -18 -1281 -18 -1163 0 -1267 1 -1284 17 -16 14
-18 34 -18 191 0 149 2 178 17 194 15 17 68 18 1281 18 1163 0 1267 -1 1284
-17z m-3624 -550 c-10 -2 -26 -2 -35 0 -10 3 -2 5 17 5 19 0 27 -2 18 -5z m45
-310 c-13 -2 -33 -2 -45 0 -13 2 -3 4 22 4 25 0 35 -2 23 -4z m18 -70 c13 -16
12 -17 -3 -4 -10 7 -18 15 -18 17 0 8 8 3 21 -13z m1053 -61 c2 -4 -11 -6 -30
-4 -19 2 -34 6 -34 8 0 8 59 4 64 -4z m471 -15 c18 -4 18 -5 -2 -6 -18 -1 -23
-7 -23 -27 0 -23 3 -26 26 -21 16 3 22 1 16 -5 -18 -18 -47 -4 -53 27 -6 33 0
62 10 47 3 -5 15 -12 26 -15z m-1566 -37 c4 0 16 -7 27 -16 18 -15 18 -15 -3
-5 -31 15 -31 15 -36 -26 -2 -21 -4 -6 -4 32 0 39 2 58 4 43 2 -16 8 -28 12
-28z m1195 32 c3 -5 -8 -6 -25 -4 -16 2 -29 6 -29 8 0 8 49 4 54 -4z m99 -10
c-4 -9 -9 -10 -19 -1 -8 6 -21 9 -29 5 -9 -3 -13 -2 -10 4 9 14 63 7 58 -8z
m77 -11 c0 -20 6 -31 18 -34 9 -3 -1 -5 -23 -5 -22 0 -32 2 -22 5 20 5 24 49
5 56 -8 3 -6 6 5 6 12 1 17 -7 17 -28z m120 19 c0 -6 -11 -8 -25 -4 -15 4 -25
2 -25 -4 0 -6 10 -12 23 -14 32 -4 28 -33 -6 -34 -25 -1 -25 -1 -2 3 29 5 34
23 6 23 -22 0 -35 15 -26 30 8 13 55 13 55 0z m184 2 c3 -5 -8 -6 -25 -4 -16
2 -29 6 -29 8 0 8 49 4 54 -4z m89 -3 c-27 -10 -31 -46 -5 -52 9 -3 1 -5 -18
-5 -19 0 -29 2 -22 5 6 2 12 15 12 28 0 13 -6 25 -12 28 -7 2 5 4 27 5 33 0
36 -2 18 -9z m-668 -10 c-4 -5 1 -19 11 -30 9 -10 13 -19 8 -19 -5 0 -15 9
-22 20 -7 11 -20 20 -30 21 -11 1 -9 4 8 9 14 4 26 8 28 9 2 1 0 -4 -3 -10z
m75 -19 c-27 -5 -31 -8 -17 -14 9 -5 24 -5 33 -2 8 3 12 2 9 -4 -8 -14 -38
-13 -53 2 -23 23 -13 34 26 29 l37 -5 -35 -6z m480 0 c-27 -5 -31 -8 -17 -14
9 -5 24 -5 33 -2 8 3 12 2 9 -4 -8 -14 -38 -13 -53 2 -23 23 -13 34 26 29 l37
-5 -35 -6z m-363 -27 c-2 -22 -8 -28 -27 -30 -22 -1 -23 -1 -2 4 27 5 29 23 3
23 -11 0 -22 4 -25 9 -3 4 6 6 19 3 15 -2 25 0 25 7 0 6 2 11 4 11 3 0 4 -12
3 -27z m-224 0 c-7 -2 -19 -2 -25 0 -7 3 -2 5 12 5 14 0 19 -2 13 -5z m-1003
-113 c-8 -5 -37 -9 -65 -8 l-50 1 55 7 c30 4 60 7 65 8 6 1 3 -3 -5 -8z m3823
3 c-13 -2 -33 -2 -45 0 -13 2 -3 4 22 4 25 0 35 -2 23 -4z m-4205 -58 c-3 -3
-9 2 -12 12 -6 14 -5 15 5 6 7 -7 10 -15 7 -18z m342 2 c0 -2 -10 -12 -22 -23
l-23 -19 19 23 c18 21 26 27 26 19z m40 -105 c0 -5 -10 -17 -22 -28 l-23 -19
19 22 18 22 -58 4 -59 3 63 2 c34 1 62 -2 62 -6z m3808 1 c-10 -2 -26 -2 -35
0 -10 3 -2 5 17 5 19 0 27 -2 18 -5z m-3889 -87 c-23 -20 -23 -20 -6 0 9 11
18 31 18 45 l2 24 4 -24 c3 -16 -3 -31 -18 -45z m3884 -83 c-13 -2 -35 -2 -50
0 -16 2 -5 4 22 4 28 0 40 -2 28 -4z m-4183 -43 c0 -11 -2 -20 -4 -20 -2 0 -6
9 -9 20 -3 11 -1 20 4 20 5 0 9 -9 9 -20z"/>
<path d="M4293 5944 c-7 -18 11 -39 26 -30 17 11 13 46 -4 46 -9 0 -18 -7 -22
-16z"/>
<path d="M2340 5801 c0 -30 18 -41 66 -41 18 0 34 17 34 35 0 15 -38 35 -66
35 -31 0 -34 -3 -34 -29z"/>
<path d="M2920 5813 c1 -44 47 -68 76 -39 31 32 11 56 -47 56 -21 0 -29 -5
-29 -17z"/>
<path d="M2943 5699 c16 -9 16 -12 2 -32 -22 -31 -19 -37 19 -37 47 0 66 9 66
31 0 21 -20 34 -70 42 -27 5 -31 4 -17 -4z"/>
<path d="M3199 5801 c-24 -24 -29 -38 -29 -76 0 -38 5 -52 29 -76 36 -35 61
-37 98 -5 25 21 28 31 28 81 0 50 -3 60 -28 81 -37 32 -62 30 -98 -5z"/>
<path d="M1893 5784 c-7 -18 11 -39 26 -30 17 11 13 46 -4 46 -9 0 -18 -7 -22
-16z"/>
<path d="M1897 5503 c-4 -3 -7 -15 -7 -27 0 -15 3 -17 12 -8 7 7 17 12 22 12
6 0 0 -7 -12 -16 -23 -16 -21 -34 3 -34 17 0 26 26 19 56 -6 23 -23 31 -37 17z"/>
<path d="M4780 5440 c0 -5 7 -10 15 -10 8 0 15 5 15 10 0 6 -7 10 -15 10 -8 0
-15 -4 -15 -10z"/>
<path d="M4622 4995 c-10 -21 -9 -25 3 -25 9 0 15 10 15 25 0 14 -2 25 -3 25
-2 0 -9 -11 -15 -25z"/>
<path d="M4940 4960 c0 -5 7 -10 15 -10 8 0 15 5 15 10 0 6 -7 10 -15 10 -8 0
-15 -4 -15 -10z"/>
<path d="M140 4800 c0 -5 7 -10 15 -10 8 0 15 5 15 10 0 6 -7 10 -15 10 -8 0
-15 -4 -15 -10z"/>
<path d="M140 4640 c0 -5 7 -10 15 -10 8 0 15 5 15 10 0 6 -7 10 -15 10 -8 0
-15 -4 -15 -10z"/>
<path d="M1394 4377 c-2 -7 -3 -91 -2 -187 l3 -175 1275 0 1275 0 0 185 0 185
-1273 3 c-1031 2 -1274 0 -1278 -11z m273 -199 c-2 -18 -4 -4 -4 32 0 36 2 50
4 33 2 -18 2 -48 0 -65z m93 31 l0 -60 -32 3 c-31 3 -33 5 -33 43 0 34 3 40
23 43 12 2 22 10 22 18 0 8 5 14 10 14 6 0 10 -27 10 -61z m-240 -12 c0 -10 5
-15 10 -12 6 3 10 -1 10 -9 0 -32 -19 -25 -29 11 -6 21 -11 43 -11 48 0 18 20
-19 20 -38z m65 11 c4 17 11 32 15 32 8 0 -11 -74 -22 -85 -3 -4 -9 4 -13 17
-4 13 -12 26 -18 29 -5 4 -7 15 -2 25 6 16 9 14 20 -16 l13 -35 7 33z m42 -35
c-2 -16 -4 -5 -4 22 0 28 2 40 4 28 2 -13 2 -35 0 -50z"/>
<path d="M1704 4216 c-9 -23 0 -51 17 -54 17 -3 28 21 21 51 -4 21 -30 23 -38
3z"/>
<path d="M1420 3625 c0 -22 4 -26 23 -23 14 2 22 10 22 23 0 13 -8 21 -22 23
-19 3 -23 -1 -23 -23z"/>
<path d="M1515 3580 c-8 -13 20 -24 40 -16 8 3 15 10 15 16 0 13 -47 13 -55 0z"/>
<path d="M1980 3615 c-18 -22 -1 -50 31 -50 20 0 24 5 24 30 0 23 -5 31 -21
33 -11 2 -27 -4 -34 -13z"/>
<path d="M5257 3583 c-4 -3 -7 -15 -7 -27 0 -15 3 -17 12 -8 7 7 17 12 22 12
6 0 0 -7 -12 -16 -23 -16 -21 -34 3 -34 17 0 26 26 19 56 -6 23 -23 31 -37 17z"/>
<path d="M5253 3384 c-7 -18 11 -39 26 -30 17 11 13 46 -4 46 -9 0 -18 -7 -22
-16z"/>
<path d="M1394 3257 c-2 -7 -3 -91 -2 -187 l3 -175 1275 0 1275 0 0 185 0 185
-1273 3 c-1031 2 -1274 0 -1278 -11z m146 -167 c0 -11 -7 -20 -15 -20 -8 0
-15 9 -15 20 0 11 7 20 15 20 8 0 15 -9 15 -20z m56 9 c10 -17 -13 -36 -27
-22 -12 12 -4 33 11 33 5 0 12 -5 16 -11z m54 -9 c0 -11 -7 -20 -15 -20 -8 0
-15 9 -15 20 0 11 7 20 15 20 8 0 15 -9 15 -20z m56 9 c10 -17 -13 -36 -27
-22 -12 12 -4 33 11 33 5 0 12 -5 16 -11z m59 -9 c0 -8 -8 -16 -17 -18 -13 -2
-18 3 -18 18 0 15 5 20 18 18 9 -2 17 -10 17 -18z m55 0 c0 -11 -7 -20 -15
-20 -8 0 -15 9 -15 20 0 11 7 20 15 20 8 0 15 -9 15 -20z m56 9 c10 -17 -13
-36 -27 -22 -12 12 -4 33 11 33 5 0 12 -5 16 -11z m54 -9 c0 -11 -7 -20 -15
-20 -8 0 -15 9 -15 20 0 11 7 20 15 20 8 0 15 -9 15 -20z m56 9 c10 -17 -13
-36 -27 -22 -12 12 -4 33 11 33 5 0 12 -5 16 -11z"/>
<path d="M1520 2495 c-18 -22 -1 -50 31 -50 20 0 24 5 24 30 0 23 -5 31 -21
33 -11 2 -27 -4 -34 -13z"/>
<path d="M1394 2137 c-2 -7 -3 -91 -2 -187 l3 -175 1070 0 1070 0 0 185 0 185
-1068 3 c-864 2 -1069 0 -1073 -11z"/>
<path d="M2450 1400 l0 -70 56 0 c34 0 53 4 49 10 -3 6 -24 10 -46 10 -32 0
-39 3 -39 20 0 17 7 20 40 20 22 0 40 5 40 10 0 6 -18 10 -40 10 -33 0 -40 3
-40 20 0 17 7 20 40 20 22 0 40 5 40 10 0 6 -22 10 -50 10 l-50 0 0 -70z"/>
<path d="M2693 1446 c-5 -9 -6 -37 -3 -63 4 -37 9 -49 25 -52 16 -3 17 -1 7
12 -7 8 -11 35 -11 61 2 51 -4 66 -18 42z"/>
<path d="M2580 1379 c0 -27 5 -49 10 -49 6 0 10 18 10 39 0 24 5 41 14 44 20
8 26 -2 26 -45 0 -21 5 -38 11 -38 6 0 9 19 7 48 -3 47 -3 47 -40 49 l-38 1 0
-49z"/>
<path d="M2744 1405 c-15 -23 -15 -27 0 -50 17 -26 59 -34 71 -14 10 16 -3 23
-18 11 -10 -9 -18 -8 -33 3 -18 13 -16 14 24 15 46 0 50 5 26 38 -20 29 -50
28 -70 -3z m60 -16 c-3 -5 -14 -9 -25 -9 -21 0 -26 26 -6 33 15 5 39 -12 31
-24z"/>
<path d="M2851 1375 c1 -47 2 -48 8 -15 9 44 19 62 32 55 5 -4 9 -1 9 4 0 6
-11 10 -25 9 -23 -2 -25 -6 -24 -53z"/>
</g>
</svg>
