<?xml version="1.0" standalone="no"?>
<!DOCTYPE svg PUBLIC "-//W3C//DTD SVG 20010904//EN"
 "http://www.w3.org/TR/2001/REC-SVG-20010904/DTD/svg10.dtd">
<svg version="1.0" xmlns="http://www.w3.org/2000/svg"
 width="572.000000pt" height="546.000000pt" viewBox="0 0 572.000000 546.000000"
 preserveAspectRatio="xMidYMid meet">

<g transform="translate(0.000000,546.000000) scale(0.100000,-0.100000)"
fill="#000000" stroke="none">
<path d="M0 2896 c0 -2508 0 -2564 19 -2559 10 3 21 1 24 -4 3 -5 -4 -9 -16
-9 -16 1 -23 -6 -25 -23 -3 -17 0 -21 10 -15 10 6 10 5 -1 -9 -11 -14 -11 -18
2 -23 9 -3 21 -2 28 2 8 5 9 3 4 -5 -4 -7 -16 -10 -26 -8 -19 5 -19 -1 -17
-116 3 -113 4 -122 23 -124 l20 -3 -20 9 c-16 8 -17 10 -3 10 9 1 20 -4 23 -9
10 -16 4260 -14 4285 2 15 10 22 10 32 0 9 -9 167 -12 685 -12 l673 0 0 2730
0 2730 -285 0 -285 0 0 -44 c0 -34 4 -46 18 -49 9 -3 -1 -5 -23 -5 -22 0 -32
2 -22 5 12 3 17 15 17 40 0 29 -3 34 -17 29 -16 -5 -16 -5 0 8 16 12 -44 14
-448 15 l-466 2 2 -46 c3 -45 -6 -68 -19 -48 -4 6 -17 13 -30 14 l-22 4 25 37
25 38 -2095 0 -2095 0 0 -2564z m5004 2515 c3 -4 -6 -6 -19 -3 -14 2 -25 6
-25 8 0 8 39 4 44 -5z m-17 -47 c-3 -3 -12 -4 -19 -1 -8 3 -5 6 6 6 11 1 17
-2 13 -5z m391 -61 c-15 -2 -42 -2 -60 0 -18 2 -6 4 27 4 33 0 48 -2 33 -4z
m-4225 -10 c-7 -2 -19 -2 -25 0 -7 3 -2 5 12 5 14 0 19 -2 13 -5z m1290 0 c-7
-2 -21 -2 -30 0 -10 3 -4 5 12 5 17 0 24 -2 18 -5z m1750 0 c-24 -5 -32 -33
-10 -33 7 0 18 -5 25 -12 18 -18 -4 -48 -36 -47 l-27 1 25 7 c32 9 40 41 11
41 -16 0 -21 6 -21 25 0 21 4 25 28 24 23 -2 24 -2 5 -6z m810 -85 c7 -4 -1
-7 -18 -7 -16 0 -24 3 -17 6 7 2 13 25 14 51 l1 47 4 -45 c3 -24 10 -48 16
-52z m-3839 43 c3 -4 -6 -6 -19 -3 -14 2 -25 6 -25 8 0 8 39 4 44 -5z m1280 0
c3 -4 -6 -6 -19 -3 -14 2 -25 6 -25 8 0 8 39 4 44 -5z m804 -28 c-10 -2 -28
-2 -40 0 -13 2 -5 4 17 4 22 1 32 -1 23 -4z m-2101 -19 c-3 -3 -12 -4 -19 -1
-8 3 -5 6 6 6 11 1 17 -2 13 -5z m1280 0 c-3 -3 -12 -4 -19 -1 -8 3 -5 6 6 6
11 1 17 -2 13 -5z m2566 -71 c-28 -5 -30 -29 -3 -36 13 -3 20 -13 19 -29 -2
-23 -2 -23 -6 0 -3 14 -12 22 -24 22 -14 0 -19 7 -19 25 0 21 4 25 28 24 23
-2 24 -2 5 -6z m-2543 -50 c0 -46 11 -72 32 -79 45 -14 53 -99 13 -130 -13
-10 -10 -17 16 -50 17 -21 40 -42 51 -46 30 -12 16 -33 -24 -36 -28 -2 -38 2
-52 22 -22 35 -33 33 -53 -9 -9 -19 -21 -35 -25 -35 -5 0 -7 4 -3 10 3 5 -22
10 -61 12 -45 2 -69 7 -72 16 -2 7 5 16 17 19 20 5 21 12 21 103 0 91 -1 98
-21 103 -12 3 -19 12 -17 19 3 9 30 14 86 16 59 2 82 6 82 16 0 7 -10 12 -22
12 -26 -1 -36 27 -18 49 21 26 50 18 50 -12z m2877 -8 c1 -17 0 -24 -3 -17 -6
14 -44 17 -44 3 0 -5 8 -12 18 -15 13 -4 13 -4 -3 -3 -27 3 -25 31 3 35 26 4
29 18 5 26 -14 4 -14 4 2 3 15 -2 21 -10 22 -32z m-4180 -31 c-3 -3 -12 -4
-19 -1 -8 3 -5 6 6 6 11 1 17 -2 13 -5z m3840 0 c-3 -3 -12 -4 -19 -1 -8 3 -5
6 6 6 11 1 17 -2 13 -5z m-2737 -66 c0 -32 6 -49 27 -70 15 -15 22 -28 16 -28
-6 0 -13 6 -16 13 -2 6 -19 12 -38 12 -31 0 -35 3 -43 38 -20 81 -46 20 -46
-109 0 -52 0 -53 33 -56 20 -2 32 -8 32 -18 0 -12 -18 -16 -87 -18 -83 -3 -88
-2 -88 18 0 16 6 20 30 20 29 0 30 1 30 48 0 26 -3 71 -6 100 -5 41 -11 52
-25 52 -13 0 -19 -9 -21 -37 -2 -30 -7 -38 -23 -38 -17 0 -20 8 -23 58 l-3 57
126 0 125 0 0 -42z m555 22 c0 -10 -12 -16 -37 -18 l-38 -3 0 -99 0 -99 38 -3
c25 -2 37 -8 37 -18 0 -12 -18 -15 -105 -15 -85 0 -105 3 -105 15 0 8 11 17
24 20 42 10 36 28 -11 33 -42 3 -42 4 10 5 l52 2 0 77 c0 70 -1 75 -15 57 -13
-16 -14 -16 -9 -1 5 13 1 17 -19 17 -25 0 -42 23 -31 41 3 5 51 8 107 7 83 -2
102 -6 102 -18z m255 5 c32 -17 43 -41 39 -89 -2 -19 3 -41 11 -50 23 -29 17
-76 -14 -103 -26 -22 -35 -23 -134 -21 -76 2 -107 7 -110 16 -2 7 5 16 17 19
20 5 21 12 21 104 0 80 -3 99 -14 99 -18 0 -29 16 -21 30 10 16 172 12 205 -5z
m287 -6 c18 -11 40 -34 48 -49 19 -37 19 -113 0 -150 -17 -34 -73 -70 -107
-70 -16 0 -29 -8 -36 -22 -10 -22 -11 -22 -11 -2 -1 22 -19 44 -35 44 -6 0 -2
-8 9 -16 20 -16 20 -16 0 -12 -11 2 -21 12 -23 23 -2 11 -13 30 -25 42 -30 34
-34 118 -8 161 44 69 124 91 188 51z m1646 -26 c-28 -5 -30 -29 -3 -36 13 -3
20 -13 19 -29 -2 -23 -2 -23 -6 0 -3 14 -12 22 -24 22 -14 0 -19 7 -19 25 0
21 4 25 28 24 23 -2 24 -2 5 -6z m324 -43 c-11 -27 -24 -50 -28 -50 -4 0 1 18
12 40 24 49 24 48 -8 53 -23 3 -22 4 9 6 l36 1 -21 -50z m-4166 11 c-13 -3
-28 -15 -32 -26 -5 -14 -8 -15 -8 -4 -1 21 19 39 44 38 17 -1 17 -2 -4 -8z
m1149 5 c0 -2 -7 -7 -16 -10 -8 -3 -12 -2 -9 4 6 10 25 14 25 6z m-1153 -62
c-3 -3 -12 -4 -19 -1 -8 3 -5 6 6 6 11 1 17 -2 13 -5z m3840 0 c-3 -3 -12 -4
-19 -1 -8 3 -5 6 6 6 11 1 17 -2 13 -5z m-3847 -96 c-13 -13 -19 -16 -15 -8
14 25 28 41 32 36 3 -3 -5 -15 -17 -28z m3868 -61 c9 -3 -1 -5 -23 -5 -22 0
-32 2 -22 5 13 3 17 16 19 51 l2 47 3 -47 c3 -33 9 -48 21 -51z m332 88 c0
-13 -45 -95 -52 -95 -5 0 1 18 12 40 25 49 25 48 -7 53 -23 3 -21 4 10 6 20 0
37 -1 37 -4z m-4160 -71 c0 -2 -16 -4 -35 -4 -19 0 -35 4 -35 8 0 4 16 6 35 4
19 -2 35 -6 35 -8z m4190 -87 c20 -3 18 -5 -9 -6 -19 0 -44 -9 -55 -18 -15
-14 -14 -10 4 13 14 17 27 28 30 23 3 -4 16 -9 30 -12z m-4130 3 c-8 -5 -37
-9 -65 -8 l-50 1 55 7 c30 4 60 7 65 8 6 1 3 -3 -5 -8z m1220 -5 c0 -13 -45
-95 -52 -95 -5 0 1 18 12 40 25 49 25 48 -7 53 -23 3 -21 4 10 6 20 0 37 -1
37 -4z m750 -56 c0 -39 22 -34 31 7 6 28 7 28 8 -7 1 -33 -1 -36 -26 -35 -24
1 -28 6 -31 34 -2 18 1 32 7 32 6 0 11 -14 11 -31z m1800 -5 c0 -33 -2 -35
-27 -32 -34 4 -38 32 -5 36 26 4 29 19 5 25 -14 4 -12 5 5 6 19 1 22 -4 22
-35z m-3810 13 c0 -2 -10 -12 -22 -23 l-23 -19 19 23 c18 21 26 27 26 19z
m4150 -13 c-8 -8 -23 -20 -34 -25 -13 -7 -9 -1 9 15 34 29 43 33 25 10z
m-4110 -94 c-8 -5 -37 -9 -65 -8 l-50 1 55 7 c30 4 60 7 65 8 6 1 3 -3 -5 -8z
m2009 -14 c17 -20 10 -67 -11 -79 -23 -15 -48 8 -48 42 0 45 35 66 59 37z
m-839 -47 c0 -39 22 -34 31 7 6 28 7 28 8 -7 1 -33 -1 -36 -26 -35 -24 1 -28
6 -31 34 -2 18 1 32 7 32 6 0 11 -14 11 -31z m-1210 8 c0 -2 -10 -12 -22 -23
l-23 -19 19 23 c18 21 26 27 26 19z m2033 -114 c-25 -5 -32 -33 -9 -33 8 0 17
-4 20 -9 3 -4 -6 -6 -19 -3 -18 3 -25 11 -25 28 0 20 5 24 28 23 23 -2 24 -2
5 -6z m-2063 -40 c0 -11 -3 -14 -8 -7 -4 6 -14 14 -22 17 -10 4 -8 6 8 6 15 1
22 -5 22 -16z m-397 -371 c-6 -4 -13 -23 -15 -42 l-3 -35 -6 43 c-4 37 -2 42
16 42 12 0 16 -3 8 -8z m59 -34 c-2 -24 -9 -49 -14 -55 -12 -14 -44 -17 -52
-5 -2 4 8 8 22 7 24 0 27 4 30 39 2 24 -2 42 -10 47 -9 6 -7 9 7 9 18 0 20 -5
17 -42z m108 10 c0 -4 -13 -5 -30 -1 -19 3 -30 1 -30 -6 0 -6 11 -11 24 -11
14 0 27 -4 30 -8 3 -5 -8 -6 -25 -4 -32 5 -44 16 -34 32 7 12 65 10 65 -2z
m108 0 c25 -25 13 -38 -33 -38 -49 0 -50 1 -35 31 12 21 50 25 68 7z m82 1 c0
-8 5 -7 15 1 13 11 18 11 28 0 9 -10 9 -11 -1 -6 -18 11 -42 -12 -42 -40 0
-16 7 -24 23 -27 12 -2 4 -5 -18 -5 -22 0 -34 2 -27 5 6 2 12 20 12 38 0 18
-6 36 -12 38 -8 3 -6 6 5 6 9 1 17 -4 17 -10z m-210 -66 c11 3 17 1 14 -4 -9
-15 -64 -7 -64 9 0 12 3 12 15 2 8 -7 24 -10 35 -7z m115 -1 c13 3 22 1 19 -3
-9 -15 -51 -10 -65 9 -13 15 -12 16 3 3 10 -7 29 -11 43 -9z m4493 -129 c-16
-2 -40 -2 -55 0 -16 2 -3 4 27 4 30 0 43 -2 28 -4z m-876 -160 c16 -14 18 -34
18 -191 0 -149 -2 -178 -17 -194 -15 -17 -89 -18 -1951 -18 -1787 0 -1937 1
-1954 17 -16 14 -18 34 -18 191 0 149 2 178 17 194 15 17 89 18 1951 18 1787
0 1937 -1 1954 -17z m826 -10 c-10 -2 -26 -2 -35 0 -10 3 -2 5 17 5 19 0 27
-2 18 -5z m6 -161 c3 -5 -5 -8 -17 -8 -16 1 -23 -6 -25 -23 -3 -17 0 -21 10
-15 11 6 11 5 0 -8 -16 -19 0 -33 26 -23 14 5 15 4 4 -7 -30 -30 -70 43 -41
78 13 15 35 19 43 6z m15 -44 c-1 -18 -2 -19 -6 -5 -2 9 -9 14 -15 11 -7 -4
-8 -2 -4 4 12 20 26 13 25 -10z m-39 -193 c8 0 18 13 21 30 l7 30 1 -32 c1
-24 -4 -33 -20 -38 -25 -8 -39 9 -38 45 1 22 2 22 8 -5 3 -17 13 -30 21 -30z
m17 -125 c-11 -27 -24 -50 -28 -50 -4 0 1 18 12 40 24 49 24 48 -8 53 -23 3
-22 4 9 6 l36 1 -21 -50z m43 -117 c-19 -3 -44 -12 -55 -21 -20 -17 -20 -17
-1 6 14 16 29 22 55 20 l36 -1 -35 -4z m0 -47 c0 -2 -8 -10 -17 -17 -16 -13
-17 -12 -4 4 13 16 21 21 21 13z m-4689 -52 c18 -22 -1 -49 -37 -51 l-29 -2
30 7 c21 5 30 13 30 27 0 16 -9 21 -40 26 l-40 6 36 2 c23 0 42 -5 50 -15z
m97 -16 c5 -7 11 -27 14 -43 4 -30 2 -31 -34 -32 -21 -1 -40 3 -44 8 -9 16 16
39 43 39 34 0 24 23 -13 31 -29 7 -29 7 -3 8 15 0 31 -5 37 -11z m132 0 c0 -4
-13 -5 -30 -1 -19 3 -30 1 -30 -6 0 -6 8 -11 19 -11 28 0 47 -26 31 -45 -15
-18 -70 -16 -70 2 0 10 4 11 19 2 22 -14 55 -5 49 14 -3 6 -13 14 -24 15 -47
9 -41 44 7 40 16 -1 29 -6 29 -10z m110 0 c0 -4 -13 -5 -30 -1 -19 3 -30 1
-30 -6 0 -6 11 -11 24 -11 14 0 27 -4 30 -8 3 -5 -8 -6 -25 -4 -32 5 -44 16
-34 32 7 12 65 10 65 -2z m52 -13 c-2 -14 -6 -25 -7 -25 -1 0 -5 11 -7 25 -3
16 -1 25 7 25 8 0 10 -9 7 -25z m78 15 c0 -5 -7 -7 -15 -4 -8 4 -15 8 -15 10
0 2 7 4 15 4 8 0 15 -4 15 -10z m98 -2 c29 -29 7 -78 -34 -78 -13 0 -25 3 -27
8 -3 4 9 7 26 7 29 0 32 3 32 30 0 28 -2 30 -34 28 -24 -1 -30 1 -20 8 20 12
43 11 57 -3z m72 2 c0 -6 8 -5 20 2 16 10 22 10 32 0 11 -11 10 -12 -5 -6 -23
8 -47 -13 -47 -42 0 -16 7 -24 23 -27 12 -2 4 -5 -18 -5 -22 0 -34 2 -27 5 6
2 12 20 12 38 0 18 -6 36 -12 38 -8 3 -6 6 5 6 9 1 17 -4 17 -9z m144 4 c9 -3
16 -10 16 -15 0 -5 -8 -4 -19 2 -26 17 -51 4 -51 -26 0 -29 25 -43 49 -28 11
7 20 7 27 -1 8 -9 2 -12 -25 -13 -42 -1 -61 11 -61 41 0 37 27 54 64 40z
m-350 -41 c3 -10 9 -24 12 -30 3 -7 1 -13 -5 -13 -6 0 -11 7 -11 15 0 8 -4 15
-10 15 -5 0 -10 -7 -10 -15 0 -8 -4 -15 -10 -15 -5 0 -10 7 -10 15 0 8 5 15
10 15 6 0 10 7 10 15 0 21 16 19 24 -2z m23 -5 c-3 -8 -6 -5 -6 6 -1 11 2 17
5 13 3 -3 4 -12 1 -19z m40 0 c-3 -8 -6 -5 -6 6 -1 11 2 17 5 13 3 -3 4 -12 1
-19z m4196 5 c-13 -2 -35 -2 -50 0 -16 2 -5 4 22 4 28 0 40 -2 28 -4z m-4373
-30 c11 3 17 1 14 -4 -9 -15 -64 -7 -64 9 0 12 3 12 15 2 8 -7 24 -10 35 -7z
m4372 5 c-9 -9 -6 -19 16 -42 l27 -31 -28 24 -27 25 -30 -22 c-45 -34 -44 -26
3 18 38 35 69 58 39 28z m-4724 -15 c-10 -2 -26 -2 -35 0 -10 3 -2 5 17 5 19
0 27 -2 18 -5z m3854 -280 c16 -14 18 -34 18 -191 0 -149 -2 -178 -17 -194
-15 -17 -89 -18 -1951 -18 -1787 0 -1937 1 -1954 17 -16 14 -18 34 -18 191 0
149 2 178 17 194 15 17 89 18 1951 18 1787 0 1937 -1 1954 -17z m-4307 -63 c3
-6 -1 -7 -9 -4 -18 7 -21 14 -7 14 6 0 13 -4 16 -10z m53 -97 c-10 -2 -28 -2
-40 0 -13 2 -5 4 17 4 22 1 32 -1 23 -4z m5 -330 c-13 -2 -35 -2 -50 0 -16 2
-5 4 22 4 28 0 40 -2 28 -4z m-3 -47 c0 -2 -8 -10 -17 -17 -16 -13 -17 -12 -4
4 13 16 21 21 21 13z m-17 -126 c9 0 9 -2 0 -8 -6 -4 -13 -23 -16 -42 -2 -19
-4 -3 -4 35 0 39 2 58 4 43 2 -16 10 -28 16 -28z m4269 -87 c16 -14 18 -34 18
-191 0 -149 -2 -178 -17 -194 -15 -17 -89 -18 -1951 -18 -1787 0 -1937 1
-1954 17 -16 14 -18 34 -18 191 0 149 2 178 17 194 15 17 89 18 1951 18 1787
0 1937 -1 1954 -17z m-4272 -58 c0 -13 -45 -95 -52 -95 -5 0 1 18 12 40 25 49
25 48 -7 53 -23 3 -21 4 10 6 20 0 37 -1 37 -4z m-12 -248 c9 -3 -1 -5 -23 -5
-22 0 -32 2 -22 5 12 3 17 15 17 40 0 29 -3 34 -17 29 -15 -5 -14 -3 2 9 19
15 20 14 23 -29 2 -32 8 -46 20 -49z m-165 56 c-7 -2 -19 -2 -25 0 -7 3 -2 5
12 5 14 0 19 -2 13 -5z m-12 -162 c-13 -3 -28 -15 -32 -26 -5 -14 -8 -15 -8
-4 -1 21 19 39 44 38 17 -1 17 -2 -4 -8z m-4 -57 c-3 -3 -12 -4 -19 -1 -8 3
-5 6 6 6 11 1 17 -2 13 -5z m4 -103 c-13 -3 -28 -15 -32 -26 -5 -14 -8 -15 -8
-4 -1 21 19 39 44 38 17 -1 17 -2 -4 -8z m-4 -57 c-3 -3 -12 -4 -19 -1 -8 3
-5 6 6 6 11 1 17 -2 13 -5z m40 -90 c-3 -3 -12 -4 -19 -1 -8 3 -5 6 6 6 11 1
17 -2 13 -5z m-34 -141 c-28 -5 -30 -29 -3 -36 13 -3 20 -13 19 -29 -2 -23 -2
-23 -6 0 -3 14 -12 22 -24 22 -14 0 -19 7 -19 25 0 21 4 25 28 24 23 -2 24 -2
5 -6z m-6 -89 c-3 -3 -12 -4 -19 -1 -8 3 -5 6 6 6 11 1 17 -2 13 -5z m617 -43
c3 -4 -6 -6 -19 -3 -19 3 -25 0 -25 -13 0 -13 6 -16 25 -13 13 3 22 1 19 -4
-3 -5 2 -18 12 -29 9 -10 13 -19 8 -19 -5 0 -15 9 -22 20 -7 11 -19 20 -27 20
-18 0 -20 -26 -2 -33 6 -3 3 -6 -8 -6 -17 -1 -20 5 -20 44 0 42 2 45 27 45 15
0 29 -4 32 -9z m471 -14 c18 -4 18 -5 -2 -6 -18 -1 -23 -7 -23 -27 0 -24 3
-25 28 -19 20 5 24 4 16 -5 -20 -20 -48 -7 -55 25 -6 33 0 62 10 47 3 -5 15
-12 26 -15z m-381 -3 c28 -11 17 -32 -19 -36 -27 -3 -35 0 -35 12 0 29 20 37
54 24z m106 -43 c-4 -39 -8 -46 -28 -47 -18 -1 -19 -1 -2 3 11 2 20 10 20 18
0 8 -7 11 -19 8 -10 -3 -21 -1 -24 4 -3 5 4 9 16 9 16 -1 22 5 22 19 0 14 -6
20 -22 19 -12 0 -20 3 -17 7 2 4 17 7 32 7 27 -1 27 -2 22 -47z m67 43 c-3 -3
-12 -4 -19 -1 -8 3 -5 6 6 6 11 1 17 -2 13 -5z m117 -3 c4 -5 -3 -7 -14 -4
-11 3 -20 1 -20 -5 0 -6 10 -13 23 -15 19 -4 18 -4 -5 -6 -27 -1 -38 16 -21
32 9 10 31 9 37 -2z m190 3 c28 -11 17 -32 -19 -36 -27 -3 -35 0 -35 12 0 29
20 37 54 24z m106 -2 c-8 -2 -19 -8 -25 -12 -5 -5 -15 -3 -21 4 -9 9 -3 12 25
13 20 0 29 -2 21 -5z m-1240 -9 c-19 -3 -44 -12 -55 -21 -20 -17 -20 -17 -1 6
14 16 29 22 55 20 l36 -1 -35 -4z m665 -43 c-3 -5 -18 -9 -33 -9 l-27 1 30 8
c17 4 31 8 33 9 2 0 0 -3 -3 -9z m285 -6 c0 -2 -13 -4 -30 -4 -16 0 -30 4 -30
8 0 5 14 7 30 4 17 -2 30 -6 30 -8z m195 6 c-3 -5 -18 -9 -33 -9 l-27 1 30 8
c17 4 31 8 33 9 2 0 0 -3 -3 -9z m-1145 -4 c0 -2 -8 -10 -17 -17 -16 -13 -17
-12 -4 4 13 16 21 21 21 13z m848 -3 c-10 -2 -26 -2 -35 0 -10 3 -2 5 17 5 19
0 27 -2 18 -5z m380 0 c-10 -2 -26 -2 -35 0 -10 3 -2 5 17 5 19 0 27 -2 18 -5z
m-1188 -103 c-8 -5 -37 -9 -65 -8 l-50 1 55 7 c30 4 60 7 65 8 6 1 3 -3 -5 -8z
m-46 -61 c-10 -11 -28 -25 -39 -31 -11 -6 -4 4 15 20 41 36 51 41 24 11z
m-175 -151 c-1 -18 -2 -19 -6 -5 -2 9 -9 14 -15 11 -7 -4 -8 -2 -4 4 12 20 26
13 25 -10z m4519 -105 c-15 -2 -42 -2 -60 0 -18 2 -6 4 27 4 33 0 48 -2 33 -4z
m-4490 -10 c-10 -2 -26 -2 -35 0 -10 3 -2 5 17 5 19 0 27 -2 18 -5z m3685
-150 c-18 -2 -48 -2 -65 0 -18 2 -4 4 32 4 36 0 50 -2 33 -4z"/>
<path d="M2403 5084 c-7 -18 11 -39 26 -30 17 11 13 46 -4 46 -9 0 -18 -7 -22
-16z"/>
<path d="M2370 4950 c0 -16 5 -30 10 -30 6 0 10 14 10 30 0 17 -4 30 -10 30
-5 0 -10 -13 -10 -30z"/>
<path d="M2410 4955 c0 -25 6 -25 50 3 7 4 -23 22 -37 22 -7 0 -13 -11 -13
-25z"/>
<path d="M2447 4933 c-10 -9 -9 -23 2 -23 5 0 11 7 15 15 5 15 -5 20 -17 8z"/>
<path d="M2388 4833 c-11 -3 -18 -14 -18 -28 0 -31 46 -41 61 -14 8 17 6 19
-23 20 -31 2 -31 2 -5 6 15 2 25 9 22 14 -6 9 -9 10 -37 2z"/>
<path d="M2950 4960 c0 -11 7 -23 15 -26 8 -4 12 -10 9 -15 -3 -5 6 -9 19 -9
19 0 26 6 30 27 7 37 2 43 -39 43 -28 0 -34 -4 -34 -20z"/>
<path d="M2957 4839 c-15 -54 -10 -60 39 -57 83 5 84 61 2 74 -31 5 -36 3 -41
-17z"/>
<path d="M3255 4970 c-3 -5 -2 -10 2 -10 5 0 18 -7 29 -16 18 -15 18 -15 -3
-5 -31 15 -31 15 -36 -26 -4 -37 -4 -37 -6 7 l-2 45 -19 -24 c-36 -43 -18
-151 26 -151 8 0 14 -4 14 -10 0 -18 39 -10 67 14 25 21 28 31 28 81 0 50 -3
60 -28 81 -29 25 -61 31 -72 14z"/>
<path d="M4970 4580 c0 -5 7 -10 15 -10 8 0 15 5 15 10 0 6 -7 10 -15 10 -8 0
-15 -4 -15 -10z"/>
<path d="M3207 4483 c-4 -3 -7 -15 -7 -27 0 -15 3 -17 12 -8 7 7 17 12 22 12
6 0 0 -7 -12 -16 -23 -16 -21 -34 3 -34 17 0 26 26 19 56 -6 23 -23 31 -37 17z"/>
<path d="M990 3885 c-11 -13 -8 -15 25 -15 25 0 35 4 33 13 -7 18 -43 20 -58
2z"/>
<path d="M754 3527 c-2 -7 -3 -91 -2 -187 l3 -175 1945 0 1945 0 0 185 0 185
-1943 3 c-1577 2 -1944 0 -1948 -11z m273 -199 c-2 -18 -4 -4 -4 32 0 36 2 50
4 33 2 -18 2 -48 0 -65z m93 32 l0 -60 -30 0 c-23 0 -33 6 -39 23 -11 30 2 61
28 65 11 2 21 10 21 18 0 8 5 14 10 14 6 0 10 -27 10 -60z m-221 0 l13 35 13
-35 12 -35 8 35 c4 19 10 29 12 23 7 -19 -17 -84 -28 -78 -5 4 -9 15 -9 26 0
10 -4 19 -10 19 -5 0 -10 -9 -10 -19 0 -33 -17 -33 -29 1 -6 17 -11 38 -10 47
0 9 6 0 13 -19 l13 -34 12 34z m88 -37 c-2 -16 -4 -5 -4 22 0 28 2 40 4 28 2
-13 2 -35 0 -50z"/>
<path d="M1064 3366 c-9 -23 0 -51 16 -51 10 0 15 10 15 29 0 32 -21 47 -31
22z"/>
<path d="M875 2731 c-3 -5 -1 -12 5 -16 13 -8 50 3 50 16 0 12 -47 12 -55 0z"/>
<path d="M754 2407 c-2 -7 -3 -91 -2 -187 l3 -175 1945 0 1945 0 0 185 0 185
-1943 3 c-1577 2 -1944 0 -1948 -11z m142 -158 c10 -17 -13 -36 -27 -22 -12
12 -4 33 11 33 5 0 12 -5 16 -11z m59 -9 c0 -8 -8 -16 -17 -18 -13 -2 -18 3
-18 18 0 15 5 20 18 18 9 -2 17 -10 17 -18z m51 9 c10 -17 -13 -36 -27 -22
-12 12 -4 33 11 33 5 0 12 -5 16 -11z m60 0 c10 -17 -13 -36 -27 -22 -12 12
-4 33 11 33 5 0 12 -5 16 -11z m54 -9 c0 -11 -7 -20 -15 -20 -8 0 -15 9 -15
20 0 11 7 20 15 20 8 0 15 -9 15 -20z"/>
<path d="M2480 1490 l0 -70 56 0 c34 0 53 4 49 10 -3 6 -24 10 -46 10 -32 0
-39 3 -39 20 0 17 7 20 40 20 22 0 40 5 40 10 0 6 -18 10 -40 10 -33 0 -40 3
-40 20 0 17 7 20 40 20 22 0 40 5 40 10 0 6 -22 10 -50 10 l-50 0 0 -70z"/>
<path d="M2723 1536 c-5 -9 -6 -37 -3 -63 4 -37 9 -49 25 -52 16 -3 17 -1 7
12 -7 8 -11 35 -11 61 2 51 -4 66 -18 42z"/>
<path d="M2610 1469 c0 -27 5 -49 10 -49 6 0 10 18 10 39 0 24 5 41 14 44 20
8 26 -2 26 -45 0 -21 5 -38 11 -38 6 0 9 19 7 48 -3 47 -3 47 -40 49 l-38 1 0
-49z"/>
<path d="M2774 1495 c-15 -23 -15 -27 0 -50 17 -26 59 -34 71 -14 10 16 -3 23
-18 11 -10 -9 -18 -8 -33 3 -18 13 -16 14 24 15 46 0 50 5 26 38 -20 29 -50
28 -70 -3z m60 -16 c-3 -5 -14 -9 -25 -9 -21 0 -26 26 -6 33 15 5 39 -12 31
-24z"/>
<path d="M2881 1465 c1 -47 2 -48 8 -15 9 44 19 62 32 55 5 -4 9 -1 9 4 0 6
-11 10 -25 9 -23 -2 -25 -6 -24 -53z"/>
<path d="M850 650 c0 -5 12 -10 26 -10 14 0 23 4 19 10 -3 6 -15 10 -26 10
-10 0 -19 -4 -19 -10z"/>
<path d="M1330 650 c0 -5 12 -10 26 -10 14 0 23 4 19 10 -3 6 -15 10 -26 10
-10 0 -19 -4 -19 -10z"/>
<path d="M4172 5415 c-10 -21 -9 -25 3 -25 9 0 15 10 15 25 0 14 -2 25 -3 25
-2 0 -9 -11 -15 -25z"/>
<path d="M4338 3 c7 -3 16 -2 19 1 4 3 -2 6 -13 5 -11 0 -14 -3 -6 -6z"/>
</g>
</svg>
